<svg xmlns="http://www.w3.org/2000/svg" xmlns:xlink="http://www.w3.org/1999/xlink" version="1.1" x="0px" y="0px" viewBox="0 0 100 125" style="enable-background:new 0 0 100 100;" fill="#8517FF" xml:space="preserve"><title>g-10</title><path d="M12,44.7H8c-2.8,0-5,2.2-5,5v1h9V44.7z"/><path d="M4,88.1h3v2H4v2h3v2H4c0.2,1.9,1.8,3.4,3.8,3.4H9v-8h2v8h2v-8h2v8h1.2c1.9-0.1,3.5-1.5,3.7-3.4H17v-2h3v-2h-3.1v-2H20v-1.6  H4V88.1z"/><path d="M49.8,47.5c11.3,0,22.6,1,33.7,2.8c0.5,0.1,1,0.2,1.6,0.3l-8.4-11.3c-2.2-3.1-5.8-4.9-9.6-4.9H33c-3.8-0.1-7.4,1.8-9.7,4.9  L15,50.6c0.5-0.1,1-0.2,1.5-0.3C27.5,48.4,38.6,47.5,49.8,47.5z"/><path d="M92,44.7h-4v6h9v-1C97,46.9,94.8,44.7,92,44.7z"/><path d="M4,67.1v2.4h15l0,0c0.3,0,0.6-0.1,0.8-0.4c0.2-0.3,0.2-0.7,0.2-1c0,0,0-2.7,0-4.1l-1-0.6c0,2.8-2.2,5-5,5s-5-2.2-5-5  c0-1.8,0.9-3.4,2.4-4.3l-3.5-2C5.4,59.9,4,63.4,4,67.1z"/><path d="M89,63.5c0-1.6-1.2-2.9-2.8-3l-2.9,1.7c-0.7,1.5-0.1,3.3,1.4,4s3.3,0.1,4-1.4C88.9,64.4,89,64,89,63.5z"/><path d="M81,63.5l-1,0.6c0,1.3,0,4.1,0,4.1c0,0.3,0,0.7,0.2,1c0.2,0.2,0.5,0.4,0.8,0.4l0,0h15v-2.4c0-3.7-1.4-7.3-3.9-10l-3.5,2  c2.4,1.4,3.2,4.5,1.8,6.8c-1.4,2.4-4.5,3.2-6.8,1.8C81.9,66.9,81,65.3,81,63.5z"/><path d="M38.1,73.2c9.2,1.8,14.5,1.8,23.8,0c3.9-0.8,8.6-2.9,9.1-8.7H29C29.5,69.7,34,72.3,38.1,73.2z"/><path d="M14,66.5c1.7,0,3-1.4,3-3c0-0.4-0.1-0.9-0.3-1.3l-3-1.7c-1.7,0.1-2.9,1.5-2.9,3.1C10.9,65.3,12.3,66.6,14,66.5L14,66.5z"/><path d="M16.8,52.3c-2.8,0.5-5.3,1.6-7.5,3.4L22,62.9v5.2c0.1,0.8-0.1,1.6-0.6,2.2c-0.6,0.8-1.5,1.2-2.4,1.2l0,0H4v5h17.4l4.3,4.3  l-1.4,1.4l-3.7-3.7H4v6h92v-6H79.4l-3.7,3.7l-1.4-1.4l4.3-4.3H96v-5H81l0,0c-0.9,0-1.8-0.4-2.4-1.2c-0.5-0.6-0.7-1.4-0.6-2.2v-5.2  l3.8-2.2l0,0l0,0l8.8-5c-2.1-1.8-4.7-2.9-7.4-3.4C61.2,48.6,38.8,48.6,16.8,52.3z M73,63.5c0,6.1-3.9,10.3-10.7,11.6  c-4,0.9-8.1,1.3-12.3,1.4c-4.1-0.1-8.2-0.5-12.3-1.4c-5.2-1-10.7-4.6-10.7-11.6v-1h46V63.5z"/><circle cx="22.5" cy="14" r="0.5"/><path d="M23.5,20.5h39c3.6,5.2,10.7,6.6,16,3c1.8-1.2,3.2-3,4.1-5h-8.1c-2.2,0-4-1.8-4-4v-1c0-2.2,1.8-4,4-4h8.1  C80,3.7,73.3,0.9,67.4,3.4c-2,0.9-3.7,2.3-5,4.1h-39c-3.6,0-6.5,2.9-6.5,6.5l0,0C17,17.6,19.9,20.5,23.5,20.5z M22.5,11.5  c1.4,0,2.5,1.1,2.5,2.5s-1.1,2.5-2.5,2.5S20,15.4,20,14S21.1,11.5,22.5,11.5z"/><path d="M80,88.1h3v2h-3v2h3v2h-3c0.2,1.9,1.8,3.3,3.7,3.4H85v-8h2v8h2v-8h2v8h1.2c1.9-0.1,3.5-1.5,3.7-3.4H93v-2h3v-2h-3.1v-2H96  v-1.6H80V88.1z"/><text x="0" y="115" fill="#8517FF" font-size="5px" font-weight="bold" font-family="'Helvetica Neue', Helvetica, Arial-Unicode, Arial, Sans-serif">Created by Nikita Kozin</text><text x="0" y="120" fill="#8517FF" font-size="5px" font-weight="bold" font-family="'Helvetica Neue', Helvetica, Arial-Unicode, Arial, Sans-serif">from the Noun Project</text></svg>