<?xml version="1.0" encoding="utf-8"?>
<!-- Generator: Adobe Illustrator 25.0.0, SVG Export Plug-In . SVG Version: 6.00 Build 0)  -->
<svg version="1.1" id="Layer_1" xmlns="http://www.w3.org/2000/svg" xmlns:xlink="http://www.w3.org/1999/xlink" x="0px" y="0px"
	 viewBox="0 0 64 80" style="enable-background:new 0 0 64 80;" xml:space="preserve">
<style type="text/css">
	.st0{fill:#8517FF;}
</style>
<path class="st0" d="M6,26h2v2H6V26z M8,48H6v-2h2V48z M10,44H4v-2h4v-2H4V30h6V44z"/>
<path class="st0" d="M8,25H6v-6c0-1.7,1.3-3,3-3h4v2H9c-0.6,0-1,0.4-1,1V25z"/>
<path class="st0" d="M13,59H9c-1.7,0-3-1.3-3-3v-7h2v7c0,0.6,0.4,1,1,1h4V59z"/>
<rect x="16" y="10" class="st0" width="2" height="4"/>
<rect x="56" y="10" class="st0" width="2" height="4"/>
<polygon class="st0" points="52,4 50,4 50,6 48,6 48,4 46,4 46,6 44,6 44,4 42,4 42,8 52,8 "/>
<rect x="44" y="10" class="st0" width="6" height="3"/>
<path d="M16,21v33h42V21H16z M55,51H19v-2h36V51z M55,46H19v-2h36V46z M55,41H19v-2h36V41z M55,36H19v-2h36V36z M55,31H19v-2h36V31z
	 M55,26H19v-2h36V26z"/>
<path class="st0" d="M15,56h-1v3c0,0.6,0.4,1,1,1h44c0.6,0,1-0.4,1-1v-3H15z"/>
<path class="st0" d="M59,15H15c-0.6,0-1,0.4-1,1v3h46v-3C60,15.4,59.6,15,59,15z"/>
</svg>
