<?xml version="1.0" encoding="utf-8"?>
<!-- Generator: Adobe Illustrator 25.0.0, SVG Export Plug-In . SVG Version: 6.00 Build 0)  -->
<svg version="1.1" id="Layer_1" xmlns="http://www.w3.org/2000/svg" xmlns:xlink="http://www.w3.org/1999/xlink" x="0px" y="0px"
	 viewBox="0 0 1000 1000" style="enable-background:new 0 0 1000 1000;" xml:space="preserve">
<style type="text/css">
	.st0{fill:#8517FF;}
</style>

<g>
	<path d="M850.84,614.83l0.14-0.1c-0.44-0.61-0.96-1.14-1.4-1.74c-0.42-0.58-0.79-1.21-1.23-1.79L551.9,215.92
		c-0.56-0.75-1.17-1.44-1.74-2.17c-0.28-0.37-0.52-0.76-0.82-1.14l-0.06,0.04c-45.22-58.11-115.65-92.74-189.38-92.74
		c-132.34,0-239.99,107.66-239.99,239.99c0,73.72,34.6,144.12,92.68,189.34l-0.06,0.07c0.48,0.37,0.99,0.68,1.47,1.06
		c0.65,0.49,1.26,1.03,1.91,1.52l395.27,296.46c0.79,0.59,1.62,1.09,2.43,1.67c0.48,0.35,0.89,0.76,1.37,1.1l0.07-0.11
		c28.46,20.1,62.95,31.23,97.79,31.23c93.41,0,169.41-75.99,169.41-169.41C882.24,677.89,871.06,643.31,850.84,614.83z
		 M148.14,359.9c0-116.76,94.99-211.76,211.76-211.76c65.72,0,128.47,31.18,168.31,83.42c28.39,37.13,43.45,81.44,43.45,128.34
		c0,116.76-94.99,211.76-211.76,211.76c-46.83,0-91.07-15.01-128.18-43.31C179.4,488.51,148.14,425.7,148.14,359.9z M359.9,599.9
		c132.33,0,239.99-107.66,239.99-239.99c0-12.45-1.03-24.71-2.88-36.78l172.74,230.31c-18.07-6.45-37.27-10.01-56.92-10.01
		c-93.41,0-169.41,75.99-169.41,169.41c0,19.67,3.57,38.86,10.04,56.95L323.13,597.02C335.2,598.87,347.45,599.9,359.9,599.9z
		 M712.83,854.01c-29.52,0-58.76-9.56-82.68-26.84c-36.62-26.55-58.49-69.15-58.49-114.34c0-77.84,63.33-141.17,141.17-141.17
		c45.06,0,87.5,21.7,114.01,58.04c17.49,24,27.16,53.42,27.16,83.14C854.01,790.68,790.68,854.01,712.83,854.01z"/>
	<path d="M893.53,577.31L597.07,182.03C541.38,107.77,452.72,63.44,359.9,63.44c-163.48,0-296.46,132.98-296.46,296.46
		c0,92.82,44.33,181.46,118.58,237.17l395.28,296.46c38.85,29.12,86.98,45.18,135.53,45.18c124.54,0,225.88-101.33,225.88-225.88
		C938.71,664.3,922.67,616.14,893.53,577.31z M712.83,910.48c-42.48,0-84.59-14.03-118.58-39.53L198.97,574.48
		C131.78,524.1,91.68,443.87,91.68,359.9C91.68,212,212,91.68,359.9,91.68c83.98,0,164.2,40.11,214.58,107.29l296.46,395.28
		c25.48,33.99,39.53,76.12,39.53,118.58C910.48,821.82,821.82,910.48,712.83,910.48z"/>
	<path class="st0" d="M712.83,656.36c-31.14,0-56.47,25.33-56.47,56.47s25.33,56.47,56.47,56.47s56.47-25.33,56.47-56.47
		S743.98,656.36,712.83,656.36z M712.83,741.07c-15.57,0-28.23-12.66-28.23-28.23c0-15.57,12.66-28.23,28.23-28.23
		c15.57,0,28.23,12.66,28.23,28.23C741.07,728.41,728.41,741.07,712.83,741.07z"/>
	<path class="st0" d="M712.83,599.9c-62.27,0-112.94,50.67-112.94,112.94s50.67,112.94,112.94,112.94s112.94-50.67,112.94-112.94
		S775.1,599.9,712.83,599.9z M712.83,797.54c-46.71,0-84.7-37.99-84.7-84.7s37.99-84.7,84.7-84.7s84.7,37.99,84.7,84.7
		S759.55,797.54,712.83,797.54z"/>
	<path class="st0" d="M359.9,430.49c38.92,0,70.59-31.66,70.59-70.59s-31.66-70.59-70.59-70.59s-70.59,31.66-70.59,70.59
		S320.98,430.49,359.9,430.49z M359.9,317.55c23.35,0,42.35,19,42.35,42.35c0,23.35-19,42.35-42.35,42.35
		c-23.35,0-42.35-19-42.35-42.35C317.55,336.55,336.55,317.55,359.9,317.55z"/>
	<path class="st0" d="M359.9,486.96c70.05,0,127.06-57.01,127.06-127.06S429.95,232.85,359.9,232.85S232.85,289.85,232.85,359.9
		S289.85,486.96,359.9,486.96z M359.9,261.08c54.49,0,98.82,44.33,98.82,98.82s-44.33,98.82-98.82,98.82s-98.82-44.33-98.82-98.82
		S305.41,261.08,359.9,261.08z"/>
	<circle class="st0" cx="359.9" cy="190.5" r="14.12"/>
	<path class="st0" d="M206.14,287.42c6.75,3.9,15.39,1.58,19.28-5.17c3.9-6.75,1.58-15.39-5.17-19.28
		c-6.75-3.9-15.39-1.58-19.28,5.17C197.07,274.89,199.38,283.53,206.14,287.42z"/>
	<path class="st0" d="M220.26,456.83c6.75-3.9,9.06-12.54,5.17-19.28c-3.9-6.75-12.54-9.06-19.28-5.17
		c-6.75,3.9-9.06,12.54-5.17,19.28C204.87,458.41,213.49,460.73,220.26,456.83z"/>
	<circle class="st0" cx="359.9" cy="529.31" r="14.12"/>
	<path class="st0" d="M499.55,456.83c6.75,3.9,15.39,1.58,19.28-5.17c3.9-6.75,1.58-15.39-5.17-19.28
		c-6.75-3.9-15.39-1.58-19.28,5.17C490.49,444.3,492.8,452.94,499.55,456.83z"/>
	<path class="st0" d="M513.67,287.42c6.75-3.9,9.06-12.54,5.17-19.28s-12.54-9.06-19.28-5.17s-9.06,12.54-5.17,19.28
		C498.28,289.01,506.92,291.32,513.67,287.42z"/>
</g>
</svg>
