<?xml version="1.0" encoding="utf-8"?>
<!-- Generator: Adobe Illustrator 25.0.0, SVG Export Plug-In . SVG Version: 6.00 Build 0)  -->
<svg version="1.1" id="Layer_1" xmlns="http://www.w3.org/2000/svg" xmlns:xlink="http://www.w3.org/1999/xlink" x="0px" y="0px"
	 viewBox="0 0 1000 1000" style="enable-background:new 0 0 1000 1000;" xml:space="preserve">
<style type="text/css">
	.st0{fill:#8517FF;}
	.st1{fill:none;}
</style>

<g>
	<path class="st1" d="M26.99,559.13c0,4.95,4.04,8.98,8.98,8.98h90.88c2.59-6.35,5.78-12.37,9.6-17.96H35.97
		C31.02,550.14,26.99,554.17,26.99,559.13z"/>
	<path class="st1" d="M67.4,509.21l-1.82-1.82c-3.93,5.26-7.23,11.04-8.96,16.21l-4.85,14.57h15.64v-28.97H67.4z"/>
	<circle cx="215.59" cy="604.03" r="31.43"/>
	<path class="st1" d="M799.37,560.62c-23.94,0-43.41,19.47-43.41,43.41s19.47,43.41,43.41,43.41c23.94,0,43.41-19.47,43.41-43.41
		S823.3,560.62,799.37,560.62z M799.37,635.47c-17.33,0-31.43-14.11-31.43-31.43c0-17.33,14.11-31.43,31.43-31.43
		c17.33,0,31.43,14.11,31.43,31.43C830.8,621.36,816.69,635.47,799.37,635.47z"/>
	<path class="st1" d="M215.59,560.62c-23.94,0-43.41,19.47-43.41,43.41s19.47,43.41,43.41,43.41S259,627.97,259,604.03
		S239.53,560.62,215.59,560.62z M215.59,635.47c-17.33,0-31.43-14.11-31.43-31.43c0-17.33,14.11-31.43,31.43-31.43
		s31.43,14.11,31.43,31.43C247.02,621.36,232.92,635.47,215.59,635.47z"/>
	<path class="st1" d="M812.46,452.44c-0.13-0.41-0.32-0.75-0.54-1.1c-0.13-0.22-0.17-0.44-0.31-0.65l-67.55-87.81
		c-5.19-6.74-15.51-11.83-24.02-11.83h-92.81c-3.31,0-5.99,2.68-5.99,5.99v97.3c0,3.31,2.68,5.99,5.99,5.99h179.62
		c1.25,0,2.34-0.47,3.29-1.13c0.11-0.07,0.25-0.04,0.35-0.12s0.16-0.2,0.25-0.29c0.32-0.28,0.57-0.6,0.83-0.95
		c0.22-0.29,0.43-0.56,0.6-0.89c0.17-0.34,0.25-0.71,0.35-1.07c0.11-0.4,0.22-0.77,0.24-1.19c0.01-0.13,0.08-0.25,0.08-0.38
		c0-0.25-0.12-0.48-0.14-0.72C812.63,453.22,812.59,452.84,812.46,452.44z"/>
	<path class="st1" d="M964.02,550.14h-85.51c3.81,5.59,7.02,11.62,9.6,17.96h75.91c4.95,0,8.98-4.04,8.98-8.98
		S968.97,550.14,964.02,550.14z"/>
	<rect x="917.62" y="475.3" class="st1" width="10.48" height="40.42"/>
	<path class="st1" d="M597.29,351.06H489.52c-7.8,0-18.86,3.58-25.2,8.14L339.31,449.5c-0.13,0.1-0.2,0.24-0.31,0.34
		c-0.31,0.26-0.57,0.57-0.83,0.9c-0.24,0.3-0.44,0.59-0.62,0.92c-0.17,0.34-0.26,0.67-0.37,1.03c-0.13,0.41-0.23,0.79-0.25,1.21
		c-0.01,0.16-0.1,0.29-0.1,0.46c0,0.23,0.11,0.41,0.13,0.62c0.04,0.41,0.11,0.79,0.24,1.2c0.13,0.4,0.3,0.74,0.5,1.1
		c0.11,0.19,0.14,0.41,0.26,0.59c0.08,0.11,0.22,0.16,0.3,0.25c0.41,0.5,0.9,0.9,1.45,1.25c0.22,0.12,0.37,0.29,0.59,0.4
		c0.77,0.36,1.6,0.59,2.51,0.59h254.47c3.31,0,5.99-2.68,5.99-5.99v-97.3C603.28,353.73,600.6,351.06,597.29,351.06z"/>
	<path class="st0" d="M215.59,529.19c-41.33,0-74.84,33.51-74.84,74.84c0,41.34,33.52,74.84,74.84,74.84s74.84-33.51,74.84-74.84
		C290.43,562.69,256.92,529.19,215.59,529.19z M215.59,647.44c-23.94,0-43.41-19.47-43.41-43.41s19.47-43.41,43.41-43.41
		S259,580.09,259,604.03S239.53,647.44,215.59,647.44z"/>
	<circle cx="799.37" cy="604.03" r="31.43"/>
	<path class="st0" d="M799.37,529.19c-41.33,0-74.84,33.51-74.84,74.84c0,41.34,33.52,74.84,74.84,74.84
		c41.33,0,74.84-33.51,74.84-74.84C874.21,562.69,840.69,529.19,799.37,529.19z M799.37,647.44c-23.94,0-43.41-19.47-43.41-43.41
		s19.47-43.41,43.41-43.41c23.94,0,43.41,19.47,43.41,43.41S823.3,647.44,799.37,647.44z"/>
	<path d="M964.02,538.17h-23.95v-83.82c0-10.24-19.6-24.79-21.83-26.42l-125.93-91.57c-11.74-8.54-32.31-15.23-46.83-15.23H486.52
		c-14.49,0-35.13,6.5-47.01,14.81l-110.44,77.31c-10.08,7.05-28.79,15.14-40.86,17.63l-170.13,35.19
		c-13.48,2.79-33.23,10.33-44.03,16.81c-11.57,6.93-24.2,23.15-28.8,36.92l-6.12,18.36h-3.16c-11.56,0-20.96,9.4-20.96,20.96
		s9.4,20.96,20.96,20.96h11.27l5.82,11.66c4.89,9.77,20.11,20.27,34.63,23.91l36.64,9.16c0.49,0.12,0.97,0.18,1.45,0.18
		c2.69,0,5.14-1.81,5.81-4.54c0.12-0.49,0.07-0.97,0.06-1.45h0.12v-14.97c0-46.21,37.61-83.82,83.82-83.82s83.82,37.61,83.82,83.82
		c0,11.56,9.4,20.96,20.96,20.96h374.22c11.56,0,20.96-9.4,20.96-20.96c0-46.21,37.61-83.82,83.82-83.82
		c46.21,0,83.82,37.61,83.82,83.82c0,3.31,2.68,5.99,5.99,5.99h7.48c7.88,0,20.9-10.93,26.69-16.72l13.22-13.22h27.46
		c11.56,0,20.96-9.4,20.96-20.96S975.58,538.17,964.02,538.17z M56.62,523.6c1.72-5.17,5.03-10.95,8.96-16.21l1.82,1.82v28.96H51.76
		L56.62,523.6z M126.84,568.11H35.97c-4.95,0-8.98-4.04-8.98-8.98s4.04-8.98,8.98-8.98h100.48
		C132.63,555.73,129.43,561.75,126.84,568.11z M597.29,482.79h-29.94c-3.31,0-5.99-2.68-5.99-5.99s2.68-5.99,5.99-5.99h29.94
		c3.31,0,5.99,2.68,5.99,5.99S600.6,482.79,597.29,482.79z M603.28,454.35c0,3.31-2.68,5.99-5.99,5.99H342.82
		c-0.91,0-1.75-0.24-2.51-0.59c-0.22-0.1-0.37-0.26-0.59-0.4c-0.55-0.35-1.04-0.74-1.45-1.25c-0.1-0.11-0.23-0.14-0.3-0.25
		c-0.13-0.18-0.17-0.4-0.26-0.59c-0.2-0.36-0.37-0.71-0.5-1.1c-0.13-0.41-0.2-0.79-0.24-1.2c-0.02-0.22-0.13-0.41-0.13-0.62
		c0-0.16,0.08-0.29,0.1-0.46c0.02-0.42,0.12-0.8,0.25-1.21c0.11-0.36,0.22-0.71,0.37-1.03c0.18-0.34,0.38-0.62,0.62-0.92
		c0.25-0.32,0.51-0.63,0.83-0.9c0.12-0.1,0.19-0.25,0.31-0.34l125.01-90.29c6.32-4.56,17.39-8.14,25.2-8.14h107.77
		c3.31,0,5.99,2.68,5.99,5.99C603.28,357.05,603.28,454.35,603.28,454.35z M812.75,454.72c-0.02,0.41-0.13,0.79-0.24,1.19
		c-0.11,0.37-0.19,0.73-0.35,1.07c-0.17,0.32-0.38,0.6-0.6,0.89c-0.25,0.34-0.5,0.66-0.83,0.95c-0.1,0.08-0.14,0.2-0.25,0.29
		s-0.25,0.05-0.35,0.12c-0.96,0.66-2.05,1.13-3.29,1.13H627.23c-3.31,0-5.99-2.68-5.99-5.99v-97.3c0-3.31,2.68-5.99,5.99-5.99h92.81
		c8.51,0,18.84,5.09,24.02,11.83l67.55,87.81c0.16,0.2,0.19,0.43,0.31,0.65c0.22,0.36,0.41,0.71,0.54,1.1
		c0.13,0.4,0.19,0.78,0.25,1.19c0.02,0.25,0.14,0.47,0.14,0.72C812.84,454.48,812.77,454.59,812.75,454.72z M917.62,475.3h10.48
		v40.42h-10.48V475.3z M964.02,568.11h-75.91c-2.59-6.35-5.78-12.37-9.6-17.96h85.51c4.95,0,8.98,4.04,8.98,8.98
		S968.97,568.11,964.02,568.11z"/>
</g>
</svg>
