<?xml version="1.0" encoding="utf-8"?>
<!-- Generator: Adobe Illustrator 25.0.0, SVG Export Plug-In . SVG Version: 6.00 Build 0)  -->
<svg version="1.1" id="Layer_1" xmlns="http://www.w3.org/2000/svg" xmlns:xlink="http://www.w3.org/1999/xlink" x="0px" y="0px"
	 viewBox="0 0 1000 1000" style="enable-background:new 0 0 1000 1000;" xml:space="preserve">
<style type="text/css">
	.st0{fill:#8517FF;}
</style>

<path d="M814.41,258.08C749.86,186.32,660.49,136.5,559.17,122.2c-2.91,17.23-7.79,45.49-14.8,85.49
	c-1.7,9.6-7.08,17.97-15.63,24.24c-8.64,6.35-19.86,9.93-29.3,9.37c-63.68-3.85-127.95,15.34-181.06,54.01
	c-52.64,38.97-90.17,94.58-105.54,156.49c-2.3,9.17-9.03,18.81-17.7,25.15c-8.55,6.26-18.14,8.92-27.78,7.67
	c-40.33-5.28-68.76-9.07-86.08-11.46c-2.47,15.24-4.22,30.72-5.05,46.48c-6.11,116.75,35.82,225.3,108.36,305.75
	C257.04,905.9,360.67,958.91,477.4,965c116.73,6.11,225.32-35.83,305.76-108.34c80.52-72.47,133.52-176.06,139.62-292.82
	C928.87,447.12,886.98,338.54,814.41,258.08z M779.42,349.35c5.88-6.82,16.2-7.6,23.03-1.72c6.82,5.87,7.61,16.18,1.72,23.01
	c-5.87,6.84-16.21,7.64-22.99,1.74C774.36,366.48,773.57,356.19,779.42,349.35z M667.38,302.52c5.9-6.82,16.21-7.62,23.06-1.72
	c6.82,5.87,7.59,16.18,1.71,23.03c-5.88,6.82-16.2,7.59-23.02,1.72C662.29,319.65,661.52,309.34,667.38,302.52z M640.77,181.86
	c9.01-0.68,16.85,6.06,17.5,15.06c0.69,8.99-6.05,16.81-15.04,17.5c-9.01,0.65-16.85-6.08-17.5-15.06
	C625.08,190.35,631.79,182.52,640.77,181.86z M576.48,190.27c8.98-0.68,16.81,6.08,17.47,15.06c0.7,8.99-6.06,16.83-15.06,17.49
	c-8.98,0.69-16.81-6.06-17.49-15.05C560.72,198.77,567.48,190.94,576.48,190.27z M168.13,694.6c-5.88,6.82-16.16,7.62-22.99,1.71
	c-6.82-5.88-7.62-16.18-1.73-23.01c5.87-6.85,16.17-7.62,22.99-1.73C173.26,677.45,174.01,687.78,168.13,694.6z M184.24,536.97
	c-8.99,0.69-16.81-6.06-17.49-15.05c-0.69-8.99,6.05-16.8,15.06-17.51c9-0.67,16.8,6.09,17.49,15.07
	C199.97,528.46,193.23,536.29,184.24,536.97z M219.55,734.13c-5.85,6.8-16.17,7.59-23.01,1.69c-6.8-5.86-7.61-16.18-1.73-22.98
	c5.87-6.82,16.22-7.62,23.02-1.73C224.7,716.99,225.45,727.31,219.55,734.13z M211.6,592.15c-8.94,0.68-16.81-6.04-17.49-15.06
	c-0.67-8.99,6.11-16.8,15.08-17.5c8.99-0.64,16.81,6.07,17.49,15.05C227.34,583.67,220.61,591.48,211.6,592.15z M273.19,761.29
	c-5.86,6.85-16.16,7.61-22.99,1.73c-6.85-5.88-7.6-16.16-1.73-23.03c5.89-6.82,16.2-7.6,23.02-1.71
	C278.32,744.15,279.08,754.45,273.19,761.29z M331.62,780.97c-5.91,6.82-16.17,7.6-23.03,1.69c-6.82-5.87-7.59-16.16-1.72-23.01
	c5.89-6.82,16.19-7.61,23.02-1.73C336.73,763.81,337.49,774.13,331.62,780.97z M358.23,901.6c-9,0.68-16.82-6.06-17.49-15.04
	c-0.7-9.01,6.05-16.82,15.06-17.49c8.99-0.68,16.81,6.06,17.48,15.04C373.93,893.13,367.21,900.95,358.23,901.6z M422.54,893.2
	c-8.97,0.68-16.8-6.06-17.48-15.04c-0.65-8.99,6.06-16.86,15.07-17.5c8.96-0.68,16.8,6.07,17.47,15.05
	C438.31,884.71,431.57,892.54,422.54,893.2z M479.69,874.51c-9.01,0.64-16.81-6.09-17.5-15.09c-0.65-8.96,6.07-16.8,15.06-17.47
	c8.98-0.68,16.81,6.06,17.48,15.06C495.42,865.99,488.7,873.8,479.69,874.51z M498.23,783.89c-66.77-0.32-127.39-27.82-170.86-71.82
	c-43.24-43.66-70.04-104.04-70.04-170.26v-1.35c0.33-66.78,27.85-127.39,71.84-170.87c43.66-43.24,104.04-70.04,170.27-70.04h1.35
	c66.76,0.33,127.39,27.84,170.87,71.83c43.24,43.66,70.01,104.02,70.01,170.26v1.36c-0.32,66.76-27.84,127.39-71.84,170.86
	c-43.66,43.25-104.05,70.04-170.29,70.01h-1.32V783.89z M534.91,847.13c-9.02,0.68-16.85-6.09-17.53-15.06
	c-0.65-8.99,6.08-16.83,15.07-17.5c8.98-0.68,16.83,6.09,17.5,15.04C550.64,838.61,543.88,846.46,534.91,847.13z M654.09,896.12
	c-5.9,6.82-16.17,7.6-22.99,1.71c-6.86-5.87-7.61-16.18-1.74-23.03c5.9-6.8,16.18-7.61,23.01-1.71
	C659.18,879,659.97,889.27,654.09,896.12z M693.62,844.7c-5.86,6.82-16.2,7.59-23.02,1.71c-6.8-5.88-7.59-16.2-1.73-23.01
	c5.89-6.82,16.19-7.62,23.03-1.73C698.71,827.54,699.51,837.85,693.62,844.7z M720.77,791.06c-5.86,6.8-16.16,7.6-23.01,1.74
	c-6.84-5.93-7.6-16.24-1.73-23.06c5.89-6.82,16.2-7.59,23.01-1.71C725.88,773.92,726.69,784.21,720.77,791.06z M740.46,732.66
	c-5.87,6.85-16.18,7.62-23.03,1.73c-6.8-5.87-7.61-16.18-1.71-23.03c5.88-6.82,16.19-7.59,23.03-1.73
	C745.56,715.5,746.34,725.82,740.46,732.66z M750.55,343.48c-5.9,6.81-16.2,7.58-23.03,1.71c-6.84-5.87-7.6-16.18-1.71-23.02
	c5.87-6.84,16.16-7.64,23.01-1.72C755.66,326.33,756.39,336.63,750.55,343.48z M789.81,523.87c-8.97,0.67-16.81-6.08-17.47-15.07
	c-0.7-8.98,6.05-16.82,15.05-17.5c8.98-0.69,16.82,6.06,17.5,15.05C805.56,515.35,798.81,523.17,789.81,523.87z M799.71,563.99
	c-0.67-8.98,6.08-16.82,15.05-17.48c9.01-0.69,16.85,6.05,17.5,15.03c0.7,9.01-6.06,16.82-15.04,17.49
	C808.22,579.7,800.38,572.97,799.71,563.99z M818.43,621.14c-0.67-9.01,6.06-16.86,15.05-17.49c8.99-0.68,16.81,6.04,17.51,15.04
	c0.67,8.98-6.08,16.82-15.05,17.49C826.95,636.85,819.09,630.12,818.43,621.14z M844.34,700.5c-9,0.7-16.85-6.06-17.51-15.04
	c-0.65-8.98,6.08-16.82,15.08-17.49c8.98-0.68,16.81,6.06,17.47,15.06C860.07,692.02,853.32,699.84,844.34,700.5z M855.61,410.19
	c-5.87,6.84-16.18,7.6-23.01,1.72c-6.82-5.89-7.61-16.18-1.73-23.03c5.89-6.82,16.2-7.6,23.02-1.72
	C860.74,393.05,861.48,403.36,855.61,410.19z"/>
<path d="M716.64,541.66c0-59.43-23.99-113.47-62.78-152.65l0,0c-39.04-39.46-93.3-64.1-153.21-64.4h-1.21
	c-59.42,0-113.47,23.99-152.66,62.79c-39.47,39.03-64.11,93.3-64.42,153.22v1.21c0,59.42,24.01,113.46,62.8,152.65
	c39.04,39.46,93.27,64.11,153.17,64.42h1.21c59.43,0,113.5-24,152.69-62.79c39.46-39.03,64.09-93.3,64.41-153.21V541.66z
	 M499.53,364.13c14.02,0,25.32,11.34,25.32,25.35c0,13.98-11.32,25.32-25.32,25.32c-14.04,0-25.36-11.34-25.36-25.32
	C474.17,375.48,485.49,364.13,499.53,364.13z M352.17,527.93c-13.98,0-25.34-11.34-25.34-25.34c0-14.02,11.35-25.36,25.34-25.36
	c13.99,0,25.36,11.34,25.36,25.36C377.53,516.59,366.16,527.93,352.17,527.93z M407.59,690.57c-14,0-25.36-11.33-25.36-25.31
	c0-14.01,11.35-25.35,25.36-25.35c13.99,0,25.34,11.34,25.34,25.35C432.93,679.23,421.58,690.57,407.59,690.57z M499.51,635.81
	c-25.96,0-49.52-10.52-66.54-27.53c-16.99-17.01-27.56-40.59-27.54-66.53c-0.01-25.95,10.55-49.53,27.54-66.53
	c17.02-17.01,40.58-27.55,66.54-27.54c25.96-0.01,49.54,10.54,66.53,27.54c17.02,17,27.57,40.58,27.57,66.53
	c0,25.93-10.54,49.52-27.57,66.53C549.05,625.29,525.47,635.81,499.51,635.81z M591.43,690.57c-13.97,0-25.31-11.33-25.31-25.31
	c0-14.01,11.34-25.35,25.31-25.35c14.01,0,25.35,11.34,25.35,25.35C616.78,679.23,605.44,690.57,591.43,690.57z M646.86,527.93
	c-14.01,0-25.36-11.34-25.36-25.34c0-14.02,11.35-25.36,25.36-25.36c13.99,0,25.32,11.34,25.32,25.36
	C672.19,516.59,660.86,527.93,646.86,527.93z"/>
<path class="st0" d="M190.62,446.26c16.09-64.75,55.12-125.66,114.29-169.47c59.48-43.36,129.3-62.39,195.89-58.36
	c6.09,0.36,19.25-4.77,21-14.68c5.35-30.45,16.41-93.63,17.72-103.42c1.73-12.98-11.87-21.72-16.25-22.13
	c-59.48-5.55-118.35,1.29-175.35,20.81c-12.75,2.65-25.67,1.45-37.48-16.69c-4.56-6.19-15.71-5.29-20.84-3.02
	c-23.08,10.23-45.68,22.42-67.51,36.52l-0.11-0.11c-0.72,0.48-1.4,1.01-2.14,1.49c-0.31,0.21-0.64,0.44-0.95,0.65
	c-6.51,4.31-13.01,8.67-19.37,13.33c-0.34,0.24-0.64,0.52-0.99,0.77c-0.32,0.26-0.7,0.47-1.02,0.72
	c-6.36,4.67-12.46,9.55-18.52,14.48c-0.29,0.23-0.63,0.47-0.91,0.72c-0.68,0.54-1.39,1.05-2.06,1.6l0.08,0.12
	c-19.99,16.62-38.39,34.51-55.05,53.5c-3.7,4.21-7.88,14.57-3.33,20.79c13.74,16.71,11.05,29.39,4.71,40.77
	C86.74,313.18,62.61,367.33,50.1,425.73c-0.93,4.31,3.36,19.9,16.25,22.12c9.73,1.69,73.33,10.03,103.96,14.05
	C180.3,463.2,189.16,452.17,190.62,446.26z M453.42,128.17c10.71-7.86,25.67-5.54,33.53,5.14c7.83,10.66,5.55,25.66-5.16,33.5
	c-10.68,7.86-25.67,5.55-33.51-5.12C440.46,151.03,442.74,136.01,453.42,128.17z M147.08,412.67c-10.69,7.86-25.7,5.55-33.54-5.12
	c-7.85-10.68-5.55-25.68,5.16-33.54c10.68-7.86,25.67-5.54,33.51,5.15C160.04,389.82,157.78,404.81,147.08,412.67z"/>
</svg>
