<?xml version="1.0" encoding="utf-8"?>
<!-- Generator: Adobe Illustrator 25.0.0, SVG Export Plug-In . SVG Version: 6.00 Build 0)  -->
<svg version="1.1" id="Layer_1" xmlns="http://www.w3.org/2000/svg" xmlns:xlink="http://www.w3.org/1999/xlink" x="0px" y="0px"
	 viewBox="0 0 1000 1000" style="enable-background:new 0 0 1000 1000;" xml:space="preserve">
<style type="text/css">
	.st0{fill:#8517FF;}
	.st1{fill:none;stroke:#000000;stroke-width:20;stroke-linecap:round;stroke-linejoin:round;stroke-miterlimit:10;}
	.st2{fill:none;stroke:#000000;stroke-width:20;stroke-linecap:round;stroke-linejoin:round;stroke-miterlimit:10.0004;}
	.st3{fill:none;stroke:#000000;stroke-width:20;stroke-linecap:round;stroke-linejoin:round;stroke-miterlimit:9.9999;}
	.st4{fill:#8517FF;stroke:#8517FF;stroke-width:20;stroke-miterlimit:10;}
</style>

<g>
	<circle class="st1" cx="476.88" cy="528.49" r="432.8"/>
</g>
<g>
	<circle class="st1" cx="476.88" cy="528.49" r="244.32"/>
</g>
<g>
	<circle class="st1" cx="476.88" cy="528.49" r="55.84"/>
</g>
<rect x="435" y="353.98" class="st1" width="83.77" height="48.86"/>
<rect x="292.67" y="457.44" transform="matrix(0.309 -0.9511 0.9511 0.309 -227.1154 651.1611)" class="st2" width="83.77" height="48.87"/>
<rect x="594.98" y="440.65" transform="matrix(0.9511 -0.309 0.309 0.9511 -118.7883 215.005)" class="st2" width="48.87" height="83.77"/>
<rect x="364.42" y="607.86" transform="matrix(0.5878 -0.809 0.809 0.5878 -365.3619 582.4025)" class="st3" width="48.86" height="83.77"/>
<rect x="523.03" y="625.65" transform="matrix(0.809 -0.5878 0.5878 0.809 -274.226 456.2199)" class="st3" width="83.77" height="48.86"/>
<line class="st4" x1="476.88" y1="277.19" x2="581.59" y2="116.64"/>
<line class="st4" x1="315.63" y1="335.83" x2="292.59" y2="145.96"/>
<line class="st4" x1="229.07" y1="484.52" x2="89.46" y2="353.98"/>
<line class="st4" x1="259.09" y1="654.14" x2="67.82" y2="643.67"/>
<line class="st4" x1="391.02" y1="764.44" x2="237.45" y2="879.62"/>
<line class="st4" x1="562.74" y1="764.44" x2="519.46" y2="951.52"/>
<line class="st4" x1="694.68" y1="654.14" x2="781.23" y2="825.17"/>
<line class="st4" x1="724.69" y1="484.52" x2="900.6" y2="559.91"/>
<line class="st4" x1="638.13" y1="335.83" x2="821.72" y2="279.99"/>
<line class="st4" x1="391.02" y1="292.55" x2="434.3" y2="105.47"/>
<line class="st4" x1="259.09" y1="402.84" x2="172.53" y2="231.82"/>
<line class="st4" x1="229.07" y1="572.47" x2="53.16" y2="497.08"/>
<line class="st4" x1="315.63" y1="721.16" x2="132.04" y2="777"/>
<line class="st4" x1="476.88" y1="779.8" x2="372.17" y2="940.35"/>
<line class="st4" x1="638.13" y1="721.16" x2="661.17" y2="911.03"/>
<line class="st4" x1="724.69" y1="572.47" x2="864.3" y2="703.01"/>
<line class="st4" x1="694.68" y1="402.84" x2="885.94" y2="413.32"/>
<line class="st4" x1="562.74" y1="292.55" x2="716.32" y2="177.37"/>
</svg>
