<?xml version="1.0" encoding="utf-8"?>
<!-- Generator: Adobe Illustrator 25.0.0, SVG Export Plug-In . SVG Version: 6.00 Build 0)  -->
<svg version="1.1" id="Layer_1" xmlns="http://www.w3.org/2000/svg" xmlns:xlink="http://www.w3.org/1999/xlink" x="0px" y="0px"
	 viewBox="0 0 1000 1000" style="enable-background:new 0 0 1000 1000;" xml:space="preserve">
<style type="text/css">
	.st0{fill:#8517FF;}
</style>

<path d="M614.54,456.71h90.98l0.15-0.52c1.91-6.89,1.97-14.16,0.18-21.07H587.32L614.54,456.71z"/>
<polygon points="354.5,518.64 301.73,518.64 307.76,540.24 355.13,540.24 "/>
<path d="M321.14,862.15c-3.42-0.02-6.21,2.73-6.23,6.15c-0.02,3.42,2.73,6.21,6.15,6.23c3.42,0.02,6.21-2.73,6.23-6.15
	c0-0.01,0-0.03,0-0.04C327.3,864.93,324.54,862.16,321.14,862.15z"/>
<polygon points="699.89,476.88 639.96,476.88 689.03,515.81 "/>
<path d="M355.04,435.12h-70.92c-1.79,6.92-1.73,14.19,0.18,21.07l0.15,0.52h68.27C352.7,449.46,353.48,442.21,355.04,435.12z"/>
<polygon points="353.27,476.88 290.07,476.88 296.1,498.47 353.9,498.47 "/>
<path d="M180.12,379.1c-3.42-0.02-6.21,2.73-6.23,6.15c-0.02,3.42,2.73,6.21,6.15,6.23c3.42,0.02,6.21-2.73,6.23-6.15
	c0-0.01,0-0.03,0-0.04C186.27,381.89,183.52,379.12,180.12,379.1z"/>
<path d="M410.89,365.3c31.84-14.77,69.09-11.78,98.17,7.88h128.18l-18.68-13.73c-6.95-5.13-15.36-7.88-24-7.86H395.41
	c-8.64-0.02-17.05,2.74-24,7.86l-18.68,13.73h44.2C401.37,370.2,406.04,367.56,410.89,365.3z"/>
<path d="M561.91,414.95h131.78c-0.99-0.91-2.03-1.77-3.12-2.57l-25.89-19.02H534.69L561.91,414.95z"/>
<path d="M667.84,862.15c-3.42-0.02-6.21,2.73-6.23,6.15c-0.02,3.42,2.73,6.21,6.15,6.23c3.42,0.02,6.21-2.73,6.23-6.15
	c0-0.01,0-0.03,0-0.04C674,864.93,671.25,862.16,667.84,862.15z"/>
<path d="M808.86,391.48c3.42,0.02,6.21-2.73,6.23-6.15s-2.73-6.21-6.15-6.23c-3.42-0.02-6.21,2.73-6.23,6.15c0,0.01,0,0.02,0,0.04
	C802.7,388.7,805.45,391.47,808.86,391.48z"/>
<path class="st0" d="M186.25,150.69l-4.05-4.61c-0.16-0.18-0.3-0.36-0.45-0.55c-2.95-3.9-8.5-4.67-12.4-1.72
	c-0.01,0.01-0.02,0.02-0.03,0.02l-67.34,51.38c-3.83,2.93-4.65,8.37-1.86,12.3l4.67,5.33L186.25,150.69z"/>
<polygon class="st0" points="699.64,210.29 846.54,322.91 866.97,296.01 719.81,183.74 "/>
<path class="st0" d="M887,195.22l-67.35-51.38c-3.89-2.97-9.44-2.22-12.41,1.66c-0.01,0.01-0.02,0.02-0.03,0.03
	c-0.14,0.19-0.29,0.37-0.45,0.55l-4.03,4.61l81.45,62.15l4.67-5.33C891.65,203.58,890.83,198.15,887,195.22z"/>
<path class="st0" d="M915.8,281.45c5.18-5.9,4.6-14.89-1.31-20.07c-0.24-0.21-0.5-0.42-0.76-0.62L744.94,131.97
	c-5.95-4.51-14.37-3.67-19.31,1.92l-15.2,17.32l13.59,10.37l0,0l99.1,75.61l78.78,60.1L915.8,281.45z"/>
<path d="M177.45,807.38c-17.27-0.8-32.17-12.39-37.19-28.94L66.42,534.62c-3.89-12.74,0.89-26.54,11.83-34.15l46.54-32.48
	l-12.64-43.64l-58.11,41.1c-26.13,18.17-37.55,51.12-28.26,81.56l73.85,243.82c10.24,33.79,40.66,57.47,75.93,59.12l60.9,3.46
	l-12.74-43.96L177.45,807.38z"/>
<path class="st0" d="M69.71,270.65c-0.41,3.92,0.85,7.84,3.46,10.79l13.92,15.84l191.47-146.08l-15.2-17.32
	c-4.94-5.6-13.36-6.44-19.31-1.92L75.24,260.76C72.09,263.14,70.09,266.73,69.71,270.65z"/>
<polygon class="st0" points="289.33,210.29 269.16,183.74 122.01,296.01 142.44,322.91 "/>
<path d="M934.99,465.49l-58.16-41.14l-12.64,43.64l46.54,32.48c10.93,7.61,15.71,21.4,11.82,34.14l-73.84,243.82
	c-5.02,16.55-19.91,28.14-37.19,28.94l-46.27,2.07l-12.74,43.96l60.78-3.46c35.32-1.61,65.79-25.3,76.06-59.13l73.84-243.81
	C972.49,516.59,961.09,483.66,934.99,465.49z"/>
<path d="M601.98,822.28c0.9-0.01,1.68-0.61,1.92-1.47l3.58-12.84l-11.71,14.31H601.98z"/>
<path class="st0" d="M514.35,683.46c-51.09-18.77-107.72,7.44-126.48,58.52c-18.77,51.09,7.44,107.72,58.52,126.48
	c40.62,14.92,86.23,1.59,112.42-32.85l0,0l0.2-0.25c32.74-43.64,23.91-105.56-19.73-138.3c-7.61-5.71-16-10.29-24.92-13.6
	L514.35,683.46z M557.26,804.15c-15.24,42.3-61.88,64.24-104.18,49c-0.21-0.08-0.43-0.15-0.64-0.23
	c-42.36-15.72-64.06-62.7-48.59-105.15c15.38-42.36,62.19-64.24,104.55-48.86c0.09,0.03,0.18,0.07,0.27,0.1
	C551.02,714.73,572.73,761.7,557.26,804.15L557.26,804.15z"/>
<path class="st0" d="M636.48,600.99c0.02-29.95,21.64-55.53,51.18-60.52l-137.63-109.2c14.11,53.53-17.84,108.36-71.37,122.47
	c-38.43,10.13-79.21-3.4-103.96-34.49l5.7,193.36c29.75-47.26,88.48-67.3,140.91-48.08c50.53,18.68,82.18,69,77.15,122.63
	l102.21-124.87c-0.97,0.05-1.95,0.08-2.94,0.08C663.89,662.29,636.48,634.84,636.48,600.99z"/>
<path class="st0" d="M501.71,717.93c-31.86-11.68-67.16,4.68-78.84,36.54c-0.03,0.07-0.05,0.14-0.08,0.21
	c-11.68,32,4.67,67.44,36.61,79.31c31.86,11.68,67.16-4.68,78.84-36.55c0.03-0.07,0.05-0.14,0.08-0.21
	C549.99,765.23,533.64,729.8,501.71,717.93z M516.23,789.04c-7.25,19.7-29.09,29.8-48.79,22.55c-19.7-7.25-29.8-29.09-22.55-48.79
	c7.24-19.69,29.06-29.79,48.76-22.57c19.63,7.05,29.82,28.69,22.76,48.31C516.34,788.72,516.28,788.88,516.23,789.04L516.23,789.04z
	"/>
<path d="M737.88,755.04c-5.3-1.71-8.22-7.39-6.51-12.69c1.71-5.3,7.39-8.22,12.69-6.51l19.69,6.34l10.51-36.3l-20.15-6.48
	c-5.3-1.71-8.22-7.39-6.51-12.69c1.71-5.3,7.39-8.22,12.69-6.51l19.58,6.3l10.51-36.3l-20.04-6.45c-5.31-1.66-8.28-7.32-6.61-12.63
	c1.66-5.31,7.32-8.28,12.63-6.61c0.05,0.02,0.1,0.03,0.15,0.05l19.47,6.27l10.51-36.3l-19.93-6.42c-5.31-1.66-8.28-7.32-6.61-12.63
	c1.66-5.31,7.32-8.28,12.63-6.61c0.05,0.02,0.1,0.03,0.15,0.05l19.37,6.23l10.51-36.3l-19.82-6.38c-5.32-1.66-8.28-7.32-6.61-12.63
	c1.66-5.32,7.32-8.28,12.63-6.61c0.05,0.02,0.11,0.03,0.16,0.05l19.26,6.2l37-127.69c4.1-14.36-0.95-29.77-12.76-38.92
	l-194.1-148.81c-8.78-6.7-19.51-10.35-30.55-10.37h-7.6v31.7c0,5.57-4.51,10.08-10.08,10.08s-10.08-4.51-10.08-10.08v-31.66h-37.67
	v31.7c0,5.57-4.51,10.08-10.08,10.08s-10.08-4.51-10.08-10.08v-31.7h-37.67v31.7c0,5.57-4.51,10.08-10.08,10.08
	c-5.57,0-10.08-4.51-10.08-10.08v-31.7h-37.67v31.7c0,5.57-4.51,10.08-10.08,10.08s-10.08-4.51-10.08-10.08v-31.7H388.9v31.7
	c0,5.57-4.51,10.08-10.08,10.08s-10.08-4.51-10.08-10.08v-31.7h-7.6c-11.04,0.02-21.77,3.66-30.55,10.37l-194.1,148.81
	c-11.81,9.15-16.86,24.56-12.76,38.92l36.99,127.68l19.23-6.19c5.31-1.66,10.97,1.3,12.63,6.61c1.64,5.25-1.23,10.86-6.46,12.59
	l-19.8,6.37l10.51,36.29l19.34-6.22c5.31-1.66,10.97,1.3,12.63,6.61c1.64,5.25-1.23,10.86-6.46,12.59l-19.9,6.4l10.51,36.3
	l19.45-6.25c5.31-1.66,10.97,1.3,12.63,6.61c1.64,5.25-1.23,10.86-6.46,12.59l-20.01,6.44l10.51,36.3l19.56-6.29
	c5.3-1.71,10.98,1.21,12.69,6.51s-1.21,10.98-6.51,12.69l0,0l-20.12,6.47l10.51,36.3l19.66-6.33c5.3-1.71,10.98,1.21,12.69,6.51
	s-1.21,10.98-6.51,12.69l-20.23,6.51l42.36,146.23c4.04,13.81,16.67,23.32,31.06,23.38h380.46c14.38-0.06,27.02-9.57,31.06-23.38
	l42.36-146.21L737.88,755.04z M808.86,358.94c14.56-0.02,26.37,11.76,26.39,26.32c0.02,14.56-11.76,26.37-26.32,26.39
	c-14.56,0.02-26.37-11.76-26.39-26.32c0-0.01,0-0.02,0-0.04C782.54,370.75,794.32,358.96,808.86,358.94z M180.12,411.65
	c-14.56,0.02-26.37-11.76-26.39-26.32c-0.02-14.56,11.76-26.37,26.32-26.39c14.56-0.02,26.37,11.76,26.39,26.32
	c0,0.01,0,0.03,0,0.04C206.43,399.83,194.66,411.62,180.12,411.65z M321.14,894.69c-14.56,0.02-26.37-11.76-26.39-26.32
	c-0.02-14.56,11.76-26.37,26.32-26.39c14.56-0.02,26.37,11.76,26.39,26.32c0,0.01,0,0.02,0,0.04
	C347.45,882.88,335.67,894.67,321.14,894.69z M667.84,894.69c-14.56,0.02-26.37-11.76-26.39-26.32
	c-0.02-14.56,11.76-26.37,26.32-26.39s26.37,11.76,26.39,26.32c0,0.01,0,0.02,0,0.04C694.15,882.88,682.38,894.67,667.84,894.69
	L667.84,894.69z M639.26,769.15l-15.93,57.07c-2.69,9.57-11.4,16.19-21.34,16.22h-22.71l-4.34,5.3
	c-39.4,52.09-113.56,62.38-165.65,22.99c-10.7-8.09-19.95-17.95-27.34-29.15c-7.42-2.12-13.2-7.93-15.3-15.35L264.88,461.61
	c-6.73-24.4,2.25-50.42,22.59-65.49l72.01-52.91c10.4-7.68,23-11.82,35.94-11.79h199.15c12.93-0.03,25.53,4.11,35.94,11.79
	l72.01,52.91c20.34,15.06,29.31,41.09,22.59,65.49l-18.92,67.8l28.81,22.87l-0.02,0.03c26.88,20.59,31.98,59.07,11.38,85.95
	c-0.72,0.94-1.46,1.85-2.23,2.75l0.02,0.02L639.26,769.15z"/>
<path class="st0" d="M697.73,559.79c-22.76-0.06-41.25,18.33-41.32,41.09c-0.06,22.76,18.33,41.25,41.09,41.32
	c22.76,0.06,41.25-18.33,41.32-41.09c0-0.04,0-0.08,0-0.12C738.82,578.28,720.44,559.85,697.73,559.79z"/>
<path class="st0" d="M486.68,759.16c-9.28-3.43-19.58,1.31-23.01,10.59c-3.43,9.28,1.31,19.58,10.59,23.01
	c9.28,3.43,19.58-1.31,23.01-10.59c0.01-0.02,0.01-0.03,0.02-0.05c3.45-9.19-1.21-19.44-10.4-22.88
	C486.81,759.21,486.74,759.19,486.68,759.16z"/>
<polygon points="348.36,685.7 360.72,730.02 359.42,685.7 "/>
<path d="M325.29,393.35l-25.89,19.02c-1.08,0.8-2.12,1.66-3.12,2.57h65.44c3.48-7.73,7.93-14.99,13.24-21.6H325.29z"/>
<polygon points="355.73,560.41 313.39,560.41 319.42,582 356.36,582 "/>
<polygon points="356.96,602.17 325.04,602.17 331.07,623.77 357.59,623.77 "/>
<polygon points="358.19,643.93 336.7,643.93 342.73,665.53 358.83,665.53 "/>
<path class="st0" d="M445.09,478.22c11.36,4.16,23.95-1.68,28.11-13.04c0.01-0.01,0.01-0.03,0.02-0.04l0,0
	c4.2-11.39-1.63-24.03-13.02-28.23c-2.43-0.89-4.99-1.35-7.58-1.36c-9.2,0.03-17.41,5.79-20.57,14.43
	C427.88,461.38,433.71,474,445.09,478.22z"/>
<path class="st0" d="M425.45,531.94c41.51,15.22,87.51-6.09,102.73-47.61c0.02-0.06,0.04-0.12,0.06-0.17
	c15.19-41.58-6.21-87.6-47.78-102.79s-87.6,6.21-102.79,47.78C362.48,470.73,383.87,516.75,425.45,531.94z M413.1,443.05
	c8.01-21.88,32.24-33.12,54.12-25.11s33.12,32.24,25.11,54.12s-32.24,33.12-54.12,25.11c-0.03-0.01-0.05-0.02-0.08-0.03
	c-21.76-7.83-33.05-31.81-25.23-53.57C412.97,443.4,413.04,443.23,413.1,443.05z"/>
</svg>
