<?xml version="1.0" encoding="utf-8"?>
<!-- Generator: Adobe Illustrator 25.0.0, SVG Export Plug-In . SVG Version: 6.00 Build 0)  -->
<svg version="1.1" id="Layer_1" xmlns="http://www.w3.org/2000/svg" xmlns:xlink="http://www.w3.org/1999/xlink" x="0px" y="0px"
	 viewBox="0 0 1000 1000" style="enable-background:new 0 0 1000 1000;" xml:space="preserve">
<style type="text/css">
	.st0{fill:#8517FF;}
</style>

<g>
	<path d="M792.38,693.64l-176.31-84.98l-82.45-183.92c-6.34-15.22-21.56-24.1-38.05-24.1H172.13c-16.49,0-30.44,10.15-36.78,24.1
		L50.36,613.73l0,0l0,0c0,1.27-1.27,2.54-1.27,3.81l0,0V791.3c0,24.1,19.03,43.13,40.59,43.13h25.37c0-3.81-1.27-8.88-1.27-12.68
		c0-55.81,45.66-101.47,101.47-101.47s101.47,45.66,101.47,101.47c0,3.81,0,8.88-1.27,12.68h232.12c0-3.81-1.27-8.88-1.27-12.68
		c0-55.81,45.66-101.47,101.47-101.47c55.81,0,101.47,45.66,101.47,101.47c0,3.81,0,8.88-1.27,12.68h25.37
		c22.83,0,40.59-19.03,40.59-40.59v-62.15C816.47,715.2,806.33,701.25,792.38,693.64z M321.8,606.12H82.07l77.37-169.97
		c2.54-5.07,7.61-8.88,13.95-8.88h148.4V606.12z M347.17,606.12V426h149.67c6.34,0,11.42,3.81,13.95,8.88l76.1,169.97H347.17V606.12
		z"/>
	<path class="st0" d="M215.25,745.64c-41.86,0-76.1,34.25-76.1,76.1c0,41.86,34.25,76.1,76.1,76.1s76.1-34.25,76.1-76.1
		C292.62,779.89,258.38,745.64,215.25,745.64z"/>
	<path class="st0" d="M649.05,745.64c-41.86,0-76.1,34.25-76.1,76.1c0,41.86,34.25,76.1,76.1,76.1s76.1-34.25,76.1-76.1
		C725.15,779.89,690.9,745.64,649.05,745.64z"/>
	<path d="M622.41,117.78c63.42-34.25,144.6-22.83,196.6,32.98h-43.13c-7.61,0-12.68,5.07-12.68,12.68c0,7.61,5.07,12.68,12.68,12.68
		h69.76c7.61,0,12.68-5.07,12.68-12.68V94.95c0-7.61-5.07-12.68-12.68-12.68s-12.68,5.07-12.68,12.68v34.25
		c-59.61-59.61-150.94-71.03-221.97-32.98c-6.34,3.81-8.88,11.42-5.07,17.76C608.46,119.05,616.07,121.59,622.41,117.78z"/>
	<path d="M489.23,228.13l30.44-17.76c-22.83,83.71,12.68,167.43,81.18,209.29c6.34,3.81,13.95,1.27,17.76-3.81
		c3.81-6.34,1.27-13.95-3.81-17.76c-60.88-38.05-92.59-114.16-69.76-186.46l21.56,38.05c8.88,13.95,30.44,2.54,21.56-12.68
		l-34.25-60.88c-3.81-6.34-11.42-7.61-17.76-5.07l-60.88,34.25c-6.34,3.81-7.61,11.42-5.07,17.76
		C475.27,229.4,482.89,231.94,489.23,228.13z"/>
	<path d="M873.55,252.23L873.55,252.23c-7.61,0-12.68,5.07-12.68,12.68c-1.27,26.64-7.61,53.27-21.56,76.1
		c-22.83,39.32-60.88,67.23-105.28,77.37l21.56-38.05c3.81-6.34,1.27-13.95-5.07-17.76c-19.03-11.42-24.1,22.83-52,64.69
		c-1.27,2.54-2.54,6.34-1.27,10.15s2.54,6.34,6.34,7.61l60.88,34.25c6.34,3.81,13.95,1.27,17.76-5.07s1.27-13.95-5.07-17.76
		l-30.44-15.22c48.2-12.68,88.79-43.13,114.16-87.52c15.22-26.64,24.1-57.08,25.37-88.79C886.24,258.57,881.16,252.23,873.55,252.23
		z"/>
	<path d="M789.84,219.25c-5.07-5.07-12.68-5.07-17.76,0l-29.17,29.17H711.2v-31.71l29.17-29.17c5.07-5.07,5.07-12.68,0-17.76
		c-5.07-5.07-12.68-5.07-17.76,0l-22.83,22.83l-22.83-22.83c-5.07-5.07-12.68-5.07-17.76,0c-5.07,5.07-5.07,12.68,0,17.76
		l29.17,29.17v31.71h-31.71l-30.44-29.17c-5.07-5.07-12.68-5.07-17.76,0s-5.07,12.68,0,17.76l22.83,22.83l-22.83,22.83
		c-5.07,5.07-5.07,12.68,0,17.76s12.68,5.07,17.76,0l29.17-29.17h31.71v31.71l-29.17,29.17c-5.07,5.07-5.07,12.68,0,17.76
		c5.07,5.07,12.68,5.07,17.76,0l22.83-22.83l22.83,22.83c5.07,5.07,12.68,5.07,17.76,0c5.07-5.07,5.07-12.68,0-17.76l-29.17-29.17
		v-31.71h31.71l29.17,29.17c5.07,5.07,12.68,5.07,17.76,0c5.07-5.07,5.07-12.68,0-17.76l-22.83-22.83l22.83-22.83
		C794.91,231.94,794.91,224.33,789.84,219.25z"/>
</g>
</svg>
