<?xml version="1.0" encoding="utf-8"?>
<!-- Generator: Adobe Illustrator 25.0.0, SVG Export Plug-In . SVG Version: 6.00 Build 0)  -->
<svg version="1.1" id="Layer_1" xmlns="http://www.w3.org/2000/svg" xmlns:xlink="http://www.w3.org/1999/xlink" x="0px" y="0px"
	 viewBox="0 0 1000 1000" style="enable-background:new 0 0 1000 1000;" xml:space="preserve">
<style type="text/css">
	.st0{fill:#8517FF;}
</style>

<g>
	<path class="st0" d="M828.69,548.31c-12.58-23.3-36.55-37.74-63.06-37.74H225.29c-22.63,0-43.78,11.61-61.64,32.31
		c-17.87,20.62-32.38,50.48-41.54,86.95V334.87c0-5.51,1.41-11.02,4.02-15.78l32.76-59.71c11.24-20.62,17.2-43.85,17.2-67.23V68.57
		c0-1.79-1.41-3.13-3.13-3.13c-1.71,0-3.13,1.41-3.13,3.13v119.79H75.28V68.57c0-1.79-1.41-3.13-3.13-3.13
		c-1.79,0-3.13,1.41-3.13,3.13v123.58c0,5.51-1.41,10.94-4.02,15.71l-32.76,59.78c-11.24,20.55-17.2,43.78-17.2,67.23v286.85
		c0,62.91,41.84,116.21,99.02,133.71c10.5,95.07,57.03,163.93,111.22,163.93h540.34c26.58,0,50.48-14.52,63.06-37.74
		c77.72-6.1,139.29-78.54,139.29-166.61C967.98,626.85,906.41,554.49,828.69,548.31z M21.38,334.87c0-22.41,5.66-44.67,16.45-64.25
		l18.98-34.69l69.24,69.24c0.15,0.07,0.22,0.15,0.3,0.22l-5.81,10.65c-3.13,5.73-4.76,12.21-4.76,18.84v256.69h-94.4V334.87z
		 M186.21,798.08c-14.29,0-28.07-13.92-36.55-36.55c1.79,0.07,3.5,0.15,5.21,0.15h18.02c1.79,0,3.13-1.41,3.13-3.13
		c0-1.79-1.41-3.13-3.13-3.13h-18.02c-73.7,0-133.56-59.93-133.56-133.56v-23.9h94.47v32.61c0,4.84,1.27,9.38,3.28,13.47
		c0.15,0.6,0.45,1.04,0.82,1.49c5.29,9.16,14.96,15.34,26.28,15.34h17.64c0.07,0,0.07,0,0.15,0h18.02c1.71,0,3.13-1.41,3.13-3.13
		c0-1.79-1.41-3.13-3.13-3.13h-18.02c-0.07,0-0.07,0-0.15,0h-11.02c8.64-18.61,20.62-29.33,33.43-29.33
		c24.72,0,44.82,38.71,44.82,86.36C231.03,759.29,210.92,798.08,186.21,798.08z M604.16,913.1H253.29
		c49.06-22.56,85.47-102.81,85.47-198.1c0-95.37-36.4-175.62-85.47-198.1h512.35c22.93,0,43.63,11.84,55.54,31.04
		c-1.04,0-2.01-0.07-3.05-0.07c-22.11,0-43.11,5.43-61.94,14.96h-57.85c-47.94,0-92.91,16.01-126.71,45.12
		c-34.02,29.18-52.78,67.97-52.78,109.29c0,23.9,6.4,46.31,17.79,66.11c-51.22,12.8-109.59,64.17-140.26,94.25
		c-1.86,1.86-3.72,0.82-4.24,0.45c-1.12-0.67-2.08-2.23-1.41-4.17c49.43-134.15,23.9-251.41,23.6-252.53
		c-0.37-1.71-2.01-2.83-3.72-2.38c-1.71,0.37-2.75,2.08-2.38,3.8c0.22,1.12,25.39,116.66-23.45,249.03
		c-1.64,4.39-0.07,9.08,3.87,11.61c1.64,1.04,3.5,1.64,5.29,1.64c2.46,0,4.84-0.97,6.7-2.83c30.67-30,89.19-81.59,139.29-93.21
		c14.96,23.38,37.15,42.81,64.17,56.51v67.6H604.16z M720.44,913.1H610.48v-64.62c25.83,11.84,55.69,18.61,87.77,18.61h22.26v46.01
		H720.44z M765.63,913.1h-38.86v-46.01h29.33c18.91,9.6,39.83,14.96,61.94,14.96c1.04,0,2.08-0.07,3.05-0.07
		C809.26,901.19,788.56,913.1,765.63,913.1z M818.04,875.8c-79.14,0-143.53-72.07-143.53-160.73s64.4-160.81,143.53-160.81
		c79.21,0,143.61,72.14,143.61,160.81S897.26,875.8,818.04,875.8z"/>
	<path d="M826.83,578.39c-62.54,0-113.46,59.41-113.46,132.44s50.85,132.44,113.46,132.44c62.54,0,113.38-59.41,113.38-132.44
		S889.36,578.39,826.83,578.39z M826.83,837.02c-59.04,0-107.13-56.58-107.13-126.11s48.09-126.11,107.13-126.11
		s107.13,56.58,107.13,126.11S885.87,837.02,826.83,837.02z"/>
	<path d="M826.83,653.35c4.02,0,7.97,0.52,11.69,1.56c4.02-8.64,12.88-29.18,10.35-40.35c-4.39-19.21-39.68-19.21-44,0
		c-2.53,11.17,6.25,31.79,10.27,40.35C818.86,653.88,822.81,653.35,826.83,653.35z"/>
	<path d="M826.83,768.38c-4.02,0-7.97-0.52-11.69-1.56c-4.02,8.56-12.8,29.18-10.27,40.35c4.32,19.21,39.61,19.21,44,0
		c2.53-11.17-6.25-31.79-10.35-40.35C834.72,767.85,830.85,768.38,826.83,768.38z"/>
	<path d="M783.57,680.6c4.39-7.97,10.42-14.67,17.72-19.43c-2.46-9.68-8.64-30.9-16.97-36.63c-14.74-9.98-39.68,19.28-31.12,36.48
		C757.89,670.48,775.01,677.62,783.57,680.6z"/>
	<path d="M870.16,741.05c-4.39,7.97-10.5,14.74-17.79,19.43c2.46,9.68,8.64,30.9,17.05,36.63c14.67,9.98,39.61-19.28,31.12-36.48
		C895.84,751.18,878.79,744.11,870.16,741.05z"/>
	<path d="M775.91,710.83c0-5.06,0.6-9.98,1.71-14.67c-7.97-4.99-24.05-13.92-33.05-11.09c-16.45,5.14-16.45,46.38,0,51.52
		c9.01,2.83,25.09-6.1,33.05-11.09C776.5,720.8,775.91,715.89,775.91,710.83z"/>
	<path d="M909.02,685.14c-8.93-2.83-25.01,6.03-32.98,11.02c1.12,4.69,1.71,9.6,1.71,14.74c0,5.06-0.6,9.98-1.71,14.67
		c7.97,4.99,24.05,13.92,32.98,11.09C925.47,731.52,925.47,690.21,909.02,685.14z"/>
	<path d="M783.57,741.05c-8.56,3.05-25.68,10.12-30.45,19.65c-8.49,17.2,16.38,46.38,31.12,36.4c8.34-5.66,14.52-26.95,16.97-36.55
		C794,755.72,787.97,749.09,783.57,741.05z"/>
	<path d="M870.16,680.6c8.64-3.05,25.68-10.12,30.45-19.65c8.49-17.2-16.45-46.38-31.12-36.4c-8.41,5.66-14.59,26.95-17.05,36.55
		C859.59,665.94,865.69,672.64,870.16,680.6z"/>
	<path d="M826.83,662.81c-22.86,0-41.47,21.52-41.47,48.02c0,26.5,18.61,48.02,41.47,48.02s41.47-21.52,41.47-48.02
		C868.3,684.4,849.68,662.81,826.83,662.81z M826.83,752.59c-19.43,0-35.14-18.69-35.14-41.69c0-23,15.78-41.69,35.14-41.69
		s35.14,18.69,35.14,41.69C861.97,733.83,846.18,752.59,826.83,752.59z"/>
	<path d="M826.83,689.46c-10.12,0-18.24,9.6-18.24,21.37c0,11.84,8.19,21.37,18.24,21.37s18.24-9.6,18.24-21.37
		S836.88,689.46,826.83,689.46z"/>
	<path d="M97.69,365.32H39.4c-1.71,0-3.13,1.41-3.13,3.13s1.41,3.13,3.13,3.13h58.29c1.71,0,3.13-1.41,3.13-3.13
		C100.89,366.73,99.48,365.32,97.69,365.32z"/>
	<path d="M97.69,392.27H39.4c-1.71,0-3.13,1.41-3.13,3.13c0,1.71,1.41,3.13,3.13,3.13h58.29c1.71,0,3.13-1.41,3.13-3.13
		C100.82,393.68,99.48,392.27,97.69,392.27z"/>
	<path d="M97.69,419.29H39.4c-1.71,0-3.13,1.41-3.13,3.13s1.41,3.13,3.13,3.13h58.29c1.71,0,3.13-1.41,3.13-3.13
		S99.48,419.29,97.69,419.29z"/>
	<path d="M97.69,446.24H39.4c-1.71,0-3.13,1.41-3.13,3.13c0,1.71,1.41,3.13,3.13,3.13h58.29c1.71,0,3.13-1.41,3.13-3.13
		C100.89,447.66,99.48,446.24,97.69,446.24z"/>
	<path d="M97.69,473.27H39.4c-1.71,0-3.13,1.41-3.13,3.13c0,1.71,1.41,3.13,3.13,3.13h58.29c1.71,0,3.13-1.41,3.13-3.13
		C100.89,474.68,99.48,473.27,97.69,473.27z"/>
	<path d="M97.69,500.22H39.4c-1.71,0-3.13,1.41-3.13,3.13c0,1.71,1.41,3.13,3.13,3.13h58.29c1.71,0,3.13-1.41,3.13-3.13
		C100.89,501.63,99.48,500.22,97.69,500.22z"/>
</g>
</svg>
