<?xml version="1.0" encoding="utf-8"?>
<!-- Generator: Adobe Illustrator 25.0.0, SVG Export Plug-In . SVG Version: 6.00 Build 0)  -->
<svg version="1.1" id="Layer_1" xmlns="http://www.w3.org/2000/svg" xmlns:xlink="http://www.w3.org/1999/xlink" x="0px" y="0px"
	 viewBox="0 0 1000 1000" style="enable-background:new 0 0 1000 1000;" xml:space="preserve">
<style type="text/css">
	.st0{fill:#8517FF;}
</style>
<polygon points="381.26,811.2 389.44,819.31 823.53,389.14 815.35,381.04 "/>
<polygon points="294.74,725.47 302.92,733.58 737.01,303.41 728.84,295.31 "/>
<polygon points="338,768.33 346.18,776.44 780.27,346.28 772.09,338.17 "/>
<polygon points="316.37,746.9 324.55,755.01 758.64,324.84 750.46,316.74 "/>
<polygon points="359.63,789.77 367.81,797.87 801.9,367.71 793.72,359.6 "/>
<polygon points="866.79,432.01 858.61,423.9 424.51,854.06 432.7,862.17 "/>
<path class="st0" d="M950.33,339.95c2.39-9.32-0.34-19.2-7.17-25.98L739.93,112.58c-6.95-6.83-16.96-9.53-26.4-7.13l-6.75,1.72
	l241.78,239.59L950.33,339.95z"/>
<polygon points="607.24,174.82 599.06,166.71 164.97,596.87 173.15,604.98 "/>
<polygon points="402.89,832.63 411.07,840.74 845.16,410.58 836.98,402.47 "/>
<path class="st0" d="M103.3,709.43c-2.54,9.9,0.36,20.4,7.62,27.59l201.86,200.03c7.38,7.25,18,10.12,28.02,7.57l5.81-1.48
	L104.83,703.55L103.3,709.43z"/>
<polygon points="273.12,704.04 281.29,712.14 715.38,281.98 707.21,273.87 "/>
<path class="st0" d="M94.94,648.28c-5.2,5.15-5.24,13.54-0.08,18.74c0.03,0.03,0.06,0.06,0.08,0.08l288.68,286.06
	c5.17,5.1,13.48,5.1,18.66,0l47.67-47.24L142.45,601.2L94.94,648.28z"/>
<path class="st0" d="M669.76,97.14c-5.17-5.1-13.48-5.1-18.66,0l-47.67,47.24l307.51,304.72l47.5-47.07
	c5.2-5.15,5.24-13.54,0.08-18.74c-0.03-0.03-0.06-0.06-0.08-0.08L669.76,97.14z"/>
<polygon points="446.14,875.5 454.32,883.6 888.41,453.44 880.23,445.33 "/>
<polygon points="251.49,682.6 259.67,690.71 693.76,260.55 685.58,252.44 "/>
<polygon points="229.86,661.17 238.04,669.28 672.13,239.11 663.95,231.01 "/>
<polygon points="208.23,639.74 216.41,647.84 650.5,217.68 642.32,209.57 "/>
<polygon points="186.6,618.31 194.78,626.41 628.87,196.25 620.69,188.14 "/>

</svg>
