<?xml version="1.0" encoding="utf-8"?>
<!-- Generator: Adobe Illustrator 25.0.0, SVG Export Plug-In . SVG Version: 6.00 Build 0)  -->
<svg version="1.1" id="Layer_1" xmlns="http://www.w3.org/2000/svg" xmlns:xlink="http://www.w3.org/1999/xlink" x="0px" y="0px"
	 viewBox="0 0 1000 1000" style="enable-background:new 0 0 1000 1000;" xml:space="preserve">
<style type="text/css">
	.st0{fill:#8517FF;}
</style>

<g>
	<path d="M532.36,415.53c-15.35,5.36-25.82-1.97-27.76-2.5v-73.45c0-9.83-7.71-17.54-17.74-17.54H308.15
		c-9.83,0-17.74,7.71-17.74,17.54v227.3c0,2.51-0.77,4.82-1.93,6.75l-25.83,40.68c-1.16,2.12-1.93,4.43-1.93,6.75v74.61
		c0,6.94,5.59,12.34,12.53,12.34H504.6V491.68c16.22,2.8,35.1,1.38,52.82-5.01c19.47-6.75,36.05-18.7,48.39-34.32l-57.26-49.55
		C544.7,408.78,539.11,413.21,532.36,415.53z"/>
	<path class="st0" d="M290.41,275.56c0,5.01,4.05,9.06,9.06,9.06h5.01c4.82,0,8.68,3.86,9.06,8.48h168.88v-46.65H290.41
		L290.41,275.56L290.41,275.56z"/>
	<path d="M290.6,192.28c-6.94,0-12.53,5.59-12.53,12.72c0,6.94,5.59,12.53,12.53,12.53h191.63c3.47,0,6.55-1.35,8.87-3.66
		c2.31-2.31,3.66-5.4,3.66-8.87c0-7.13-5.59-12.72-12.53-12.72h-9.64v-41.64h9.64c3.47,0,6.55-1.35,8.87-3.66
		c2.31-2.31,3.66-5.59,3.66-9.06c0-6.94-5.59-12.53-12.53-12.53H461.8V90.1c3.47,0,6.75-1.54,8.87-3.86
		c2.32-2.31,3.66-5.4,3.66-8.87c0-5.01-2.89-9.25-7.13-11.18h3.86c7.9,0,14.27-6.55,14.27-14.46s-6.36-14.46-14.27-14.46H301.78
		c-7.9,0-14.27,6.55-14.27,14.46s6.36,14.46,14.27,14.46h7.9c-6.36,0.58-11.37,5.78-11.18,12.34c0,7.13,5.59,11.57,12.53,11.57
		v35.28H290.6c-6.94,0-12.53,5.59-12.53,12.53c0,7.13,5.59,12.72,12.53,12.72h9.64v41.64H290.6z"/>
	<path class="st0" d="M509.64,824.76h-5.05v-87.86H290.41v87.86h-4.97c-17.01,0-30.54,13.54-30.54,30.54
		c0,16.66,13.54,30.19,30.54,30.19H338v77.22h119.08V885.5h52.56c17.01,0,30.54-13.54,30.54-30.19
		C540.18,838.3,526.65,824.76,509.64,824.76z"/>
	<path class="st0" d="M616.95,260.65l-73.12,80.21c-6.15,6.96-5.42,17.57,1.54,23.72l102.88,88.82c6.96,6.15,17.58,5.56,23.73-1.4
		l73.12-80.21L616.95,260.65z"/>
</g>
</svg>
