<?xml version="1.0" encoding="utf-8"?>
<!-- Generator: Adobe Illustrator 25.0.0, SVG Export Plug-In . SVG Version: 6.00 Build 0)  -->
<svg version="1.1" id="Layer_1" xmlns="http://www.w3.org/2000/svg" xmlns:xlink="http://www.w3.org/1999/xlink" x="0px" y="0px"
	 viewBox="0 0 1000 1000" style="enable-background:new 0 0 1000 1000;" xml:space="preserve">
<style type="text/css">
	.st0{fill:#8517FF;}
</style>

<path class="st0" d="M875.06,204.03h-2.39c-22.78,0-43.69,7.63-60.54,20.36H709.16c-27.95-25.86-60.01-47.62-95.35-64v-46.25
	c0-19.85-16.1-35.96-35.97-35.96H338.22c-19.85,0-35.96,16.1-35.96,35.96v44.93H56.63c-5.95,0-10.78,4.83-10.78,10.79v203.74
	c-12.68,5.55-21.56,18.18-21.56,32.91v158.18c0,14.71,8.89,27.35,21.56,32.91v217.54c0,5.94,4.83,10.76,10.78,10.76h227.84
	c5.85,3.12,11.78,6.08,17.81,8.89v51.02c0,19.88,16.1,35.97,35.96,35.97h239.64c19.88,0,35.97-16.1,35.97-35.97v-50.99
	c76.43-35.44,137.53-95.89,174.95-169.03c18,27.17,48.83,45.11,83.9,45.11h2.36c55.58,0,100.65-45.08,100.65-100.65v-305.6
	C975.72,249.09,930.64,204.03,875.06,204.03z M126.13,208.82c16.55,0,29.96,13.41,29.96,29.95s-13.41,29.95-29.96,29.95
	s-29.95-13.41-29.95-29.95S109.58,208.82,126.13,208.82z M126.13,769.59c-16.55,0-29.95-13.41-29.95-29.93
	c0-16.55,13.39-29.96,29.95-29.96s29.96,13.41,29.96,29.96C156.08,756.19,142.67,769.59,126.13,769.59z M565.03,777.41
	c-13.9,5.33-23.09,18.69-23.09,33.59v38.88H374.18V811c0-14.91-9.2-28.26-23.09-33.59C256.15,741.1,184.67,656.85,164.5,557.55
	c-3.4-16.76-18.13-28.81-35.23-28.81H96.17v-86.28h38.98c16.11,0,30.24-10.71,34.6-26.21c25.52-90.61,93.29-164.79,181.33-198.49
	c13.9-5.32,23.09-18.68,23.09-33.56v-34.11h167.76v34.11c0,14.9,9.2,28.25,23.09,33.56c115.19,44.08,192.6,156.54,192.6,279.83
	S680.22,733.34,565.03,777.41z M766,308.27c-13.22,0-23.94-10.72-23.94-23.97s10.74-23.97,23.94-23.97
	c13.23,0,23.97,10.74,23.97,23.97C789.96,297.53,779.23,308.27,766,308.27z M880.47,623.42c-28.14,0-50.96-22.81-50.96-50.93
	c0-28.11,22.81-50.93,50.96-50.93c28.11,0,50.93,22.81,50.93,50.93C931.39,600.61,908.58,623.42,880.47,623.42z M878.04,395.74
	c-38.04,0-68.87-30.85-68.87-68.9s30.83-68.9,68.87-68.9c38.07,0,68.9,30.85,68.9,68.9S916.11,395.74,878.04,395.74z"/>
</svg>
