<?xml version="1.0" encoding="utf-8"?>
<!-- Generator: Adobe Illustrator 25.0.0, SVG Export Plug-In . SVG Version: 6.00 Build 0)  -->
<svg version="1.1" id="Layer_1" xmlns="http://www.w3.org/2000/svg" xmlns:xlink="http://www.w3.org/1999/xlink" x="0px" y="0px"
	 viewBox="0 0 1000 1000" style="enable-background:new 0 0 1000 1000;" xml:space="preserve">
<style type="text/css">
	.st0{fill:#8517FF;}
</style>

<g>
	<path d="M596.07,513.25c4.97,4.97,13.08,4.97,18.07,0l83.53-83.53l5.16-31.41l8.62,8.61c2.49,2.49,6.53,2.49,9.03,0L735.4,392
		c2.48-2.49,2.48-6.54,0-9.03l-13.43-13.44l10.64-10.65l13.44,13.43c2.49,2.51,6.54,2.51,9.05,0L770,357.4
		c2.49-2.51,2.49-6.54,0-9.05l-13.43-13.43l10.66-10.66l13.43,13.44c2.48,2.49,6.53,2.49,9.05,0l14.91-14.91
		c2.51-2.49,2.51-6.54,0-9.05l-13.44-13.44l10.67-10.65l17.97,17.97l23.95-23.97l2.1-2.1c10-9.99,10-26.17,0-36.16l-15-15l20.2-20.2
		l-9.58-9.57l15.6-15.6l0.09,0.08l47.34-23.57l23.57-47.36l-43.21-43.22l-47.36,23.55l-23.55,47.37l0.06,0.08l-15.59,15.6
		l-9.57-9.56l-20.21,20.2l-14.98-15.01c-9.98-9.99-26.17-9.99-36.16,0l-2.13,2.12l-23.97,23.95l17.97,17.97l-10.65,10.65
		l-13.44-13.43c-2.48-2.51-6.54-2.51-9.05,0l-14.9,14.92c-2.51,2.49-2.51,6.54,0,9.05l13.42,13.43l-10.66,10.65l-13.43-13.44
		c-2.49-2.51-6.53-2.51-9.03,0l-14.92,14.92c-2.49,2.51-2.49,6.54,0,9.05l13.44,13.43l-10.66,10.66l-13.43-13.44
		c-2.51-2.49-6.54-2.49-9.03,0l-14.93,14.9c-2.49,2.51-2.49,6.54,0,9.05l8.61,8.61l-31.4,5.17l-83.53,83.53c-5,4.99-5,13.09,0,18.08
		L596.07,513.25z"/>
	<path class="st0" d="M102.92,914.53c2.49,2.49,5.76,3.75,9.05,3.75c3.28,0,6.54-1.25,9.05-3.75c5-5,5-13.1,0-18.08l-30.78-30.78
		c-2.42-2.42-3.75-5.63-3.75-9.05c0-3.4,1.33-6.61,3.75-9.05l34.94-34.95l16.17,16.17l-22.33,22.34c-5,4.97-5,13.09,0,18.08
		l23.47,23.45c5,4.99,13.09,4.99,18.08,0l22.33-22.33l34.29,34.29c2.51,2.51,6.54,2.51,9.05,0l16.57-16.57
		c2.49-2.49,2.49-6.53,0-9.03l-10.55-10.55c-1.25-1.27-1.25-3.29,0-4.52l5.27-5.27c1.24-1.25,3.27-1.25,4.52,0l10.54,10.55
		c2.49,2.49,6.54,2.49,9.03,0l17.34-17.33c2.51-2.49,2.51-6.55,0-9.06l-10.55-10.54c-1.25-1.25-1.25-3.27,0-4.52l5.26-5.27
		c1.25-1.25,3.27-1.25,4.52,0l10.55,10.56c2.49,2.48,6.54,2.48,9.05,0l17.33-17.35c2.49-2.49,2.49-6.53,0-9.05l-10.55-10.55
		c-1.24-1.25-1.24-3.27,0-4.51l5.27-5.27c1.25-1.24,3.27-1.24,4.52,0l10.54,10.55c2.51,2.51,6.54,2.51,9.05,0l15.52-15.52l6.56,6.56
		c9.99,9.99,26.17,9.99,36.16,0l69.21-69.19c0.94-0.94,1.72-1.99,2.48-3.04c9.33,7.19,22.73,6.61,31.28-1.94
		c9.3-9.28,9.3-24.35,0-33.66L318.88,503.84c-9.3-9.3-24.35-9.3-33.65,0c-8.56,8.56-9.13,21.95-1.95,31.27
		c-1.04,0.76-2.09,1.53-3.04,2.48l-69.19,69.21c-9.99,9.98-9.99,26.17,0,36.14l6.56,6.58l-15.54,15.52c-2.49,2.49-2.49,6.54,0,9.05
		l10.55,10.54c1.25,1.27,1.25,3.29,0,4.51l-5.27,5.27c-1.24,1.27-3.26,1.27-4.51,0l-10.55-10.54c-2.51-2.49-6.54-2.49-9.03,0
		l-17.34,17.34c-2.49,2.49-2.49,6.53,0,9.05l10.55,10.56c1.25,1.24,1.25,3.26,0,4.51l-4.31,4.3c-0.19,0.18-0.41,0.23-0.58,0.39
		l-0.66,0.73c-1.25,1-3.03,1.03-4.18-0.14l-10.55-10.55c-2.49-2.49-6.54-2.49-9.05,0l-17.33,17.34c-2.49,2.49-2.49,6.54,0,9.05
		l10.55,10.55c1.17,1.15,1.13,2.93,0.14,4.18l-5.74,5.75c-1.25,0.98-3.03,1-4.18-0.14l-10.55-10.56c-2.51-2.51-6.53-2.51-9.05,0
		L94.4,772.8c-2.49,2.49-2.49,6.53,0,9.03l12.72,12.72l-34.95,34.97c-7.27,7.23-11.25,16.88-11.25,27.11
		c0,10.25,3.98,19.88,11.23,27.11L102.92,914.53z"/>
	<path d="M377,514.91l107.13,107.14c2.51,2.49,6.54,2.49,9.05,0l77.35-77.35c2.48-2.49,2.48-6.53,0-9.03L463.38,428.52
		c-2.51-2.51-6.54-2.51-9.05,0L377,505.87C374.5,508.37,374.5,512.4,377,514.91z"/>
	<path d="M348.47,484.21c1.68,2.79,5.51,3.26,7.82,0.95l77.35-77.34c2.31-2.31,1.83-6.15-0.95-7.83l-49.65-30.02
		c-3.22-1.94-7.34-1.44-10,1.22l-53.38,53.38c-2.64,2.66-3.14,6.79-1.22,10L348.47,484.21z"/>
	<path d="M591.21,565.41l-77.34,77.34c-2.32,2.31-1.83,6.15,0.94,7.83l49.66,30.02c3.21,1.93,7.34,1.42,10-1.23l53.4-53.36
		c2.63-2.67,3.13-6.79,1.2-10.02l-30.02-49.65C597.36,563.55,593.53,563.1,591.21,565.41z"/>
</g>
</svg>
