<?xml version="1.0" encoding="utf-8"?>
<!-- Generator: Adobe Illustrator 25.0.0, SVG Export Plug-In . SVG Version: 6.00 Build 0)  -->
<svg version="1.1" id="Layer_1" xmlns="http://www.w3.org/2000/svg" xmlns:xlink="http://www.w3.org/1999/xlink" x="0px" y="0px"
	 viewBox="0 0 1000 1000" style="enable-background:new 0 0 1000 1000;" xml:space="preserve">
<style type="text/css">
	.st0{fill:#8517FF;}
</style>

<g>
	<rect x="381.15" y="492.09" class="st0" width="237.7" height="71.31"/>
	<rect x="381.15" y="579.25" class="st0" width="237.7" height="110.93"/>
	<path class="st0" d="M323.55,935.79h352.9c18.83-53.83,30.28-142.65-45.34-229.77H368.89
		C293.27,793.14,304.72,881.96,323.55,935.79z"/>
	<path d="M412.84,151.39h39.62c4.37,0,7.92-3.56,7.92-7.92v-15.85c0-4.37-3.56-7.92-7.92-7.92h-39.62c-4.37,0-7.92,3.56-7.92,7.92
		v15.85C404.92,147.84,408.48,151.39,412.84,151.39z"/>
	<path d="M634.7,397.01v287.98c18.19-12.14,34.48-25.62,41.41-32.24c22.7-21.66,27.29-47.28,14.03-78.31
		c-42.87-100.32-12.94-223.66,18.38-247.14c32.41-24.32,48.21-49.73,44.48-71.56c-6.88-40.19-50.72-63.06-67.51-70.43l-50.8,87.08
		V397.01z"/>
	<path d="M654.99,690.17h35.82c2.99-17.72,15.87-31.99,32.69-37.29c0.19-0.17,0.43-0.4,0.6-0.55
		c16.75-13.49,41.78-42.51,21.61-85.57c-28.11-59.99-36.82-155.94-30.29-224.5c-24.36,24.33-50.12,133.75-10.71,225.95
		c15.94,37.3,10,69.6-17.66,96C681.01,669.98,669.15,679.95,654.99,690.17z"/>
	<rect x="381.15" y="404.94" class="st0" width="237.7" height="71.31"/>
	<rect x="381.15" y="278.17" class="st0" width="237.7" height="110.93"/>
	<path d="M547.54,151.39h39.62c4.37,0,7.92-3.56,7.92-7.92v-15.85c0-4.37-3.55-7.92-7.92-7.92h-39.62c-4.37,0-7.92,3.56-7.92,7.92
		v15.85C539.62,147.84,543.17,151.39,547.54,151.39z"/>
	<path d="M345.85,983.33h308.31c3.32-5.34,9.69-16.39,16.18-31.69H329.67C336.16,966.94,342.53,977.99,345.85,983.33z"/>
	<path d="M254.38,809.02V667.53c-13.63,3.54-23.77,15.84-23.77,30.57v126.77c0,6.91,1.09,11.39,3.77,15.54
		C254.12,837.32,254.38,810.24,254.38,809.02z"/>
	<path d="M348.33,706.02h-46.41c-4.37,0-7.92-3.54-7.92-7.92c0-14.73-10.14-27.03-23.77-30.57v141.49
		c0,14.32-6.29,39.73-28.61,46.07l49.88,128.25h36.22C307.01,945.05,255.03,823.85,348.33,706.02z"/>
	<path d="M729.77,809.02V667.53C716.14,671.07,706,683.37,706,698.1c0,4.38-3.54,7.92-7.92,7.92h-46.41
		c93.31,117.83,41.34,239.03,20.62,277.31h36.23l49.88-128.25C736.06,848.76,729.77,823.34,729.77,809.02z"/>
	<path d="M745.62,667.53v141.49c0.01,1.2,0.42,28.28,20,31.38c2.68-4.14,3.77-8.62,3.77-15.53V698.1
		C769.39,683.37,759.26,671.07,745.62,667.53z"/>
	<path d="M290.83,327.29c31.32,23.48,61.25,146.83,18.37,247.14c-13.26,31.04-8.67,56.64,14.03,78.31
		c7.02,6.7,23.62,20.44,42.07,32.68V397.01V272.38l-50.93-87.31c-16.34,7.1-61.08,30.01-68.03,70.65
		C242.61,277.56,258.4,302.97,290.83,327.29z"/>
	<path d="M275.19,652.32c0.11,0.09,0.23,0.21,0.34,0.31c17.29,5.05,30.6,19.51,33.64,37.55h35.17
		c-14.14-10.22-26.02-20.2-32.06-25.96c-27.66-26.4-33.6-58.7-17.66-96c39.4-92.2,13.64-201.62-10.72-225.95
		c6.53,68.57-2.18,164.53-30.28,224.5C233.45,609.82,258.48,638.84,275.19,652.32z"/>
	<path class="st0" d="M622.22,262.32l50.05-85.79c-10.49-11.43-34.49-44.97-53.22-126.36c-4.09-17.76-21.12-31.84-40.49-33.5
		L420.77,16.7c-18.7,1.62-35.73,15.71-39.81,33.47c-18.73,81.39-42.73,114.92-53.21,126.36l50.04,85.79H622.22z M523.77,127.62
		c0-13.11,10.66-23.77,23.77-23.77h39.62c13.1,0,23.77,10.66,23.77,23.77v15.85c0,13.11-10.66,23.77-23.77,23.77h-39.62
		c-13.11,0-23.77-10.66-23.77-23.77V127.62z M389.07,127.62c0-13.11,10.66-23.77,23.77-23.77h39.62c13.11,0,23.77,10.66,23.77,23.77
		v15.85c0,13.11-10.66,23.77-23.77,23.77h-39.62c-13.11,0-23.77-10.66-23.77-23.77V127.62z"/>
</g>
</svg>
