<?xml version="1.0" encoding="utf-8"?>
<!-- Generator: Adobe Illustrator 25.0.0, SVG Export Plug-In . SVG Version: 6.00 Build 0)  -->
<svg version="1.1" id="Layer_1" xmlns="http://www.w3.org/2000/svg" xmlns:xlink="http://www.w3.org/1999/xlink" x="0px" y="0px"
	 viewBox="0 0 1000 1000" style="enable-background:new 0 0 1000 1000;" xml:space="preserve">
<style type="text/css">
	.st0{fill:#8517FF;}
</style>

<path class="st0" d="M874.82,690.62h-95.88v-43.34c-0.03-29.32-23.79-53.08-53.11-53.11h-71.99v-61.55h-45.76
	c8.83-7.58,13.91-18.64,13.92-30.28V179.84h0.01l-0.01-3.56v-6.21h-0.13c-2.7-57.92-47.33-105.16-105-111.16
	c-1.9-17.58-14.46-34.14-26.81-34.14c-12.31,0-25.27,16.82-27.27,34.14c-57.68,5.99-102.32,53.24-105.02,111.17h-0.13v6.21
	l-0.01,3.56h0.01v322.49c0,11.64,5.09,22.7,13.92,30.28h-45.76v61.55h-71.99c-29.32,0.03-53.08,23.79-53.11,53.11v43.34h-95.88
	v39.27h199.43v57.24c0.02,13.66,11.08,24.73,24.74,24.74h15.54v137.87h28.49V811.87h46.93v101.78c0.02,20.55,16.67,37.2,37.22,37.22
	h65.25c20.55-0.02,37.2-16.68,37.22-37.22V811.87h47v137.87h28.49V811.87h15.54c13.66-0.01,24.73-11.08,24.74-24.74v-57.24h199.42
	L874.82,690.62L874.82,690.62z M467.7,68.3l4.57-0.29v-4.58c0-14.9,11.08-28.89,17.76-28.89c6.5,0,17.29,13.99,17.29,28.89v4.58
	l4.57,0.29c54.37,3.61,97.42,47.35,100.18,101.77H367.52C370.27,115.65,413.33,71.91,467.7,68.3z M367.39,502.33V179.84h244.83
	v322.49c-0.02,16.72-13.57,30.26-30.28,30.28h-17.04v-332.3H538.1v62.97h-38.02v116.43h38.02v152.9h-52.64v-165.5h-26.79v165.5
	h-25.97v-332.3H405.9v332.3h-8.23C380.95,532.59,367.41,519.05,367.39,502.33z M538.1,369.94h-28.25v-96.89h28.25V369.94z
	 M547.87,379.71V210.08h7.25v322.53h-7.25V379.71z M475.69,532.61h-7.25V376.88h7.25V532.61z M422.92,532.61h-7.25V210.08h7.25
	V532.61z M335.54,542.38h308.52v51.78H335.54V542.38z M210.44,647.27c0.03-23.93,19.42-43.31,43.34-43.34h472.05
	c23.93,0.03,43.31,19.42,43.34,43.34v43.34H210.44V647.27z M363.22,939.97h-8.95v-128.1h8.95V939.97z M549.84,913.65
	c-0.02,15.16-12.3,27.44-27.46,27.46h-65.25c-15.16-0.02-27.44-12.3-27.46-27.46V811.87h120.16L549.84,913.65L549.84,913.65z
	 M625.34,939.97h-8.96v-128.1h8.96V939.97z M665.63,787.13c-0.01,8.27-6.71,14.96-14.97,14.97h-15.54v0h-28.49v0H372.98v0h-28.49v0
	h-15.54c-8.27-0.01-14.96-6.71-14.97-14.97v-57.24h351.65V787.13L665.63,787.13z M865.05,720.12h-750.5v-19.74h750.5V720.12z"/>
<path d="M489.8,921.37c22.91,0,41.48-18.57,41.48-41.48c0-22.91-18.57-41.48-41.48-41.48c-22.91,0-41.48,18.57-41.48,41.48
	C448.35,902.79,466.91,921.35,489.8,921.37z M489.8,848.18c17.51,0,31.71,14.2,31.71,31.71s-14.2,31.71-31.71,31.71
	c-17.51,0-31.71-14.2-31.71-31.71C458.11,862.39,472.3,848.2,489.8,848.18L489.8,848.18z"/>
</svg>
