<?xml version="1.0" encoding="utf-8"?>
<!-- Generator: Adobe Illustrator 25.0.0, SVG Export Plug-In . SVG Version: 6.00 Build 0)  -->
<svg version="1.1" id="Layer_1" xmlns="http://www.w3.org/2000/svg" xmlns:xlink="http://www.w3.org/1999/xlink" x="0px" y="0px"
	 viewBox="0 0 1000 1000" style="enable-background:new 0 0 1000 1000;" xml:space="preserve">
<style type="text/css">
	.st0{fill:#8517FF;}
</style>

<path d="M158.17,441.94h-35.35c-24.75,0-44.19,19.44-44.19,44.19v8.84h79.54V441.94z"/>
<path d="M87.47,825.52h26.51v17.68H87.47v17.68h26.51v17.68H87.47c1.77,16.79,15.91,30.05,33.59,30.05h10.61V837.9h17.68v70.71
	h17.68V837.9h17.68v70.71h10.61c16.79-0.88,30.93-13.26,32.7-30.05h-25.63v-17.68h26.51V843.2h-27.4v-17.68h27.4v-14.14H87.47
	V825.52z"/>
<path d="M492.26,466.69c99.87,0,199.74,8.84,297.85,24.75c4.42,0.88,8.84,1.77,14.14,2.65l-74.24-99.87
	c-19.44-27.4-51.26-43.31-84.85-43.31H343.78c-33.59-0.88-65.4,15.91-85.73,43.31l-73.36,99.87c4.42-0.88,8.84-1.77,13.26-2.65
	C295.17,474.64,393.27,466.69,492.26,466.69z"/>
<path d="M865.23,441.94h-35.35v53.03h79.54v-8.84C909.42,461.39,889.98,441.94,865.23,441.94z"/>
<path d="M87.47,639.92v21.21h132.57l0,0c2.65,0,5.3-0.88,7.07-3.54c1.77-2.65,1.77-6.19,1.77-8.84c0,0,0-23.86,0-36.24l-8.84-5.3
	c0,24.75-19.44,44.19-44.19,44.19s-44.19-19.44-44.19-44.19c0-15.91,7.95-30.05,21.21-38l-30.93-17.68
	C99.84,576.28,87.47,607.22,87.47,639.92z"/>
<path d="M838.72,608.1c0-14.14-10.61-25.63-24.75-26.51l-25.63,15.03c-6.19,13.26-0.88,29.17,12.37,35.35
	c13.26,6.19,29.17,0.88,35.35-12.37C837.84,616.06,838.72,612.52,838.72,608.1z"/>
<path d="M768.01,608.1l-8.84,5.3c0,11.49,0,36.24,0,36.24c0,2.65,0,6.19,1.77,8.84c1.77,1.77,4.42,3.54,7.07,3.54l0,0h132.57V640.8
	c0-32.7-12.37-64.52-34.47-88.38l-30.93,17.68c21.21,12.37,28.28,39.77,15.91,60.1c-12.37,21.21-39.77,28.28-60.1,15.91
	C775.97,638.15,768.01,624.01,768.01,608.1z"/>
<path d="M388.85,693.83c81.31,15.91,128.15,15.91,210.35,0c34.47-7.07,76.01-25.63,80.43-76.89H308.42
	C312.84,662.9,352.62,685.88,388.85,693.83z"/>
<path d="M175.85,634.62c15.03,0,26.51-12.37,26.51-26.51c0-3.54-0.88-7.95-2.65-11.49l-26.51-15.03
	c-15.03,0.88-25.63,13.26-25.63,27.4C148.45,624.01,160.83,635.5,175.85,634.62L175.85,634.62z"/>
<path class="st0" d="M200.6,509.11c-24.75,4.42-46.84,14.14-66.29,30.05l112.25,63.64v45.96c0.88,7.07-0.88,14.14-5.3,19.44
	c-5.3,7.07-13.26,10.61-21.21,10.61l0,0H87.47V723h153.79l38,38l-12.37,12.37l-32.7-32.7H87.47v53.03h813.12v-53.03H753.87
	l-32.7,32.7L708.8,761l38-38h153.79v-44.19H768.01l0,0c-7.95,0-15.91-3.54-21.21-10.61c-4.42-5.3-6.19-12.37-5.3-19.44V602.8
	l33.59-19.44l0,0l0,0l77.78-44.19c-18.56-15.91-41.54-25.63-65.4-30.05C593.02,476.41,395.04,476.41,200.6,509.11z M697.31,608.1
	c0,53.91-34.47,91.03-94.57,102.52c-35.35,7.95-71.59,11.49-108.71,12.37c-36.24-0.88-72.47-4.42-108.71-12.37
	c-45.96-8.84-94.57-40.66-94.57-102.52v-8.84h406.56V608.1z"/>
<circle cx="250.98" cy="170.61" r="4.42"/>
<path class="st0" d="M259.81,228.06h344.69c31.82,45.96,94.57,58.33,141.41,26.51c15.91-10.61,28.28-26.51,36.24-44.19h-71.59
	c-19.44,0-35.35-15.91-35.35-35.35v-8.84c0-19.44,15.91-35.35,35.35-35.35h71.59c-22.98-51.26-82.2-76.01-134.34-53.91
	c-17.68,7.95-32.7,20.33-44.19,36.24H258.93c-31.82,0-57.45,25.63-57.45,57.45l0,0C202.37,202.43,228,228.06,259.81,228.06z
	 M250.98,148.51c12.37,0,22.1,9.72,22.1,22.1s-9.72,22.1-22.1,22.1s-22.1-9.72-22.1-22.1S238.6,148.51,250.98,148.51z"/>
<path d="M759.17,825.52h26.51v17.68h-26.51v17.68h26.51v17.68h-26.51c1.77,16.79,15.91,29.17,32.7,30.05h11.49V837.9h17.68v70.71
	h17.68V837.9h17.68v70.71H867c16.79-0.88,30.93-13.26,32.7-30.05h-25.63v-17.68h26.51V843.2h-27.4v-17.68h27.4v-14.14H759.17V825.52
	z"/>
</svg>
