<?xml version="1.0" encoding="utf-8"?>
<!-- Generator: Adobe Illustrator 25.0.0, SVG Export Plug-In . SVG Version: 6.00 Build 0)  -->
<svg version="1.1" id="Layer_1" xmlns="http://www.w3.org/2000/svg" xmlns:xlink="http://www.w3.org/1999/xlink" x="0px" y="0px"
	 viewBox="0 0 1000 1000" style="enable-background:new 0 0 1000 1000;" xml:space="preserve">
<style type="text/css">
	.st0{fill:#8517FF;}
</style>

<g>
	<path class="st0" d="M346.48,877.62L260.9,963.2c11.34,5.9,24.01,9.55,37.65,9.55h488.08c13.63,0,26.31-3.65,37.65-9.54
		l-85.58-85.58H346.48z"/>
	<path d="M355.47,451.01v395.9h374.24v-395.9H355.47z M542.59,801.99c-63.43,0-115.05-51.61-115.05-115.05
		c0-58.88,92.65-172.65,103.22-185.43c5.83-7.06,17.83-7.06,23.66,0c10.57,12.78,103.22,126.54,103.22,185.43
		C657.64,750.38,606.03,801.99,542.59,801.99z"/>
	<path class="st0" d="M324.77,442.02l-108.5-108.5v556.94c0,20.56,7.85,39.16,20.36,53.6l88.14-88.15V442.02z"/>
	<path class="st0" d="M760.41,855.91l88.14,88.15c12.52-14.44,20.36-33.03,20.36-53.6V333.51L760.41,442.02V855.91z"/>
	<path d="M786.63,129.57H405.37l-46.09,46.09c-0.01,0.01-0.01,0.02-0.02,0.02l-10.85,10.85l-51.6-51.6l9.71-9.71
		c0.01-0.01,1.15-1.15,1.16-1.16l24.11-24.1l-70.42-72.71L131.08,157.54l70.42,72.71l25.93-26.89c0,0-0.66,1.62-0.66,1.62l12-12
		l51.6,51.6l-10.85,10.85c-0.01,0.01-0.02,0.01-0.02,0.01l-48.94,48.94l115.92,115.92H738.7l130.22-130.22v-78.23
		C868.92,166.48,832.01,129.57,786.63,129.57z M717.8,331.6H566.99c-37.28,0-67.6-31.66-67.6-70.58s30.32-70.58,67.6-70.58H717.8
		c37.28,0,67.6,31.66,67.6,70.58S755.08,331.6,717.8,331.6z"/>
</g>
</svg>
