<?xml version="1.0" encoding="utf-8"?>
<!-- Generator: Adobe Illustrator 25.0.0, SVG Export Plug-In . SVG Version: 6.00 Build 0)  -->
<svg version="1.1" id="Layer_1" xmlns="http://www.w3.org/2000/svg" xmlns:xlink="http://www.w3.org/1999/xlink" x="0px" y="0px"
	 viewBox="0 0 1000 1000" style="enable-background:new 0 0 1000 1000;" xml:space="preserve">
<style type="text/css">
	.st0{fill:#8517FF;}
</style>

<path class="st0" d="M500,417.35c-45.54,0-82.64,37.08-82.64,82.62c0,45.62,37.11,82.6,82.64,82.6s82.62-37,82.62-82.6
	C582.62,454.43,545.54,417.35,500,417.35z M942.53,476.07c0-72.02-38.37-155.5-38.37-155.5C835.15,165.84,680.18,57.53,500,57.53
	S164.83,165.86,95.84,320.59c0,0-38.37,83.48-38.37,155.5c0,2.5,0.18,4.91,0.44,7.32c-0.29,5.51-0.44,11.02-0.44,16.55
	c0,244.05,198.54,442.51,442.53,442.51s442.53-198.45,442.53-442.51c0-5.53-0.18-11.04-0.44-16.57
	C942.35,480.98,942.53,478.57,942.53,476.07z M795.92,320.57c26.29,33.28,38.54,86.43,44.14,131.61H695
	c-42.53,0-83.48-15.33-115.59-43.46c-21.22-18.48-48.99-29.76-79.43-29.76c-30.45,0-58.21,11.28-79.43,29.76
	c-32.08,28.12-73.06,43.46-115.59,43.46H159.92c5.6-45.18,17.86-98.31,44.14-131.61C264.88,220.44,374.5,153.16,500,153.16
	S735.12,220.44,795.92,320.57z M488.83,79.85C283.58,121.91,121.95,283.57,79.89,488.77C85.77,265.43,265.44,85.74,488.83,79.85z
	 M459.8,844.43C299.47,825.8,172.17,697.47,155.16,536.72h138.36c45.78,0,89.79,17.86,122.54,49.85
	c25.36,24.65,40.89,135.06,43.74,185.77V844.43z M540.18,844.43v-72.11c2.85-50.71,18.36-161.1,43.74-185.77
	c32.75-31.99,76.76-49.85,122.54-49.85h138.36C827.8,697.47,700.53,825.8,540.18,844.43z M400.72,499.97
	c0-54.7,44.58-99.19,99.28-99.19s99.26,44.52,99.26,99.19c0,54.85-44.58,99.35-99.26,99.35
	C445.3,599.34,400.72,554.82,400.72,499.97z"/>
</svg>
