<?xml version="1.0" encoding="utf-8"?>
<!-- Generator: Adobe Illustrator 25.0.0, SVG Export Plug-In . SVG Version: 6.00 Build 0)  -->
<svg version="1.1" id="Layer_1" xmlns="http://www.w3.org/2000/svg" xmlns:xlink="http://www.w3.org/1999/xlink" x="0px" y="0px"
	 viewBox="0 0 1000 1000" style="enable-background:new 0 0 1000 1000;" xml:space="preserve">
<style type="text/css">
	.st0{fill:#8517FF;}
</style>

<path class="st0" d="M882.53-11.11h-117.7c-8.12,0-14.71,6.59-14.71,14.71v73.56H617.47c-1.19-15.4-10.15-29-24.16-36l-42.59-21.29
	c-0.13-0.06-0.28-0.04-0.41-0.1c-1.88-0.88-3.94-1.46-6.16-1.46h-88.28c-2.22,0-4.28,0.57-6.16,1.46c-0.13,0.06-0.28,0.03-0.41,0.1
	l-42.59,21.29c-13.99,7-22.95,20.6-24.16,36H249.88V3.6c0-8.12-6.59-14.71-14.71-14.71h-117.7c-8.12,0-14.71,6.59-14.71,14.71V239
	c0,8.12,6.59,14.71,14.71,14.71h117.7c8.12,0,14.71-6.59,14.71-14.71v-73.56h73.56v173.08l-42.59,85.17
	c-1.02,2.03-1.54,4.3-1.54,6.58v294.25h-29.43v-73.56c0-8.14-6.59-14.71-14.71-14.71h-117.7c-8.12,0-14.71,6.58-14.71,14.71v235.4
	c0,8.14,6.59,14.71,14.71,14.71h117.7c8.12,0,14.71-6.58,14.71-14.71V812.8h173.74c15.65,27.1,44.67,44.14,76.37,44.14
	s60.72-17.04,76.37-44.14h173.74v73.56c0,8.14,6.59,14.71,14.71,14.71h117.7c8.12,0,14.71-6.58,14.71-14.71v-235.4
	c0-8.14-6.59-14.71-14.71-14.71h-117.7c-8.12,0-14.71,6.58-14.71,14.71v73.56h-29.43V430.27c0-2.28-0.53-4.55-1.54-6.58
	l-42.59-85.17V165.44h73.56V239c0,8.12,6.59,14.71,14.71,14.71h117.7c8.12,0,14.71-6.59,14.71-14.71V3.6
	C897.24-4.52,890.65-11.11,882.53-11.11z M470.57,47.74h58.85v58.85h-58.85V47.74z M411.72,80.64c0-5.61,3.12-10.65,8.14-13.15
	l21.29-10.65v64.47c0,8.12,6.59,14.71,14.71,14.71h88.28c8.12,0,14.71-6.59,14.71-14.71V56.83l21.29,10.65
	c5.02,2.5,8.14,7.55,8.14,13.15v128.94c0,8.11-6.61,14.71-14.71,14.71H426.44c-8.11,0-14.71-6.61-14.71-14.71V80.64z M132.18,224.29
	v-29.43h14.71c8.12,0,14.71-6.59,14.71-14.71s-6.59-14.71-14.71-14.71h-14.71v-29.43h14.71c8.12,0,14.71-6.59,14.71-14.71
	s-6.59-14.71-14.71-14.71h-14.71V77.16h14.71c8.12,0,14.71-6.59,14.71-14.71s-6.59-14.71-14.71-14.71h-14.71V18.31h88.28v29.43
	h-14.71c-8.12,0-14.71,6.59-14.71,14.71s6.59,14.71,14.71,14.71h14.71v29.43h-14.71c-8.12,0-14.71,6.59-14.71,14.71
	s6.59,14.71,14.71,14.71h14.71v29.43h-14.71c-8.12,0-14.71,6.59-14.71,14.71s6.59,14.71,14.71,14.71h14.71v29.43H132.18z
	 M249.88,106.59H382.3v29.43H249.88V106.59z M308.74,433.74l42.59-85.17c1.02-2.03,1.54-4.3,1.54-6.58V165.44h29.43v44.14
	c0,24.33,19.8,44.14,44.14,44.14h29.43v438.54c-13.21,7.65-24.41,18.7-32.24,32.26H308.74V433.74z M132.18,871.65v-29.43h14.71
	c8.12,0,14.71-6.58,14.71-14.71c0-8.14-6.59-14.71-14.71-14.71h-14.71v-29.43h14.71c8.12,0,14.71-6.58,14.71-14.71
	c0-8.14-6.59-14.71-14.71-14.71h-14.71v-29.43h14.71c8.12,0,14.71-6.58,14.71-14.71c0-8.14-6.59-14.71-14.71-14.71h-14.71v-29.43
	h88.28v29.43h-14.71c-8.12,0-14.71,6.58-14.71,14.71c0,8.14,6.59,14.71,14.71,14.71h14.71v29.43h-14.71
	c-8.12,0-14.71,6.58-14.71,14.71c0,8.14,6.59,14.71,14.71,14.71h14.71v29.43h-14.71c-8.12,0-14.71,6.58-14.71,14.71
	c0,8.14,6.59,14.71,14.71,14.71h14.71v29.43H132.18z M867.82,665.67v29.43H853.1c-8.12,0-14.71,6.58-14.71,14.71
	c0,8.14,6.59,14.71,14.71,14.71h14.71v29.43H853.1c-8.12,0-14.71,6.58-14.71,14.71c0,8.14,6.59,14.71,14.71,14.71h14.71v29.43H853.1
	c-8.12,0-14.71,6.58-14.71,14.71c0,8.14,6.59,14.71,14.71,14.71h14.71v29.43h-88.28v-29.43h14.71c8.12,0,14.71-6.58,14.71-14.71
	c0-8.14-6.59-14.71-14.71-14.71h-14.71v-29.43h14.71c8.12,0,14.71-6.58,14.71-14.71c0-8.14-6.59-14.71-14.71-14.71h-14.71v-29.43
	h14.71c8.12,0,14.71-6.58,14.71-14.71c0-8.14-6.59-14.71-14.71-14.71h-14.71v-29.43H867.82z M750.12,783.37H567.35
	c-5.84,0-11.14,3.46-13.48,8.81c-9.4,21.47-30.54,35.33-53.88,35.33s-44.48-13.86-53.88-35.33c-2.34-5.36-7.64-8.81-13.48-8.81
	H249.88v-29.43h182.76c5.84,0,11.14-3.46,13.48-8.81c9.4-21.47,30.54-35.33,53.88-35.33c23.33,0,44.48,13.86,53.88,35.33
	c2.34,5.36,7.64,8.81,13.48,8.81h182.76V783.37z M648.67,348.57l42.59,85.17v290.78H576.37c-7.84-13.58-19.04-24.61-32.24-32.26
	v-56.01c0-8.14-6.59-14.71-14.71-14.71c-8.12,0-14.71,6.58-14.71,14.71v45.52c-4.83-0.82-9.71-1.38-14.71-1.38
	s-9.89,0.56-14.71,1.38V253.72h29.43V577.4c0,8.14,6.59,14.71,14.71,14.71c8.12,0,14.71-6.58,14.71-14.71V253.72h29.43
	c24.33,0,44.14-19.8,44.14-44.14v-44.14h29.43v176.55C647.13,344.27,647.66,346.54,648.67,348.57z M617.7,136.02v-29.43h132.41
	v29.43H617.7z M779.54,224.29v-29.43h14.71c8.12,0,14.71-6.59,14.71-14.71s-6.59-14.71-14.71-14.71h-14.71v-29.43h14.71
	c8.12,0,14.71-6.59,14.71-14.71s-6.59-14.71-14.71-14.71h-14.71V77.16h14.71c8.12,0,14.71-6.59,14.71-14.71s-6.59-14.71-14.71-14.71
	h-14.71V18.31h88.28v29.43H853.1c-8.12,0-14.71,6.59-14.71,14.71s6.59,14.71,14.71,14.71h14.71v29.43H853.1
	c-8.12,0-14.71,6.59-14.71,14.71s6.59,14.71,14.71,14.71h14.71v29.43H853.1c-8.12,0-14.71,6.59-14.71,14.71s6.59,14.71,14.71,14.71
	h14.71v29.43H779.54z"/>
</svg>
