<?xml version="1.0" encoding="utf-8"?>
<!-- Generator: Adobe Illustrator 25.0.0, SVG Export Plug-In . SVG Version: 6.00 Build 0)  -->
<svg version="1.1" id="Layer_1" xmlns="http://www.w3.org/2000/svg" xmlns:xlink="http://www.w3.org/1999/xlink" x="0px" y="0px"
	 viewBox="0 0 1000 1000" style="enable-background:new 0 0 1000 1000;" xml:space="preserve">
<style type="text/css">
	.st0{fill:#8517FF;}
</style>

<g>
	<path d="M864.4,579.92c0-165.6-172.11-300.18-383.57-300.18c-11.17,0-22.35,0-33.35,1.33v248.82h66.71v-33.35
		c0-27.63,22.4-50.03,50.03-50.03s50.03,22.4,50.03,50.03v33.35h116.74c27.63,0,50.03,22.4,50.03,50.03v83.38
		c0,27.63-22.4,50.03-50.03,50.03s-50.03-22.4-50.03-50.03v-33.35h-66.71v33.35c0,27.63-22.4,50.03-50.03,50.03
		s-50.03-22.4-50.03-50.03v-33.35h-66.71v33.35c0,27.63-22.4,50.03-50.03,50.03s-50.03-22.4-50.03-50.03v-33.35h-66.71v33.35
		c0,27.63-22.4,50.03-50.03,50.03s-50.03-22.4-50.03-50.03V496.53c0-27.63,22.4-50.03,50.03-50.03s50.03,22.4,50.03,50.03v33.35
		h66.71V298.58C198.99,341.94,97.26,454.68,97.26,579.92c0,165.6,172.11,300.18,383.57,300.18S864.4,745.52,864.4,579.92z
		 M580.89,413.15h-33.35V379.8h33.35V413.15z M747.66,496.53h-33.35v-33.35h33.35V496.53z M214,379.8h33.35v33.35H214V379.8z
		 M247.35,780.04H214v-33.35h33.35V780.04z M414.12,780.04h-33.35v-33.35h33.35V780.04z M580.89,780.04h-33.35v-33.35h33.35V780.04z
		 M747.66,780.04h-33.35v-33.35h33.35V780.04z"/>
	<polygon class="st0" points="449.31,146.32 452.98,112.96 341.91,112.96 345.58,146.32 364.09,146.32 430.8,146.32 	"/>
	<path class="st0" d="M30.55,579.92c0.08,14.91,1.25,29.79,3.5,44.53l32.35-8.17c-3.56-24.11-3.56-48.6,0-72.71l-32.52-8
		C31.68,550.24,30.56,565.07,30.55,579.92z"/>
	<path class="st0" d="M449.98,20.24l-21.85-7.34h-61.37l-21.85,7.34c-7.48,2.47-12.21,9.85-11.34,17.68l4.67,41.69h118.41
		l4.67-41.69C462.19,30.09,457.46,22.71,449.98,20.24z"/>
	<path class="st0" d="M402.45,941.14l8.17-32.52C242.35,885.77,108.1,781.88,72.91,649.13l-32.19,8
		C78.91,802.06,222.34,915.29,402.45,941.14z"/>
	<path class="st0" d="M73.41,510.88c30.35-114.4,133.92-208.96,274-246.82V229.7c-157.1,39.69-272.83,144.92-306.52,273
		L73.41,510.88z"/>
	<path class="st0" d="M447.47,214.19v33.35c11.01,0,22.18-1.17,33.35-1.17c200.12,0,367.89,113.57,407.92,264.33l32.19-8
		c-43.53-165.27-224.3-289.68-440.1-289.68C469.65,213.03,458.48,213.03,447.47,214.19z"/>
	<path class="st0" d="M517.52,912.12c-12.17,0-24.35,1.33-36.69,1.33c-12.34,0-24.52,0-36.69-1.33l-8.17,33.35
		c14.68,1.17,29.68,1.83,44.86,1.83c15.18,0,30.19,0,44.86-1.83L517.52,912.12z"/>
	<path class="st0" d="M247.35,546.57v-50.03c0-9.21-7.47-16.68-16.68-16.68c-9.21,0-16.68,7.47-16.68,16.68V663.3
		c0,9.21,7.47,16.68,16.68,16.68c9.21,0,16.68-7.47,16.68-16.68v-50.03c0-9.21,7.47-16.68,16.68-16.68h100.06
		c9.21,0,16.68,7.47,16.68,16.68v50.03c0,9.21,7.47,16.68,16.68,16.68s16.68-7.47,16.68-16.68v-50.03c0-9.21,7.47-16.68,16.68-16.68
		h100.06c9.21,0,16.68,7.47,16.68,16.68v50.03c0,9.21,7.47,16.68,16.68,16.68c9.21,0,16.68-7.47,16.68-16.68v-50.03
		c0-9.21,7.47-16.68,16.68-16.68h100.06c9.21,0,16.68,7.47,16.68,16.68v50.03c0,9.21,7.47,16.68,16.68,16.68
		c9.21,0,16.68-7.47,16.68-16.68v-83.38c0-9.21-7.47-16.68-16.68-16.68H597.57c-9.21,0-16.68-7.47-16.68-16.68v-50.03
		c0-9.21-7.47-16.68-16.68-16.68c-9.21,0-16.68,7.47-16.68,16.68v50.03c0,9.21-7.47,16.68-16.68,16.68H430.8
		c-9.21,0-16.68-7.47-16.68-16.68v-36.19l-3.84,1l-3.84,1h-4.67c-2.85,0.67-5.82,0.67-8.67,0h-4.67l-3.84-1l-3.84-1v36.19
		c0,9.21-7.47,16.68-16.68,16.68H264.03C254.82,563.24,247.35,555.78,247.35,546.57z"/>
	<path class="st0" d="M397.44,479.86c9.21,0,16.68-7.47,16.68-16.68V179.67h-33.35v283.51
		C380.77,472.39,388.23,479.86,397.44,479.86z"/>
	<path class="st0" d="M931.11,579.92c-0.08-14.91-1.25-29.79-3.5-44.53l-32.35,8.17c3.33,24.12,3.33,48.59,0,72.71l32.35,8.17
		C929.86,609.71,931.03,594.83,931.11,579.92z"/>
	<path class="st0" d="M920.93,657.13l-32.19-8c-35.19,133.42-169.44,236.65-337.71,259.49l8.17,32.52
		C739.32,915.29,882.74,802.06,920.93,657.13z"/>
</g>
</svg>
