<?xml version="1.0" encoding="utf-8"?>
<!-- Generator: Adobe Illustrator 25.0.0, SVG Export Plug-In . SVG Version: 6.00 Build 0)  -->
<svg version="1.1" id="Layer_1" xmlns="http://www.w3.org/2000/svg" xmlns:xlink="http://www.w3.org/1999/xlink" x="0px" y="0px"
	 viewBox="0 0 1000 1000" style="enable-background:new 0 0 1000 1000;" xml:space="preserve">
<style type="text/css">
	.st0{fill:#8517FF;}
</style>

<g>
	<path d="M257.88,429.47H157.11v245.46c13.5-5.24,5.64-3.63,225.1-3.63C227.44,516.32,229.66,541.92,257.88,429.47z"/>
	<path d="M802,187.63H421.72c-36.81-0.06-68.99,24.82-78.19,60.46L284.48,487.3c-4.31,14.3-0.35,29.81,10.28,40.31L439.25,671.3
		h423.2c115.27-115.27,100.76-93.91,100.76-322.44C963.22,259.82,891.04,187.63,802,187.63z M838.88,630.99H462.83L333.65,501.81
		l62.67-229.34c7.17-26.27,31.01-44.5,58.24-44.54H802c66.78,0,120.92,54.14,120.92,120.92
		C922.91,561.47,936.41,533.45,838.88,630.99z"/>
	<path d="M36.2,348.86v463.51c44.52,0,80.61-36.09,80.61-80.61c0-328.08,7.86-328.08-23.58-359.52
		C78.07,357.19,57.55,348.79,36.2,348.86z"/>
	<path class="st0" d="M802,268.24H454.56c-9.37-0.32-17.72,5.86-20.15,14.91l-55.62,206.77l100.76,100.76h342.59
		c72.95-72.95,60.46-42.52,60.46-241.83C882.61,304.34,846.52,268.24,802,268.24z"/>
</g>
</svg>
