<?xml version="1.0" encoding="utf-8"?>
<!-- Generator: Adobe Illustrator 25.0.0, SVG Export Plug-In . SVG Version: 6.00 Build 0)  -->
<svg version="1.1" id="Layer_1" xmlns="http://www.w3.org/2000/svg" xmlns:xlink="http://www.w3.org/1999/xlink" x="0px" y="0px"
	 viewBox="0 0 1000 1000" style="enable-background:new 0 0 1000 1000;" xml:space="preserve">
<style type="text/css">
	.st0{fill:#8517FF;}
</style>

<g>
	<path d="M933.24,435.81l-30.36,13.53c-4.7,2.14-10.25,0.06-12.38-4.64c-1.59-3.49-0.88-7.6,1.78-10.36l34.02-35.48
		c-8.71-37.42-22.49-73.48-40.97-107.17l-24.14,23.04c-3.71,3.54-9.59,3.39-13.12-0.32c-0.02-0.02-0.03-0.03-0.05-0.05
		c-2.77-2.66-3.51-6.79-1.83-10.24l19.75-44.62c-20.99-32.35-46.35-61.64-75.35-87.05l-14.63,29.99c-2.14,4.62-7.62,6.62-12.24,4.48
		c-0.07-0.03-0.13-0.06-0.2-0.09c-3.34-1.79-5.34-5.36-5.12-9.14l2.93-49.01c-30.6-23.29-64.34-42.13-100.22-55.96l-3.66,33.28
		c-0.53,5.14-5.1,8.89-10.24,8.41c-3.78-0.45-6.86-3.23-7.68-6.95l-13.53-46.82c-36.89-11.32-75.17-17.47-113.75-18.29l8.05,32.19
		c1.23,5.01-1.83,10.08-6.84,11.31c-0.04,0.01-0.07,0.02-0.11,0.03c-3.66,1.04-7.57-0.27-9.88-3.29l-28.53-39.5h-0.37
		c-38.39,1.74-76.34,9-112.66,21.58l18.29,27.43c2.89,4.27,1.92,10.06-2.19,13.17c-3.25,2.01-7.36,2.01-10.61,0l-40.97-27.43
		c-35.28,15.16-68.37,34.96-98.39,58.89l27.07,19.75c4.14,3.13,4.96,9.02,1.84,13.16c0,0,0,0.01-0.01,0.01
		c-2.13,3.04-5.89,4.49-9.51,3.66l-47.91-11.7c-28.15,26.21-52.64,56.11-72.79,88.88l32.55,9.51c4.94,1.59,7.66,6.88,6.08,11.82
		c-1.13,3.52-4.23,6.06-7.91,6.47l-49.01,5.12v0.36c-17.48,34.18-30.15,70.62-37.67,108.27l33.65-2.19
		c5.14-0.28,9.55,3.64,9.88,8.78c0.3,3.71-1.74,7.22-5.12,8.78l-44.26,21.95c-1.91,16.76-2.88,33.61-2.93,50.48
		c-0.08,21.55,1.51,43.07,4.76,64.37l30.72-13.53c4.71-2.13,10.26-0.04,12.4,4.67c0.01,0.03,0.03,0.06,0.04,0.08
		c1.42,3.48,0.71,7.47-1.83,10.24L73.7,601.13c8.94,37.52,22.84,73.69,41.33,107.53l24.14-23.41c3.46-3.54,9.14-3.61,12.69-0.14
		c0.17,0.16,0.33,0.33,0.48,0.51c2.6,2.74,3.32,6.77,1.83,10.24l-20.12,44.99c21.09,32.16,46.44,61.32,75.35,86.69l14.63-29.99
		c2.39-4.67,8.05-6.61,12.8-4.39c3.23,1.91,5.18,5.4,5.12,9.14l-3.29,49.01c30.68,23.16,64.41,41.99,100.22,55.96l3.66-33.28
		c0.64-5.08,5.14-8.77,10.24-8.41c3.86,0.42,7.06,3.19,8.05,6.95l13.9,47.18c36.79,11.17,74.95,17.2,113.39,17.92l-8.05-32.19
		c-1.37-4.85,1.46-9.9,6.31-11.27c0.09-0.03,0.18-0.05,0.27-0.07c3.66-1.1,7.61,0.22,9.87,3.29l28.9,39.87
		c38.47-2.09,76.48-9.35,113.02-21.58l-18.65-27.8c-2.95-4.24-1.9-10.07,2.34-13.02c3.13-2.18,7.27-2.23,10.46-0.15l41.33,27.43
		c35.24-15.15,68.23-35.09,98.02-59.25l-26.7-19.39c-4.06-3.14-5.02-8.88-2.19-13.17c2.28-3.06,6.15-4.5,9.87-3.66l47.55,11.7
		c28.17-26.2,52.66-56.1,72.79-88.88l-32.19-9.51c-4.78-1.28-7.61-6.2-6.33-10.97c0.03-0.12,0.07-0.24,0.11-0.36
		c0.7-3.78,3.85-6.63,7.68-6.95l49.01-5.12c17.37-34.36,30.04-70.9,37.67-108.63l-33.65,2.19c-5.14,0.28-9.55-3.64-9.88-8.78
		c0-3.73,2.13-7.14,5.49-8.78l43.89-21.58v-0.37c1.9-16.88,2.87-33.85,2.92-50.84C938.1,478.39,936.51,456.99,933.24,435.81z
		 M570.04,783.28c-22.86,5.61-46.32,8.43-69.86,8.41c-23.66,0.02-47.24-2.81-70.23-8.41c-28.39-7.2-55.61-18.41-80.83-33.29
		c-40.32-24.77-74.07-58.89-98.39-99.49c-15.47-24.88-26.95-52.03-34.02-80.47c-5.61-22.99-8.43-46.56-8.41-70.23
		c-0.02-23.54,2.81-47,8.41-69.86c7.22-28.26,18.53-55.31,33.56-80.3l0.01,0.01c24.5-40.6,58.53-74.62,99.12-99.12l-0.06-0.08
		c0.05-0.03,0.08-0.06,0.13-0.09c24.98-15.12,52.06-26.45,80.37-33.62l0.02,0.14c22.99-5.61,46.56-8.43,70.23-8.41
		c23.54-0.02,47,2.81,69.86,8.41l0.03-0.18l0.04,0.01c28.36,7.1,55.49,18.45,80.47,33.65l0.03,0.02l-0.1,0.15
		c40.61,24.46,74.73,58.33,99.49,98.76l0.12-0.08c14.85,25.2,26.04,52.39,33.24,80.74l0.03,0.15l-0.1,0.02
		c5.61,22.86,8.43,46.32,8.41,69.86c0.02,23.66-2.81,47.24-8.41,70.23l0.02,0c-7.1,28.3-18.43,55.37-33.59,80.29
		C710.08,717.14,645.34,765,570.04,783.28z"/>
	<path class="st0" d="M714.44,626.54l-0.03-0.02c0.03-0.05,0.07-0.1,0.1-0.15c12.21-19.76,21.1-41.38,26.34-64.01
		c5.78-20.34,8.62-41.4,8.41-62.54c0.21-21.02-2.63-41.97-8.41-62.18c-5.23-22.63-14.13-44.25-26.34-64.01
		c-21.29-36.59-51.65-67.07-88.15-88.51c-19.85-11.94-41.45-20.7-64.01-25.97c-20.21-5.79-41.16-8.62-62.18-8.41
		c-21.13-0.02-42.17,2.8-62.55,8.41c-22.58,5.4-44.17,14.28-64.01,26.33c-36.56,21.2-66.95,51.59-88.15,88.15
		c-12.21,19.76-21.1,41.38-26.34,64.01c-0.02,0.06-0.02,0.12-0.04,0.18l-0.04-0.01c-5.79,20.21-8.62,41.16-8.41,62.18
		c-0.21,21.14,2.63,42.21,8.41,62.54l0.12-0.02c5.39,22.52,14.26,44.07,26.29,63.86l0.06,0.08l-0.13,0.09
		c21.2,36.56,51.59,66.95,88.15,88.15l0.11-0.16c19.82,12.04,41.39,20.91,63.93,26.3l-0.03,0.19c20.37,5.61,41.41,8.44,62.54,8.41
		c21.02,0.21,41.97-2.63,62.18-8.41l-0.03-0.15l0.1-0.02c22.64-5.19,44.32-13.93,64.23-25.9l0.07,0.1
		C662.98,693.5,693.19,663.03,714.44,626.54z M315.84,605.52c-9.14-15.51-16.14-32.2-20.8-49.59l123.13-22.65l0.13-0.02
		c0.14,0.3,0.24,0.62,0.31,0.94l0.05,0.09l-0.12,0.08L315.89,605.6L315.84,605.52z M315.39,394.65L315.39,394.65l103.15,70.96v0.34
		c-0.18,0.14-0.29,0.35-0.29,0.58c-0.02,0.06-0.03,0.12-0.05,0.18l-0.02,0l-123.22-22.3c0.02-0.06,0.02-0.12,0.04-0.18
		C299.35,426.79,306.22,410.09,315.39,394.65L315.39,394.65z M684.45,394.65l0.12-0.08c9.19,15.47,16.07,32.2,20.44,49.65l0.03,0.15
		l-0.11,0.02l-123.14,22.29c-0.02-0.05-0.03-0.1-0.05-0.15c0-0.37,0-0.37-0.37-0.73v-0.25L684.45,394.65z M500.18,551.76
		c-4.33-0.04-8.63-0.66-12.8-1.83c-4.79-1.06-9.36-2.92-13.53-5.49c-7.63-4.34-13.95-10.66-18.29-18.29
		c-2.57-4.17-4.43-8.75-5.49-13.53c-1.17-4.17-1.79-8.47-1.83-12.8c-0.14-4.22,0.48-8.43,1.83-12.44c0.96-4.93,2.93-9.6,5.78-13.73
		c4.42-7.34,10.57-13.5,17.92-17.92c4.17-2.57,8.75-4.43,13.53-5.49c4.17-1.17,8.47-1.78,12.8-1.83c4.22-0.14,8.43,0.48,12.44,1.83
		c4.9,1.06,9.6,2.91,13.9,5.49c7.32,4.33,13.38,10.51,17.56,17.92c2.9,4.17,4.9,8.91,5.85,13.9c1.35,4,1.97,8.22,1.83,12.44
		c-0.04,4.33-0.66,8.63-1.83,12.8c-1.06,4.73-2.89,9.24-5.42,13.37c-4.3,7.53-10.47,13.82-17.91,18.28c-4.3,2.57-9,4.43-13.9,5.49
		C508.62,551.27,504.4,551.89,500.18,551.76L500.18,551.76z M465.73,581.55l0.11-0.16c0.34,0.02,0.68,0.31,1.02,0.34l-0.03,0.19
		L444.18,705c-17.42-4.66-34.14-11.66-49.67-20.82L465.73,581.55z M581.38,534.2c0.07-0.32,0.17-0.63,0.31-0.92l123.25,22.67l0.01,0
		c-4.69,17.32-11.55,33.97-20.42,49.57l-0.1,0.15l-103.12-71.3l-0.01-0.01C581.32,534.3,581.36,534.26,581.38,534.2L581.38,534.2z
		 M605.52,315.47l0.03,0.02l-0.1,0.15L534.6,418.64l-0.03-0.02h-0.37c-0.19-0.21-0.45-0.34-0.73-0.37l-0.04-0.01l22.28-123.08
		l0.03-0.18l0.04,0.01C573.27,299.36,590.03,306.26,605.52,315.47L605.52,315.47z M444.12,295.02l0.02,0.14l22.65,123.12
		c-0.33,0.06-0.67,0.33-1,0.33c-0.05,0.02-0.09,0.06-0.14,0.08L394.4,315.64l-0.06-0.08l0.13-0.09
		C410.02,306.43,426.72,299.55,444.12,295.02L444.12,295.02z M555.78,705.01l-0.1,0.02l-22.28-123.11l-0.02-0.14l0.1-0.03
		c0.21-0.07,0.41-0.17,0.59-0.3l0.06,0.1h0.37l70.89,102.68C589.94,693.52,573.23,700.52,555.78,705.01L555.78,705.01z"/>
	<polygon points="500.11,500.36 500.11,499.99 499.74,499.99 	"/>
</g>
</svg>
