<?xml version="1.0" encoding="utf-8"?>
<!-- Generator: Adobe Illustrator 25.0.0, SVG Export Plug-In . SVG Version: 6.00 Build 0)  -->
<svg version="1.1" id="Layer_1" xmlns="http://www.w3.org/2000/svg" xmlns:xlink="http://www.w3.org/1999/xlink" x="0px" y="0px"
	 viewBox="0 0 1000 1000" style="enable-background:new 0 0 1000 1000;" xml:space="preserve">
<style type="text/css">
	.st0{fill:#8517FF;}
	.st1{fill-rule:evenodd;clip-rule:evenodd;}
	.st2{fill-rule:evenodd;clip-rule:evenodd;fill:#8517FF;}
</style>

<path class="st1" d="M34.96,600.76v186.01c0,42.74,34.77,77.51,77.51,77.51h15.5V523.25h-15.5
	C69.73,523.25,34.96,558.02,34.96,600.76"/>
<path class="st2" d="M732.52,724.77h15.5v-62h-15.5V724.77z M593.01,709.27h108.51v-31H593.01V709.27z M298.48,709.27h108.51v-31
	H298.48V709.27z M251.98,724.77h15.5v-62h-15.5V724.77z M484.5,600.76h31V461.25h-31V600.76z M484.5,306.23h31V166.72h-31V306.23z
	 M748.02,600.76v31h-31c-8.56,0-15.5,6.94-15.5,15.5H590.81c-5.64-21.69-22.62-38.66-44.3-44.3V461.25H562
	c8.56,0,15.5-6.94,15.5-15.5V321.74c0-8.56-6.94-15.5-15.5-15.5h-15.5V151.22c0-8.56-6.94-15.5-15.5-15.5h-62
	c-8.56,0-15.5,6.94-15.5,15.5v155.01H438c-8.56,0-15.5,6.94-15.5,15.5v124.01c0,8.56,6.94,15.5,15.5,15.5h15.5v141.71
	c-21.69,5.64-38.66,22.62-44.3,44.3H298.48c0-8.56-6.94-15.5-15.5-15.5h-31v-31c0-42.74-34.77-77.51-77.51-77.51h-15.5v341.03h15.5
	c42.74,0,77.51-34.77,77.51-77.51v-31h31c8.56,0,15.5-6.94,15.5-15.5h110.71c6.93,26.66,31,46.5,59.8,46.5h62
	c28.8,0,52.87-19.84,59.8-46.5h110.71c0,8.56,6.94,15.5,15.5,15.5h31v31c0,42.74,34.77,77.51,77.51,77.51h15.5V523.25h-15.5
	C782.79,523.25,748.02,558.02,748.02,600.76L748.02,600.76z"/>
<path class="st1" d="M887.53,523.25h-15.5v341.03h15.5c42.74,0,77.51-34.77,77.51-77.51V600.76
	C965.04,558.02,930.27,523.25,887.53,523.25"/>
</svg>
