<?xml version="1.0" encoding="utf-8"?>
<!-- Generator: Adobe Illustrator 25.0.0, SVG Export Plug-In . SVG Version: 6.00 Build 0)  -->
<svg version="1.1" id="Layer_1" xmlns="http://www.w3.org/2000/svg" xmlns:xlink="http://www.w3.org/1999/xlink" x="0px" y="0px"
	 viewBox="0 0 1350 1350" style="enable-background:new 0 0 1350 1350;" xml:space="preserve">
<path d="M1300.85,919.9c-19.66-20.64-51.07-24.74-75.37-9.83c-95.81,58.72-284.42,171.31-284.42,171.31
	c-23.55,14.3-50.44,22.17-77.99,22.81l-214.3,1.57l0,0c-7.88-0.35-13.98-7.03-13.63-14.91c0.31-6.94,5.56-12.64,12.45-13.53
	l219.28-3.93c28.36-0.93,50.6-24.68,49.67-53.04c-0.87-26.45-21.68-47.91-48.09-49.59l-129.76-9.57
	c-54.31-4.25-107.86-15.35-159.38-33.03c-164.89-60.95-262.14-29.62-314.57-13.11c-11.81-18.49-32.61-29.24-54.53-28.18
	l-113.38,5.11c-36.84,0.63-66.19,31.01-65.56,67.85c0.01,0.37,0.02,0.73,0.03,1.1l13.11,251.66c2.52,37.05,34.5,65.1,71.56,62.78
	l113.38-5.24c21.13-0.96,40.21-12.89,50.33-31.46c7.99,6.98,18.23,10.84,28.84,10.88h1.97l481.29,31.98c6.12,0,12.28,0,18.48,0
	c63.36-0.12,125.16-19.65,177.08-55.97l305.92-214.96c26.93-18.71,33.59-55.71,14.87-82.64c-1.79-2.58-3.79-5.01-5.96-7.27
	L1300.85,919.9z M158.17,1216.64c-20.53-1.16-36.22-18.75-35.06-39.27c1.16-20.53,18.75-36.22,39.27-35.06
	c20.04,1.14,35.57,17.96,35.11,38.02C196.64,1201.21,179.05,1217.45,158.17,1216.64z M940.53,976.52l177.73-91.75
	c21.27-11.7,47.64-8.54,65.54,7.86c-78.64,48.37-170.39,103.81-230.82,141.03C955.58,1013.75,951.18,993.55,940.53,976.52z
	 M848.78,933.14l167.64-65.54c17.82-8.04,38.53-6.2,54.66,4.85l-156.11,77.86c-13.06-8.98-28.34-14.19-44.17-15.07L848.78,933.14z
	 M582.05,109.75c-7.23-13.78-1.92-30.82,11.87-38.04c6.35-3.33,13.73-4.11,20.64-2.19c52.09,14.91,105.37,25.26,159.25,30.93
	c15.47,1.7,26.63,15.62,24.93,31.09c-0.65,5.96-3.19,11.55-7.24,15.96l-22.41,37.88h-154.4L582.05,109.75z M570.13,861.96h245.5
	c104.67,0.23,189.71-84.44,189.94-189.12c0.08-35.01-9.55-69.36-27.81-99.24L804.88,288.79c15.5-1.45,26.88-15.19,25.42-30.69
	c-1.33-14.23-13.11-25.2-27.39-25.54H574.71c-15.6,0-28.25,12.65-28.25,28.25c0,15.6,12.65,28.25,28.25,28.25l0,0h5.9L407.86,574.13
	c-54.29,89.49-25.75,206.05,63.74,260.35C501.3,852.5,535.39,862,570.13,861.96z M670.79,448.96v-19.92
	c-0.92-11.69,7.81-21.91,19.5-22.83c11.69-0.92,21.91,7.81,22.83,19.5c0.09,1.11,0.09,2.22,0,3.33v16.91
	c13.27,0.46,26.45,2.35,39.32,5.64c13.32,3.71,21.11,17.51,17.41,30.83c-2.98,10.73-12.7,18.2-23.83,18.32
	c-2.35-0.01-4.69-0.36-6.95-1.05c-12.31-3.57-25.07-5.33-37.88-5.24c-28.05,0-37.22,12.06-37.22,24.25
	c0,14.29,15.07,23.33,52.43,37.22c51.51,18.22,72.22,41.94,72.22,80.87s-27.26,71.3-76.94,79.95v22.94
	c0.92,11.69-7.81,21.91-19.5,22.83c-11.69,0.92-21.91-7.81-22.83-19.5c-0.09-1.11-0.09-2.22,0-3.33v-19.92
	c-17.54-0.78-34.91-3.86-51.64-9.17c-12.61-4.03-19.91-17.18-16.65-30.02v-2.1c2.78-10.88,12.63-18.46,23.85-18.35
	c2.81,0.03,5.6,0.52,8.26,1.44c15.06,5.21,30.86,7.91,46.79,8c24.64,0,41.55-9.57,41.55-26.21c0-16.65-13.89-26.21-45.87-37.62
	c-46.27-15.6-77.86-37.22-77.86-78.64C597.65,487.89,624.52,458,670.79,448.96z"/>
</svg>
