<?xml version="1.0" encoding="utf-8"?>
<!-- Generator: Adobe Illustrator 25.0.0, SVG Export Plug-In . SVG Version: 6.00 Build 0)  -->
<svg version="1.1" id="Layer_1" xmlns="http://www.w3.org/2000/svg" xmlns:xlink="http://www.w3.org/1999/xlink" x="0px" y="0px"
	 viewBox="0 0 1350 1350" style="enable-background:new 0 0 1350 1350;" xml:space="preserve">
<g>
	<g>
		<g>
			<path d="M1100.52,663.42c-9.8,31.39-19.61,62.78-29.41,94.17c-5.94,19-11.87,38-17.8,57c-1.38,4.42-2.76,8.85-4.14,13.27
				c-0.74,2.39-1.46,4.78-2.22,7.16c-0.98,3.09-2.03,6.15-3.12,9.2c-0.89,2.49-5.83,14.55-1.65,4.73
				c-2.44,5.75-5.27,11.32-8.41,16.71c-1.54,2.65-3.24,5.21-4.99,7.73c-1.18,1.7-4.8,6.23,1.03-1.19c-1.25,1.6-2.59,3.12-3.94,4.64
				c-2.04,2.28-4.24,4.4-6.5,6.46c-1.14,1.04-2.34,2.02-3.53,3c7.16-5.86,2.78-2.17,1.05-0.95c-2.63,1.85-5.4,3.46-8.22,5
				c-1.45,0.79-2.95,1.5-4.44,2.22c-4.66,2.22,7.04-2.65-0.77,0.22c-7.06,2.59-14.46,4.18-21.88,5.3c8.73-1.32,1.47-0.3-0.29-0.14
				c-2.17,0.2-4.35,0.3-6.53,0.4c-3.07,0.15-6.14,0.13-9.21,0.13c-1.15,0-2.3,0-3.45,0c-20.49,0-40.99,0-61.48,0
				c-85.09,0-170.19,0-255.28,0c-77.97,0-155.95,0-233.92,0c-9.11,0-18.22,0-27.33,0c-2.15,0-4.29,0-6.44,0c-0.4,0-0.79,0-1.19,0
				c-0.71,0-1.42-0.01-2.13-0.02c-2-0.02-4-0.17-5.99-0.32c-3.33-0.35-2.63-0.23,2.08,0.37c-1.29-0.2-2.57-0.42-3.85-0.67
				c-3.8-0.7-7.53-1.77-11.21-2.95c-1.82-0.58-3.6-1.28-5.38-1.98c8.01,3.14,1.9,0.7,0.24-0.12c-3.39-1.67-6.61-3.64-9.77-5.71
				c-1.48-0.97-6.76-5.02,0,0.25c-1.97-1.54-3.83-3.22-5.67-4.91c-2.76-2.54-5.28-5.33-7.71-8.18c-4.33-5.1,4.02,5.54,0.12,0.1
				c-1.1-1.53-2.1-3.12-3.11-4.72c-2.02-3.2-3.73-6.58-5.33-10.01c3.63,7.76,0.81,1.86,0.15,0.09c-0.89-2.4-1.6-4.87-2.28-7.34
				c-0.66-2.4-2.59-15.07-1.43-5.46c-0.41-3.36-0.56-6.78-0.56-10.16c0-0.37,0-0.75,0-1.12c0-2.43,0-4.86,0-7.3
				c0-72.13,0-144.25,0-216.37c0-75.01,0-150.01,0-225.02c0-4.2,0-8.39,0-12.59c-9.99,9.99-19.97,19.97-29.96,29.96
				c56.83,0,113.67,0,170.5,0c84.31,0,168.61,0,252.92,0c12.5,0,25.01,0,37.51,0c-9.63-12.64-19.26-25.28-28.89-37.92
				c-7.6,46.95-5.78,94.41,7.6,140.21c11.72,40.1,32.13,76.39,58.33,108.7c45.21,55.75,112.86,94.24,183.61,105.57
				c61.08,9.79,121.8,1.38,178.29-23.61c14.94-6.61,18.29-28.1,10.75-40.98c-8.93-15.25-26.05-17.35-40.98-10.75
				c-7.54,3.34,5.76-2.3-1.88,0.83c-2.28,0.94-4.58,1.81-6.88,2.68c-4.62,1.75-9.31,3.32-14.02,4.82
				c-10.31,3.29-20.86,5.81-31.49,7.85c-2.48,0.48-4.97,0.88-7.46,1.29c-1.11,0.18-9.54,1.27-2.09,0.34
				c-5.08,0.64-10.18,1.07-15.29,1.42c-10.37,0.72-20.79,0.73-31.17,0.28c-4.3-0.18-8.6-0.52-12.89-0.9
				c-2.13-0.19-4.26-0.43-6.38-0.67c-7.4-0.84,6.88,1.01-0.48-0.05c-9.03-1.31-17.98-3.16-26.84-5.36c-8.07-2-16.02-4.47-23.88-7.2
				c-3.9-1.36-7.75-2.84-11.58-4.38c-6.68-2.67,6.17,2.69-0.43-0.18c-2.51-1.09-4.99-2.25-7.46-3.41
				c-15.37-7.24-29.97-16.08-43.74-26.02c-1.64-1.19-3.26-2.41-4.88-3.64c6.55,4.95,0.92,0.67-0.32-0.33
				c-3.16-2.54-6.24-5.18-9.28-7.86c-6.6-5.8-12.85-11.97-18.86-18.37c-5.56-5.91-10.78-12.12-15.8-18.49
				c5.08,6.45,0.73,0.87-0.22-0.41c-1.21-1.63-2.38-3.29-3.55-4.95c-2.74-3.87-5.33-7.85-7.87-11.86
				c-4.57-7.23-8.7-14.72-12.59-22.33c-2.4-4.7-4.59-9.49-6.71-14.32c2.65,6.03-0.59-1.57-0.89-2.35c-1.22-3.1-2.35-6.23-3.45-9.37
				c-3.35-9.5-6.05-19.22-8.33-29.02c-1.16-4.96-2.1-9.97-2.98-14.98c-0.44-2.52-0.81-5.06-1.18-7.6c1.1,7.5-0.31-3.51-0.44-4.84
				c-1.13-11.4-1.38-22.88-1.1-34.32c0.13-5.42,0.5-10.84,0.95-16.25c0.22-2.68,0.52-5.35,0.83-8.02c0.44-3.55,0.44-3.54-0.02,0.01
				c0.26-1.76,0.53-3.51,0.83-5.26c1.34-8.29,1.38-15.57-3.02-23.08c-5.34-9.11-15.3-14.84-25.87-14.84c-56.83,0-113.67,0-170.5,0
				c-84.31,0-168.61,0-252.92,0c-12.5,0-25.01,0-37.51,0c-16.33,0-29.96,13.63-29.96,29.96c0,56.64,0,113.27,0,169.91
				c0,84.5,0,169,0,253.5c0,23.37-1.66,47.71,4.14,70.55c9.96,39.25,40.1,68.62,76.98,83.08c14.24,5.58,29.86,7.02,45.06,7.02
				c60.41,0,120.82,0,181.23,0c91.27,0,182.53,0,273.79,0c32.48,0,64.96,0,97.44,0c21.57,0,42.7,0.38,64.16-2.53
				c34.46-4.67,63.08-24.4,83-52.23c13.02-18.19,20.27-40.15,26.88-61.31c11.34-36.3,22.68-72.6,34.02-108.91
				c5.63-18.03,11.26-36.05,16.89-54.08c4.87-15.59-5.59-32.63-20.92-36.85C1121.22,638.05,1105.38,647.85,1100.52,663.42z"/>
		</g>
	</g>
	<g>
		<g>
			<path d="M540.07,1136.61c-0.03,1.99-0.11,3.95-0.25,5.93c-0.49,6.95,1.24-7.05-0.03-0.27c-0.7,3.75-1.86,7.39-3.18,10.96
				c2.93-7.98,0.84-2.07-0.05-0.3c-0.83,1.67-1.8,3.27-2.76,4.87c-0.96,1.59-2.05,3.1-3.14,4.61c5.22-7.25,0.09-0.49-1.32,0.99
				c-1.28,1.35-2.65,2.59-4.03,3.82c-4.92,4.42,5.6-3.98,0.23-0.11c-3.03,2.18-6.31,3.99-9.64,5.65c-6,2.99,6.52-2.46,0.21-0.14
				c-1.78,0.66-3.62,1.16-5.45,1.66c-1.85,0.51-3.74,0.86-5.63,1.21c9.16-1.71,0.45-0.2-1.77-0.1c-2.65,0.11-15.31-1.4-5.76,0.1
				c-3.78-0.59-7.46-1.66-11.08-2.88c-6.38-2.14,6.28,2.96,0.21,0.14c-1.69-0.79-3.32-1.71-4.95-2.63c-1.62-0.92-3.16-1.97-4.7-3.01
				c-2.56-1.87-2.02-1.43,1.64,1.31c-0.95-0.79-1.88-1.6-2.79-2.44c-1.81-1.62-9.6-10.95-3.97-3.58c-2.26-2.96-4.15-6.19-5.9-9.48
				c-0.89-1.66-3.25-7.72-0.05,0.3c-0.7-1.76-1.26-3.57-1.81-5.38c-0.56-1.83-0.96-3.71-1.37-5.57c-0.57-3.26-0.51-2.52,0.17,2.22
				c-0.15-1.3-0.26-2.6-0.33-3.91c-0.28-3.95-0.06-7.92,0.33-11.85c-0.95,9.53,0.97-2.62,1.75-5.17c0.54-1.77,3.12-7.89-0.32,0.11
				c0.74-1.72,1.62-3.38,2.5-5.03c0.88-1.64,1.88-3.22,2.89-4.78c0.68-1.03,1.39-2.05,2.13-3.04c-2.83,3.59-3.22,4.17-1.19,1.73
				c2.4-2.82,5.14-5.35,7.96-7.75c-6.4,5.45-1.71,1.36-0.1,0.26c1.54-1.05,3.16-1.97,4.78-2.89c1.63-0.92,3.33-1.71,5.03-2.5
				c-7.78,3.61-1.95,0.94-0.11,0.33c1.81-0.61,3.66-1.06,5.51-1.52c1.25-0.29,2.51-0.54,3.77-0.76c-4.77,0.56-5.49,0.68-2.17,0.33
				c3.94-0.39,7.92-0.28,11.87,0c6.95,0.49-7.06-1.24-0.27,0.03c1.88,0.35,3.73,0.86,5.57,1.37c1.83,0.5,3.61,1.16,5.39,1.81
				c-7.98-2.93-2.07-0.84-0.3,0.05c1.67,0.83,3.27,1.8,4.87,2.76c1.71,1.04,8.47,6.39,1.47,0.74c2.89,2.33,5.48,4.99,7.96,7.75
				c4.42,4.92-3.98-5.6-0.11-0.22c1.09,1.51,2.05,3.11,3.01,4.7c0.97,1.6,1.8,3.28,2.63,4.95c2.99,6-2.46-6.52-0.14-0.21
				c0.65,1.78,1.16,3.62,1.66,5.45c0.55,1.99,1.9,10.9,0.69,1.52C539.95,1131.34,540.03,1133.98,540.07,1136.61
				c0.23,16.32,13.45,29.96,29.96,29.96c16.15,0,30.19-13.63,29.96-29.96c-0.62-43.34-27.77-79.03-67.95-93.78
				c-40.68-14.94-85.56,3.18-110.79,36.27c-24.26,31.82-24.57,79.18-2.21,112.03c24.1,35.42,67.95,51.81,109.39,40.41
				c42.27-11.63,70.95-51.75,71.56-94.94c0.23-16.33-13.8-29.96-29.96-29.96C553.52,1106.66,540.3,1120.29,540.07,1136.61z"/>
		</g>
	</g>
	<g>
		<g>
			<path d="M918.28,1136.61c-0.03,1.99-0.11,3.95-0.25,5.93c-0.49,6.95,1.24-7.05-0.03-0.27c-0.7,3.75-1.86,7.39-3.18,10.96
				c2.93-7.98,0.84-2.07-0.05-0.3c-0.83,1.67-1.8,3.27-2.76,4.87c-0.96,1.59-2.05,3.1-3.14,4.61c5.22-7.25,0.09-0.49-1.32,0.99
				c-1.28,1.35-2.66,2.59-4.03,3.82c-4.92,4.42,5.6-3.98,0.22-0.11c-3.03,2.18-6.31,3.99-9.64,5.65c-6,2.99,6.52-2.46,0.21-0.14
				c-1.78,0.66-3.62,1.16-5.45,1.66c-1.85,0.51-3.74,0.86-5.63,1.21c9.16-1.71,0.45-0.2-1.77-0.1c-2.65,0.11-15.31-1.4-5.76,0.1
				c-3.78-0.59-7.46-1.66-11.08-2.88c-6.38-2.14,6.28,2.96,0.21,0.14c-1.7-0.79-3.32-1.71-4.95-2.63c-1.62-0.92-3.16-1.97-4.7-3.01
				c-2.57-1.87-2.02-1.43,1.63,1.31c-0.95-0.79-1.88-1.6-2.79-2.44c-1.81-1.62-9.6-10.95-3.97-3.58c-2.26-2.96-4.15-6.19-5.9-9.48
				c-0.89-1.66-3.25-7.72-0.05,0.3c-0.7-1.76-1.26-3.57-1.81-5.38c-0.56-1.83-0.96-3.71-1.37-5.57c-0.57-3.26-0.51-2.52,0.17,2.22
				c-0.15-1.3-0.26-2.6-0.33-3.91c-0.28-3.95-0.06-7.92,0.33-11.85c-0.95,9.53,0.97-2.62,1.75-5.17c0.54-1.77,3.12-7.89-0.33,0.11
				c0.74-1.72,1.62-3.38,2.5-5.03c0.88-1.64,1.88-3.22,2.89-4.78c0.68-1.03,1.39-2.05,2.13-3.04c-2.82,3.59-3.22,4.17-1.19,1.73
				c2.4-2.82,5.14-5.35,7.96-7.75c-6.4,5.45-1.71,1.36-0.1,0.26c1.54-1.05,3.16-1.97,4.78-2.89c1.63-0.92,3.33-1.71,5.03-2.5
				c-7.78,3.61-1.95,0.94-0.11,0.33c1.81-0.61,3.66-1.06,5.51-1.52c1.25-0.29,2.51-0.54,3.77-0.76c-4.77,0.56-5.49,0.68-2.17,0.33
				c3.95-0.39,7.92-0.28,11.87,0c6.95,0.49-7.06-1.24-0.27,0.03c1.88,0.35,3.73,0.86,5.57,1.37c1.83,0.5,3.61,1.16,5.38,1.81
				c-7.98-2.93-2.07-0.84-0.3,0.05c1.67,0.83,3.27,1.8,4.87,2.76c1.71,1.04,8.47,6.39,1.46,0.74c2.89,2.33,5.48,4.99,7.96,7.75
				c4.42,4.92-3.98-5.6-0.11-0.22c1.09,1.51,2.05,3.11,3.01,4.7c0.97,1.6,1.8,3.28,2.63,4.95c2.99,6-2.46-6.52-0.14-0.21
				c0.66,1.78,1.16,3.62,1.66,5.45c0.55,1.99,1.9,10.9,0.69,1.52C918.17,1131.34,918.25,1133.98,918.28,1136.61
				c0.23,16.32,13.45,29.96,29.96,29.96c16.15,0,30.19-13.63,29.96-29.96c-0.62-43.34-27.77-79.03-67.95-93.78
				c-40.68-14.94-85.56,3.18-110.79,36.27c-24.26,31.82-24.57,79.18-2.21,112.03c24.1,35.42,67.95,51.81,109.39,40.41
				c42.27-11.63,70.95-51.75,71.56-94.94c0.23-16.33-13.8-29.96-29.96-29.96C931.73,1106.66,918.52,1120.29,918.28,1136.61z"/>
		</g>
	</g>
	<g>
		<g>
			<path d="M314.6,751.94c0-59.07,0-118.14,0-177.21c0-78.96,0-157.93,0-236.89c0-5.58,0-11.16,0-16.74
				c0-19.88-7.31-37.58-19.39-53.01c-13.61-17.4-34.09-26.42-55.5-29.2c-11.47-1.48-23.49-0.57-35.01-0.57c-21.85,0-43.71,0-65.56,0
				c-27.14,0-54.28,0-81.43,0c-16.33,0-29.96,13.63-29.96,29.96s13.63,29.96,29.96,29.96c32.81,0,65.63,0,98.44,0
				c20.04,0,40.08,0,60.12,0c4.81,0,9.62,0,14.44,0c2.37,0,4.72,0.11,7.08,0.32c-8.71-0.8-2.49-0.17-0.43,0.33
				c1.83,0.45,3.61,1.09,5.38,1.73c-7.91-2.85-2.24-0.85-0.41,0.12c1.78,0.95,8.69,6.04,1.58,0.48c2.9,2.27,5.43,4.98,7.8,7.79
				c-5.39-6.42-1.51-1.72-0.45-0.02c0.98,1.57,1.8,3.25,2.61,4.91c-3.69-7.57-0.99-2.14-0.35-0.16c0.58,1.81,0.96,3.68,1.34,5.54
				c-1.84-8.97-0.18-0.65-0.18,1.78c0,1.55,0,3.11,0,4.66c0,9.69,0,19.38,0,29.07c0,37.67,0,75.33,0,113c0,83.99,0,167.98,0,251.97
				c0,10.73,0,21.46,0,32.18c0,16.33,13.63,29.96,29.96,29.96S314.6,768.27,314.6,751.94L314.6,751.94z"/>
		</g>
	</g>
	<g>
		<g>
			<path d="M434.09,639.11c42.57,0,85.15,0,127.72,0c16.33,0,29.96-13.63,29.96-29.96s-13.63-29.96-29.96-29.96
				c-42.57,0-85.15,0-127.72,0c-16.33,0-29.96,13.63-29.96,29.96S417.76,639.11,434.09,639.11L434.09,639.11z"/>
		</g>
	</g>
	<g>
		<g>
			<path d="M434.09,783.69c64.3,0,128.6,0,192.9,0c58.6,0,117.2,0,175.8,0c16.33,0,29.96-13.63,29.96-29.96
				c0-16.33-13.63-29.96-29.96-29.96c-64.3,0-128.6,0-192.9,0c-58.6,0-117.2,0-175.8,0c-16.33,0-29.96,13.63-29.96,29.96
				C404.13,770.07,417.76,783.69,434.09,783.69L434.09,783.69z"/>
		</g>
	</g>
	<g>
		<g>
			<path d="M1023.02,1035.62c-45.11,0-90.23,0-135.34,0c-91.09,0-182.17,0-273.26,0c-70.67,0-141.35,0-212.02,0
				c-6.7,0-13.4,0-20.1,0c-0.99,0-1.98,0-2.97,0c-2.66,0-5.31-0.14-7.96-0.33c-6.99-0.51,7.08,1.18,0.2,0.1
				c-1.91-0.3-3.8-0.72-5.68-1.13c-3.73-0.82-7.38-1.99-10.97-3.26c-6.37-2.25,6.32,2.9,0.17,0.15c-2.29-1.02-4.5-2.2-6.69-3.4
				c-3.28-1.79-6.39-3.87-9.43-6.04c7.52,5.35-2.14-2-3.92-3.67c-2.71-2.55-5.18-5.34-7.57-8.19c-4.27-5.1,4.05,5.55,0.19,0.13
				c-1.44-2.03-2.75-4.16-4.03-6.29c-1.93-3.22-3.57-6.61-5.1-10.04c3.84,8.59-0.73-3.03-1.4-5.37c-1.06-3.71-1.78-7.52-2.38-11.33
				c1.5,9.6,0.07-3.29,0.07-5.82c0-5.89,0-11.78,0-17.67c0-82.15,0-164.29,0-246.44c0-32.92,0-65.83,0-98.75
				c0-16.33-13.63-29.96-29.96-29.96s-29.96,13.63-29.96,29.96c0,64.75,0,129.5,0,194.25c0,41.88,0,83.76,0,125.63
				c0,27.45-2.51,57.07,6.76,83.31c13.32,37.72,43.06,66.03,80.91,78.54c13.29,4.39,27.5,5.53,41.44,5.53c20.32,0,40.64,0,60.96,0
				c83.26,0,166.51,0,249.77,0c84.75,0,169.5,0,254.25,0c24.68,0,49.35,0,74.03,0c16.33,0,29.96-13.63,29.96-29.96
				C1052.97,1049.25,1039.35,1035.62,1023.02,1035.62L1023.02,1035.62z"/>
		</g>
	</g>
	<g>
		<g>
			<path d="M1262.33,420.04c-0.03,7.97-0.37,15.91-1.02,23.85c-0.32,3.92-0.77,7.82-1.26,11.72c1.13-8.97,0.24-2.06-0.04-0.23
				c-0.4,2.56-0.85,5.11-1.32,7.66c-2.88,15.71-7.3,31.11-12.88,46.07c-0.8,2.14-5.72,13.9-1.95,5.12
				c-1.49,3.47-3.08,6.89-4.71,10.29c-3.51,7.34-7.43,14.48-11.58,21.48c-3.82,6.43-7.96,12.67-12.28,18.76
				c-1.3,1.84-8.96,11.79-3.16,4.38c-2.68,3.42-5.48,6.76-8.31,10.05c-10.13,11.76-21.37,22.55-33.32,32.44
				c-1.44,1.19-2.9,2.35-4.36,3.51c6.75-5.36,1.56-1.21,0.14-0.15c-2.99,2.24-6.04,4.39-9.11,6.51c-6.68,4.6-13.6,8.84-20.66,12.84
				c-6.55,3.71-13.28,7.07-20.11,10.23c-1.71,0.79-3.44,1.55-5.17,2.3c8.01-3.5,1.83-0.78,0.17-0.11c-4.1,1.66-8.26,3.18-12.45,4.64
				c-15.13,5.28-30.77,9.07-46.58,11.62c-1.82,0.3-8.74,1.23,0.23,0.04c-1.94,0.26-3.89,0.48-5.84,0.69
				c-3.92,0.44-7.86,0.74-11.79,1.01c-8.87,0.6-17.77,0.68-26.65,0.44c-8.6-0.23-17.18-0.97-25.72-2c8.54,1.03,1.2,0.14-0.46-0.11
				c-2.09-0.32-4.18-0.68-6.26-1.05c-4.83-0.85-9.63-1.89-14.41-3c-8.12-1.88-16.12-4.23-24.03-6.85c-3.92-1.3-7.8-2.73-11.67-4.21
				c-1.93-0.74-3.83-1.51-5.74-2.29c8.1,3.31-0.68-0.36-2.27-1.08c-15.49-7.02-30.23-15.64-44.15-25.39
				c-1.66-1.16-3.3-2.37-4.94-3.57c-1.28-0.94-6.87-5.29-0.39-0.24c-3.2-2.49-6.31-5.09-9.4-7.72c-6.68-5.7-13.02-11.79-19.13-18.09
				c-5.64-5.82-10.96-11.96-16.06-18.25c-1-1.23-5.29-6.86-0.31-0.33c-1.23-1.61-2.43-3.25-3.62-4.89
				c-2.79-3.83-5.44-7.77-8.04-11.74c-4.46-6.83-8.53-13.9-12.37-21.1c-2.47-4.65-4.76-9.39-6.98-14.17
				c-0.33-0.71-3.77-8.76-1.18-2.54c-1.28-3.07-2.45-6.18-3.62-9.29c-3.52-9.41-6.39-19.06-8.85-28.8
				c-1.25-4.92-2.28-9.9-3.25-14.88c-0.49-2.51-0.9-5.03-1.32-7.55c-0.27-1.69-0.53-3.38-0.77-5.07c0.49,3.72,0.52,3.82,0.09,0.3
				c-2.23-18.93-2.26-38.1-0.56-57.07c0.21-2.35,1.91-15.45,0.54-5.67c0.54-3.85,1.2-7.69,1.9-11.51
				c1.51-8.21,3.47-16.33,5.73-24.37c2.06-7.34,4.49-14.57,7.16-21.71c0.8-2.14,5.72-13.9,1.95-5.13c1.73-4.04,3.61-8.02,5.54-11.98
				c6.84-14.03,15.02-27.4,24.13-40.06c1.09-1.51,2.21-3.01,3.33-4.5c4.01-5.34-4.26,5.41-0.11,0.18c2.32-2.92,4.72-5.77,7.16-8.59
				c5.27-6.11,10.87-11.94,16.65-17.57c5.34-5.2,10.94-10.12,16.68-14.87c1.44-1.19,2.9-2.35,4.36-3.51
				c-6.75,5.36-1.56,1.21-0.14,0.15c3.48-2.62,7.05-5.11,10.66-7.56c12.94-8.79,26.7-16.33,40.94-22.79
				c1.62-0.74,7.84-3.38-0.22,0.02c1.74-0.73,3.5-1.43,5.26-2.13c3.53-1.4,7.1-2.69,10.68-3.94c7.82-2.73,15.79-5.02,23.83-7.03
				c7.51-1.88,15.11-3.35,22.75-4.59c1.82-0.3,8.74-1.23-0.23-0.04c1.94-0.26,3.89-0.48,5.84-0.69c4.58-0.51,9.17-0.85,13.77-1.13
				c8.64-0.52,17.3-0.55,25.95-0.28c4.95,0.15,9.89,0.51,14.82,0.92c2.45,0.21,4.89,0.48,7.33,0.75c3.47,0.43,3.24,0.39-0.69-0.13
				c1.61,0.23,3.21,0.48,4.81,0.73c19.72,3.09,39.01,8.6,57.57,15.9c7.44,2.93-5.77-2.55,1.56,0.62c2.16,0.94,4.3,1.93,6.43,2.92
				c4.26,1.98,8.44,4.12,12.59,6.32c9.12,4.82,17.89,10.27,26.41,16.08c2.15,1.47,4.27,3,6.38,4.52c0.63,0.46,7.48,5.72,2.23,1.61
				c3.62,2.83,7.13,5.81,10.6,8.82c7.03,6.1,13.67,12.64,20.05,19.41c2.94,3.13,5.78,6.36,8.57,9.62c1.4,1.63,2.76,3.3,4.12,4.96
				c0.91,1.12,5.43,6.97,0.63,0.7c5.68,7.41,10.89,15.17,15.79,23.11c4.54,7.37,8.65,15,12.48,22.77c1.92,3.9,3.71,7.87,5.44,11.86
				c-3.19-7.34-0.24-0.45,0.3,0.91c1.08,2.71,2.08,5.45,3.07,8.19c6.28,17.4,10.56,35.48,13.21,53.77c-1.24-8.58,0.1,1.61,0.27,3.26
				c0.31,3.02,0.53,6.05,0.75,9.07C1262.16,407.78,1262.31,413.91,1262.33,420.04c0.07,16.33,13.58,29.96,29.96,29.96
				c16.28,0,30.02-13.63,29.96-29.96c-0.33-79.73-31.71-156.44-87.22-213.64c-59-60.79-143.5-94.11-227.98-91.39
				c-70.25,2.26-136.76,29.31-190.1,74.67c-50.53,42.97-86.09,104.57-98.96,169.53c-16.1,81.21,0.95,167.68,48.89,235.5
				c42.81,60.57,106.4,104.73,178.69,122.09c71.09,17.08,146.18,7.4,211.26-25.43c58.75-29.64,107.71-80.57,135.69-140.02
				c19.37-41.16,29.58-85.78,29.75-131.31c0.06-16.33-13.67-29.96-29.96-29.96C1275.91,390.09,1262.39,403.72,1262.33,420.04z"/>
		</g>
	</g>
	<g>
		<g>
			<path d="M1125.67,309.95c-50.33,50.33-100.66,100.66-150.99,150.99c-8.95,8.95-17.9,17.9-26.85,26.85c14.12,0,28.24,0,42.36,0
				c-27.26-27.26-54.52-54.52-81.78-81.78c-11.54-11.54-30.82-11.54-42.36,0c-11.54,11.54-11.54,30.82,0,42.36
				c27.26,27.26,54.52,54.52,81.78,81.78c11.54,11.54,30.82,11.54,42.36,0c50.33-50.33,100.66-100.66,150.99-150.99
				c8.95-8.95,17.9-17.9,26.85-26.85c11.54-11.54,11.54-30.82,0-42.36C1156.49,298.4,1137.21,298.4,1125.67,309.95L1125.67,309.95z"
				/>
		</g>
	</g>
</g>
</svg>
