<?xml version="1.0" encoding="utf-8"?>
<!-- Generator: Adobe Illustrator 25.0.0, SVG Export Plug-In . SVG Version: 6.00 Build 0)  -->
<svg version="1.1" id="Layer_1" xmlns="http://www.w3.org/2000/svg" xmlns:xlink="http://www.w3.org/1999/xlink" x="0px" y="0px"
	 viewBox="0 0 1350 1350" style="enable-background:new 0 0 1350 1350;" xml:space="preserve">
<g>
	<path d="M839.09,965.45H441.42l-0.3-21.98c-0.45-40.54-33.71-73.36-74.25-73.36s-73.8,32.97-74.25,73.36l-0.3,21.98H135.82
		c-21.53,0-43.06-8.32-58.95-23.02c-16.93-15.59-26.28-36.23-26.28-58.36V368.81c0-44.4,39.05-81.97,85.24-81.97H758.3
		c45.29,0,80.78,36.08,80.78,81.97V965.45z M483.44,920.91h311.09V368.95c0-21.09-15.89-37.42-36.23-37.42H135.82
		c-21.68,0-40.69,17.52-40.69,37.42v515.27c0,19.6,19.01,36.83,40.69,36.83h114.64c4.6-23.02,15.89-44.25,32.97-61.03
		c22.42-22.13,52.12-34.3,83.6-34.3s61.18,12.18,83.6,34.3C467.55,876.8,478.84,897.89,483.44,920.91z"/>
	<path d="M1011.19,1063.16c-65.49,0-118.79-53.31-118.79-118.8c0-0.59,0-1.04,0-1.63c0.45-31.33,12.92-60.73,35.19-82.86
		c22.42-22.13,52.12-34.3,83.6-34.3s61.18,12.18,83.6,34.3c22.27,22.13,34.75,51.53,35.19,82.86c0,0.59,0,1.04,0,1.63
		C1129.98,1009.85,1076.68,1063.16,1011.19,1063.16z M1011.19,870.12c-40.54,0-73.8,32.97-74.25,73.36v0.59v0.3
		c0,40.98,33.26,74.25,74.25,74.25c40.98,0,74.25-33.26,74.25-74.25v-0.89C1084.99,902.94,1051.73,870.12,1011.19,870.12z"/>
	<path d="M1299.42,965.45h-213.68l-0.3-21.98c-0.45-40.54-33.71-73.36-74.25-73.36s-73.8,32.97-74.25,73.36l-0.3,21.98H794.39
		V396.72h309.02l195.86,245.16v323.57H1299.42z M1127.76,920.91h127.11V657.48l-172.7-216.21H839.09v479.63h55.69
		c4.6-23.02,15.89-44.25,32.97-61.03c22.42-22.13,52.12-34.3,83.6-34.3s61.18,12.18,83.6,34.3
		C1111.87,876.8,1123.15,897.89,1127.76,920.91z"/>
	<path d="M367.02,1063.16c-65.49,0-118.79-53.31-118.79-118.8c0-0.59,0-1.04,0-1.63c0.45-31.33,12.92-60.73,35.19-82.86
		c22.42-22.13,52.12-34.3,83.6-34.3s61.18,12.18,83.6,34.3c22.27,22.13,34.75,51.53,35.19,82.86c0,0.59,0,1.04,0,1.63
		C485.82,1009.85,432.51,1063.16,367.02,1063.16z M367.02,870.12c-40.54,0-73.8,32.97-74.25,73.36v0.74v0.15
		c0,40.98,33.26,74.25,74.25,74.25s74.25-33.26,74.25-74.25v-0.89C440.83,902.94,407.41,870.12,367.02,870.12z"/>
	<rect x="946.74" y="627.48" width="329.66" height="44.55"/>
	<polygon points="389.15,709.6 268.57,589.02 300.2,557.54 389.15,646.49 582.79,452.85 614.27,484.33 	"/>
</g>
</svg>
