<?xml version="1.0" encoding="utf-8"?>
<!-- Generator: Adobe Illustrator 25.0.0, SVG Export Plug-In . SVG Version: 6.00 Build 0)  -->
<svg version="1.1" id="Layer_1" xmlns="http://www.w3.org/2000/svg" xmlns:xlink="http://www.w3.org/1999/xlink" x="0px" y="0px"
	 viewBox="0 0 1350 1350" style="enable-background:new 0 0 1350 1350;" xml:space="preserve">
<style type="text/css">
	.st0{fill:#8517FF;}
</style>
<g>
	<g>
		<g>
			<path class="st0" d="M702.53,515.1c-47.03,0-94.06,0-141.09,0c1.48,1.48,2.96,2.96,4.44,4.44c0-19.02,0-38.05,0-57.07
				c-1.48,1.48-2.96,2.96-4.44,4.44c38.61,0,77.22,0,115.83,0c-1.28-0.73-2.56-1.47-3.83-2.2c8.87,18.4,17.14,37.07,24.81,56.01
				c2.12,5.24,10.71,2.95,8.56-2.36c-7.96-19.64-16.5-39.04-25.71-58.13c-0.66-1.38-2.37-2.2-3.83-2.2c-38.61,0-77.22,0-115.83,0
				c-2.42,0-4.44,2.02-4.44,4.44c0,19.02,0,38.05,0,57.07c0,2.42,2.02,4.44,4.44,4.44c47.03,0,94.06,0,141.09,0
				C708.26,523.98,708.26,515.1,702.53,515.1z"/>
		</g>
	</g>
	<g>
		<g>
			<path class="st0" d="M770.31,763.12c-63.02,0-126.04,0-189.06,0c-6.6,0-13.21,0-19.81,0c1.48,1.48,2.96,2.96,4.44,4.44
				c0-63.23,0-126.46,0-189.7c0-9.36,0-18.71,0-28.07c-1.48,1.48-2.96,2.96-4.44,4.44c50.95,0,101.9,0,152.86,0
				c-1.43-1.09-2.85-2.17-4.28-3.26c26.33,70.37,44.33,143.59,56.01,217.76c0.89,5.64,9.45,3.24,8.56-2.36
				c-11.69-74.17-29.68-147.39-56.01-217.76c-0.7-1.88-2.17-3.26-4.28-3.26c-50.95,0-101.9,0-152.86,0c-2.42,0-4.44,2.02-4.44,4.44
				c0,63.23,0,126.46,0,189.7c0,9.36,0,18.71,0,28.07c0,2.42,2.02,4.44,4.44,4.44c63.02,0,126.04,0,189.06,0c6.6,0,13.21,0,19.81,0
				C776.03,772,776.03,763.12,770.31,763.12z"/>
		</g>
	</g>
	<g>
		<g>
			<path class="st0" d="M780.7,1045.86c-2.39,53.69-7.48,107.28-15.75,160.39c-3.23,20.74-6.7,41.57-11.56,62.01
				c1.43-1.09,2.85-2.17,4.28-3.26c-61.85,0-123.69,0-185.54,0c-3.57,0-7.13,0-10.69,0c1.48,1.48,2.96,2.96,4.44,4.44
				c0-63.27,0-126.55,0-189.82c0-11.25,0-22.5,0-33.75c-1.48,1.48-2.96,2.96-4.44,4.44c63.31,0,126.62,0,189.93,0
				c11.26,0,22.52,0,33.77,0c5.73,0,5.73-8.88,0-8.88c-63.31,0-126.62,0-189.93,0c-11.26,0-22.52,0-33.77,0
				c-2.42,0-4.44,2.02-4.44,4.44c0,63.27,0,126.55,0,189.82c0,11.25,0,22.5,0,33.75c0,2.42,2.02,4.44,4.44,4.44
				c61.85,0,123.69,0,185.54,0c3.57,0,7.13,0,10.69,0c1.92,0,3.83-1.35,4.28-3.26c4.86-20.44,8.31-41.27,11.56-62.01
				c8.45-53.88,13.64-108.27,16.07-162.75C789.83,1040.13,780.95,1040.15,780.7,1045.86z"/>
		</g>
	</g>
	<g>
		<g>
			<path class="st0" d="M786.14,1011.15c-63.36,0-126.71,0-190.07,0c-11.55,0-23.09,0-34.64,0c1.48,1.48,2.96,2.96,4.44,4.44
				c0-63.23,0-126.46,0-189.69c0-9.36,0-18.71,0-28.07c-1.48,1.48-2.96,2.96-4.44,4.44c63.04,0,126.08,0,189.12,0
				c8.05,0,16.1,0,24.16,0c-1.48-1.48-2.96-2.96-4.44-4.44c9.54,72.17,13.02,144.99,11.43,217.75c-0.13,5.73,8.76,5.72,8.88,0
				c1.59-72.77-1.89-145.58-11.43-217.75c-0.32-2.4-1.78-4.44-4.44-4.44c-63.04,0-126.08,0-189.12,0c-8.05,0-16.1,0-24.16,0
				c-2.42,0-4.44,2.02-4.44,4.44c0,63.23,0,126.46,0,189.69c0,9.36,0,18.71,0,28.07c0,2.42,2.02,4.44,4.44,4.44
				c63.36,0,126.71,0,190.07,0c11.55,0,23.09,0,34.64,0C791.87,1020.03,791.87,1011.15,786.14,1011.15z"/>
		</g>
	</g>
	<g>
		<g>
			<path class="st0" d="M857.57,471.8c-0.63,7.05-12.72,4.87-17.46,4.87c-11.29,0-22.57,0-33.86,0c-16.74,0-33.49,0-50.23,0
				c1.28,0.73,2.56,1.47,3.83,2.2c-3.49-6.25-7.04-12.46-10.67-18.64c-1.28,2.23-2.56,4.45-3.83,6.68c18.53,0,37.05,0,55.58,0
				c12.21,0,24.42,0,36.63,0C842.44,466.91,856.91,464.4,857.57,471.8c0.51,5.66,9.39,5.71,8.88,0
				c-1.11-12.41-10.97-13.77-20.9-13.77c-12.35,0-24.71,0-37.06,0c-21.05,0-42.09,0-63.14,0c-3.36,0-5.54,3.77-3.83,6.68
				c3.63,6.17,7.18,12.39,10.67,18.64c0.76,1.36,2.3,2.2,3.83,2.2c19.25,0,38.5,0,57.74,0c10.86,0,21.71,0,32.57,0
				c9.74,0,19.05-1.84,20.12-13.75C866.96,466.09,858.08,466.14,857.57,471.8z"/>
		</g>
	</g>
	<g>
		<g>
			<path class="st0" d="M785.16,490.97c0,3.49,0,6.99,0,10.48c1.48-1.48,2.96-2.96,4.44-4.44c-7.52,0-15.03,0-22.55,0
				c1.28,0.73,2.56,1.47,3.83,2.2c-1.85-3.51-3.72-7-5.62-10.48c-1.28,2.23-2.56,4.45-3.83,6.68c9.39,0,18.78,0,28.17,0
				c5.73,0,5.73-8.88,0-8.88c-9.39,0-18.78,0-28.17,0c-3.44,0-5.44,3.75-3.83,6.68c1.9,3.48,3.77,6.97,5.62,10.48
				c0.72,1.37,2.32,2.2,3.83,2.2c7.52,0,15.03,0,22.55,0c2.42,0,4.44-2.02,4.44-4.44c0-3.49,0-6.99,0-10.48
				C794.04,485.24,785.16,485.24,785.16,490.97z"/>
		</g>
	</g>
	<g>
		<g>
			<path class="st0" d="M778.11,485.55c12.03,0,24.07,0,36.1,0c-1.28-2.23-2.56-4.45-3.83-6.68c-5.82,9.83-11.64,19.67-17.47,29.5
				c2.56,0,5.11,0,7.67,0c-6.21-9.83-12.42-19.67-18.63-29.5c-3.05-4.83-10.74-0.37-7.67,4.48c6.21,9.83,12.42,19.67,18.63,29.5
				c1.77,2.8,5.93,2.94,7.67,0c5.82-9.83,11.64-19.67,17.47-29.5c1.72-2.9-0.48-6.68-3.83-6.68c-12.03,0-24.07,0-36.1,0
				C772.38,476.67,772.38,485.55,778.11,485.55z"/>
		</g>
	</g>
	<g>
		<g>
			<path class="st0" d="M496.67,73.96c0,37.49,0,74.99,0,112.48c2.23-1.28,4.45-2.56,6.68-3.83c-10.14-7.47-20.42-14.93-31.22-21.43
				c0.73,1.28,1.47,2.56,2.2,3.83c0-18.52,0-37.05,0-55.57c0-10.23,0-20.47,0-30.7c0-2.38-0.16-4.83,0.26-7.18
				C476.89,58.34,496,61.47,496.67,73.96c0.31,5.7,9.19,5.73,8.88,0c-0.64-11.87-9.84-20.63-21.88-19.94
				c-10.45,0.6-18.23,10.2-18.23,20.31c0,12.95,0,25.9,0,38.86c0,15.88,0,31.76,0,47.64c0,4.13-0.05,6.61,3.87,9.06
				c10.15,6.33,19.92,13.3,29.55,20.4c2.8,2.06,6.68-0.74,6.68-3.83c0-37.49,0-74.99,0-112.48
				C505.55,68.24,496.67,68.24,496.67,73.96z"/>
		</g>
	</g>
	<g>
		<g>
			<path class="st0" d="M465.7,165.02c0,4.03,6.08,6.41,8.94,8.28c8.25,5.4,16.29,11.13,24.23,16.98c2.8,2.06,6.68-0.74,6.68-3.83
				c0-3.96-5.03-6.11-7.77-8.09c-4.51-3.27-9.08-6.46-13.69-9.58c-3.85-2.61-7.72-5.2-11.71-7.59c-4.92-2.95-9.39,4.73-4.48,7.67
				c10.72,6.43,20.91,13.83,30.97,21.24c-0.73-1.28-1.47-2.56-2.2-3.83c0,0.06,0,0.13,0,0.19c2.23-1.28,4.45-2.56,6.68-3.83
				c-10.08-7.42-20.3-14.72-30.97-21.28c0.73,1.28,1.47,2.56,2.2,3.83c0-0.05,0-0.1,0-0.15C474.58,159.29,465.7,159.29,465.7,165.02
				z"/>
		</g>
	</g>
	<g>
		<g>
			<path class="st0" d="M786.14,1011.15c-63.36,0-126.71,0-190.07,0c-11.55,0-23.09,0-34.64,0c1.48,1.48,2.96,2.96,4.44,4.44
				c0-63.23,0-126.46,0-189.69c0-9.36,0-18.71,0-28.07c-1.48,1.48-2.96,2.96-4.44,4.44c63.04,0,126.08,0,189.12,0
				c8.05,0,16.1,0,24.16,0c-1.48-1.48-2.96-2.96-4.44-4.44c9.54,72.17,13.02,144.99,11.43,217.75c-0.13,5.73,8.76,5.72,8.88,0
				c1.59-72.77-1.89-145.58-11.43-217.75c-0.32-2.4-1.78-4.44-4.44-4.44c-63.04,0-126.08,0-189.12,0c-8.05,0-16.1,0-24.16,0
				c-2.42,0-4.44,2.02-4.44,4.44c0,63.23,0,126.46,0,189.69c0,9.36,0,18.71,0,28.07c0,2.42,2.02,4.44,4.44,4.44
				c63.36,0,126.71,0,190.07,0c11.55,0,23.09,0,34.64,0C791.87,1020.03,791.87,1011.15,786.14,1011.15z"/>
			<path class="st0" d="M561.44,554.24c50.95,0,101.9,0,152.86,0c-1.43-1.09-2.85-2.17-4.28-3.26
				c26.33,70.37,44.33,143.59,56.01,217.76c1.43-1.88,2.85-3.75,4.28-5.62c-63.02,0-126.04,0-189.06,0c-6.6,0-13.21,0-19.81,0
				c1.48,1.48,2.96,2.96,4.44,4.44c0-63.23,0-126.46,0-189.7c0-9.36,0-18.71,0-28.07c0-5.73-8.88-5.73-8.88,0
				c0,63.23,0,126.46,0,189.7c0,9.36,0,18.71,0,28.07c0,2.42,2.02,4.44,4.44,4.44c63.02,0,126.04,0,189.06,0c6.6,0,13.21,0,19.81,0
				c3.13,0,4.72-2.82,4.28-5.62c-11.69-74.17-29.68-147.39-56.01-217.76c-0.7-1.88-2.17-3.26-4.28-3.26c-50.95,0-101.9,0-152.86,0
				C555.71,545.36,555.71,554.24,561.44,554.24z"/>
			<path class="st0" d="M558.3,284.3c58.35,71.19,105.41,151.13,139.95,236.42c1.43-1.87,2.85-3.75,4.28-5.62
				c-47.03,0-94.06,0-141.09,0c1.48,1.48,2.96,2.96,4.44,4.44c0-63.21,0-126.42,0-189.63c0-16.25,0-32.5,0-48.75
				c0-5.73-8.88-5.73-8.88,0c0,63.21,0,126.42,0,189.63c0,16.25,0,32.5,0,48.75c0,2.42,2.02,4.44,4.44,4.44
				c47.03,0,94.06,0,141.09,0c2.63,0,5.39-2.89,4.28-5.62c-35.16-86.82-82.84-167.88-142.24-240.34
				C560.94,273.59,554.7,279.91,558.3,284.3z"/>
			<path class="st0" d="M770.89,499.21c-58.7-111.38-139.22-212.43-236.52-292.55c-10.13-8.34-20.52-16.35-31.02-24.23
				c-2.79-2.09-6.68,0.76-6.68,3.83c0,0.06,0,0.13,0,0.19c2.23-1.28,4.45-2.56,6.68-3.83c-10.08-7.42-20.3-14.72-30.97-21.28
				c-2.89-1.77-6.68,0.52-6.68,3.83c0,59.62,0,119.24,0,178.87c0,39.48,0,78.96,0,118.43c0,2.42,2.02,4.44,4.44,4.44
				c6.59,0,13.18,0,19.77,0c8.95,0,22.1-2.02,22.94,10.71c0.82,12.32-13.95,10.7-21.73,10.7c-7,0-14,0-20.99,0
				c-2.42,0-4.44,2.02-4.44,4.44c0,31.45,0,62.9,0,94.34c0,73,0,145.99,0,218.99c0,82.52,0,165.04,0,247.57
				c0,60.03,0,120.05,0,180.08c0,11.9,0,23.8,0,35.7c0,2.42,2.02,4.44,4.44,4.44c30.43,0,60.86,0,91.3,0c2.42,0,4.44-2.02,4.44-4.44
				c0-63.27,0-126.55,0-189.82c0-11.25,0-22.5,0-33.75c-1.48,1.48-2.96,2.96-4.44,4.44c63.31,0,126.62,0,189.93,0
				c11.26,0,22.52,0,33.77,0c-1.48-1.48-2.96-2.96-4.44-4.44c-2.39,53.69-7.48,107.28-15.75,160.39
				c-3.23,20.74-6.7,41.57-11.56,62.01c-0.66,2.8,1.32,5.62,4.28,5.62c32.04,0,64.08,0,96.12,0c1.88,0,3.89-1.34,4.28-3.26
				c29.08-140.99,39.07-286.33,20.35-429.39c-14.45-110.51-46.28-218.43-95.52-318.47C779.01,514.85,775,507,770.89,499.21
				c-2.67-5.07-10.33-0.58-7.67,4.48c51.16,97.2,85.22,202.59,102.47,311.01c22.37,140.64,15.59,284.83-10.45,424.47
				c-1.81,9.71-3.74,19.41-5.74,29.08c1.43-1.09,2.85-2.17,4.28-3.26c-32.04,0-64.08,0-96.12,0c1.43,1.87,2.85,3.75,4.28,5.62
				c4.86-20.44,8.31-41.27,11.56-62.01c8.45-53.88,13.64-108.27,16.07-162.75c0.11-2.42-2.1-4.44-4.44-4.44
				c-63.31,0-126.62,0-189.93,0c-11.26,0-22.52,0-33.77,0c-2.42,0-4.44,2.02-4.44,4.44c0,63.27,0,126.55,0,189.82
				c0,11.25,0,22.5,0,33.75c1.48-1.48,2.96-2.96,4.44-4.44c-30.43,0-60.86,0-91.3,0c1.48,1.48,2.96,2.96,4.44,4.44
				c0-31.45,0-62.9,0-94.34c0-72.99,0-145.99,0-218.99c0-82.52,0-165.04,0-247.57c0-60.03,0-120.05,0-180.08c0-11.9,0-23.8,0-35.7
				c-1.48,1.48-2.96,2.96-4.44,4.44c8.85,0,17.69,0,26.54,0c4.06,0,7.91,0.12,11.87-1.08c8.19-2.47,12.66-10.45,13.19-18.5
				c0.52-7.86-5.29-15.13-12.16-18.08c-3.85-1.65-7.87-1.51-11.95-1.51c-9.16,0-18.32,0-27.49,0c1.48,1.48,2.96,2.96,4.44,4.44
				c0-59.62,0-119.24,0-178.87c0-39.48,0-78.96,0-118.43c-2.23,1.28-4.45,2.56-6.68,3.83c10.67,6.55,20.89,13.85,30.97,21.28
				c2.8,2.06,6.68-0.74,6.68-3.83c0-0.06,0-0.13,0-0.19c-2.23,1.28-4.45,2.56-6.68,3.83c88.94,66.76,164.48,150.93,224.25,244.55
				c14.33,22.44,27.69,45.5,40.1,69.05C765.89,508.76,773.56,504.27,770.89,499.21z"/>
		</g>
	</g>
	<g>
		<g>
			<path class="st0" d="M512.86,477.62c-0.67,10.08-8.87,10.7-16.47,10.7c-7.5,0-15,0-22.5,0c-20.01,0-40.03,0-60.04,0
				c-6.16,0-12.33,0-18.5,0c-1.54,0-2.99,0.03-4.53-0.24c-12.55-2.19-9.74-20.35,2.29-21.16c12.03-0.81,24.4,0,36.45,0
				c17.29,0,34.58,0,51.87,0C491.32,466.91,511.89,463.11,512.86,477.62c0.38,5.68,9.26,5.72,8.88,0
				c-0.74-11.16-8.83-19.59-20.26-19.59c-5.06,0-10.12,0-15.18,0c-19.71,0-39.42,0-59.13,0c-8.3,0-16.6,0-24.9,0
				c-3.96,0-8.47-0.51-12.4,0.3c-14.07,2.88-21.99,20.44-11.72,31.89c5.05,5.64,11.39,6.97,18.53,6.97c23.81,0,47.62,0,71.42,0
				c9.99,0,19.99,0,29.98,0c12.42,0,22.75-5.9,23.66-19.58C522.12,471.9,513.23,471.94,512.86,477.62z"/>
		</g>
	</g>
	<g>
		<g>
			<path class="st0" d="M601.2,611.31c29.89,0,59.77,0,89.66,0c5.73,0,5.73-8.88,0-8.88c-29.89,0-59.77,0-89.66,0
				C595.47,602.43,595.47,611.31,601.2,611.31L601.2,611.31z"/>
		</g>
	</g>
	<g>
		<g>
			<path class="st0" d="M601.2,663.71c35.32,0,70.64,0,105.96,0c5.73,0,5.73-8.88,0-8.88c-35.32,0-70.64,0-105.96,0
				C595.47,654.83,595.47,663.71,601.2,663.71L601.2,663.71z"/>
		</g>
	</g>
	<g>
		<g>
			<path class="st0" d="M601.2,716.11c39.98,0,79.96,0,119.94,0c5.73,0,5.73-8.88,0-8.88c-39.98,0-79.96,0-119.94,0
				C595.47,707.23,595.47,716.11,601.2,716.11L601.2,716.11z"/>
		</g>
	</g>
	<g>
		<g>
			<path class="st0" d="M601.2,859.33c46.19,0,92.38,0,138.57,0c5.73,0,5.73-8.88,0-8.88c-46.19,0-92.38,0-138.57,0
				C595.47,850.45,595.47,859.33,601.2,859.33L601.2,859.33z"/>
		</g>
	</g>
	<g>
		<g>
			<path class="st0" d="M601.2,911.73c47.35,0,94.71,0,142.06,0c5.73,0,5.73-8.88,0-8.88c-47.35,0-94.71,0-142.06,0
				C595.47,902.85,595.47,911.73,601.2,911.73L601.2,911.73z"/>
		</g>
	</g>
	<g>
		<g>
			<path class="st0" d="M601.2,964.13c48.13,0,96.26,0,144.39,0c5.73,0,5.73-8.88,0-8.88c-48.13,0-96.26,0-144.39,0
				C595.47,955.25,595.47,964.13,601.2,964.13L601.2,964.13z"/>
		</g>
	</g>
	<g>
		<g>
			<path class="st0" d="M601.2,1109.69c46.58,0,93.15,0,139.73,0c5.73,0,5.73-8.88,0-8.88c-46.58,0-93.15,0-139.73,0
				C595.47,1100.81,595.47,1109.69,601.2,1109.69L601.2,1109.69z"/>
		</g>
	</g>
	<g>
		<g>
			<path class="st0" d="M601.2,1162.09c45.41,0,90.83,0,136.24,0c5.73,0,5.73-8.88,0-8.88c-45.41,0-90.83,0-136.24,0
				C595.47,1153.21,595.47,1162.09,601.2,1162.09L601.2,1162.09z"/>
		</g>
	</g>
	<g>
		<g>
			<path class="st0" d="M601.2,1214.49c42.31,0,84.62,0,126.92,0c5.73,0,5.73-8.88,0-8.88c-42.31,0-84.62,0-126.92,0
				C595.47,1205.61,595.47,1214.49,601.2,1214.49L601.2,1214.49z"/>
		</g>
	</g>
	<g>
		<g>
			<path class="st0" d="M601.2,496.03c16.69,0,33.38,0,50.07,0c5.73,0,5.73-8.88,0-8.88c-16.69,0-33.38,0-50.07,0
				C595.47,487.15,595.47,496.03,601.2,496.03L601.2,496.03z"/>
		</g>
	</g>
	<g>
		<g>
			<path class="st0" d="M967.62,1280.49c-0.58,7.86-8.45,6.62-13.93,6.62c-7.85,0-15.7,0-23.56,0c-28.31,0-56.61,0-84.92,0
				c-80.8,0-161.61,0-242.41,0c-63.13,0-126.26,0-189.38,0c-6,0-12,0-17.99,0c-0.89,0-1.77,0-2.66,0c-9.16,0-8.02-13.25,0.71-13.25
				c14.26,0,28.52,0,42.78,0c70.92,0,141.83,0,212.75,0c77.51,0,155.01,0,232.52,0c19.6,0,39.2,0,58.8,0c5.32,0,10.64,0,15.95,0
				C961.23,1273.87,967.1,1273.46,967.62,1280.49c0.41,5.68,9.3,5.72,8.88,0c-0.83-11.37-9.56-15.51-19.48-15.51
				c-6.63,0-13.26,0-19.89,0c-26.53,0-53.07,0-79.6,0c-79.96,0-159.92,0-239.88,0c-65.88,0-131.76,0-197.64,0
				c-7.25,0-14.5,0-21.74,0c-7.7,0-14.47,0.61-19.18,8.18c-6.2,9.97,2.76,22.83,13.69,22.83c0.95,0,1.9,0,2.84,0
				c6.1,0,12.21,0,18.31,0c63.37,0,126.73,0,190.1,0c80.74,0,161.49,0,242.23,0c28.16,0,56.32,0,84.49,0c7.75,0,15.51,0,23.26,0
				c5.41,0,10.27,0.38,15.26-2.39c4.74-2.63,6.86-8.01,7.24-13.12C976.92,1274.78,968.03,1274.82,967.62,1280.49z"/>
		</g>
	</g>
</g>
</svg>
