<?xml version="1.0" encoding="utf-8"?>
<!-- Generator: Adobe Illustrator 25.0.0, SVG Export Plug-In . SVG Version: 6.00 Build 0)  -->
<svg version="1.1" id="Layer_1" xmlns="http://www.w3.org/2000/svg" xmlns:xlink="http://www.w3.org/1999/xlink" x="0px" y="0px"
	 viewBox="0 0 1350 1350" style="enable-background:new 0 0 1350 1350;" xml:space="preserve">
<g transform="translate(0,-952.36218)">
	<path d="M402.56,1014.63c-120.04,0-217.95,97.92-217.95,217.98v599.44v367.84c0.12,15.16,9.43,29.87,23.07,36.48
		c13.64,6.6,30.96,4.77,42.91-4.55l91.52-71.52l56.62,65.99c15.29,17.9,46.86,17.9,62.15,0l53.21-61.73l63.85,63.86
		c15.83,15.97,45.36,14.93,60.02-2.13l54.91-63.86l77.9,68.12c11.73,10.2,29.52,12.8,43.67,6.39c14.16-6.41,23.94-21.5,24.01-37.04
		v-367.84v-367.84h286.06c21.4,0,40.86-19.47,40.87-40.87v-204.35c0-109.43-87.13-198.67-195.39-203.5
		C781.58,1013.52,591.52,1014.63,402.56,1014.63z M402.56,1096.37h395.89c-25.9,34.25-41.72,76.55-41.72,122.61v613.06v277.58
		l-41.29-36.19c-16.23-14.13-43.91-12.1-57.89,4.26l-53.21,61.73l-63.85-63.86c-15.83-15.97-45.36-14.93-60.02,2.13l-50.66,59.18
		l-50.66-59.18c-13.54-15.76-39.83-18.35-56.19-5.53l-56.62,43.85v-283.97v-599.44C266.34,1156.43,326.39,1096.37,402.56,1096.37
		L402.56,1096.37z M961.06,1096.37c68.63,0,122.6,53.98,122.6,122.61v163.48h-245.2v-163.48
		C838.46,1150.35,892.44,1096.37,961.06,1096.37z M371.06,1178.11c-21.42,1.08-39.91,21.58-38.8,43
		c1.12,21.42,21.64,39.89,43.05,38.74h272.44c21.59,0.31,41.45-19.27,41.45-40.87c0-21.6-19.86-41.18-41.45-40.87H375.32
		C373.9,1178.04,372.48,1178.04,371.06,1178.11L371.06,1178.11z M330.19,1300.72c-21.42,1.08-39.91,21.58-38.8,43
		c1.12,21.42,21.64,39.89,43.05,38.74h354.17c21.59,0.31,41.45-19.27,41.45-40.87c0-21.6-19.86-41.18-41.45-40.87H334.45
		C333.03,1300.65,331.61,1300.65,330.19,1300.72L330.19,1300.72z M520.9,1573.19c-21.4,1.11-39.85,21.6-38.74,43
		s21.6,39.86,42.99,38.74h163.46c21.58,0.3,41.43-19.28,41.43-40.87c0-21.59-19.84-41.16-41.43-40.87H525.16
		C523.74,1573.13,522.32,1573.13,520.9,1573.19z M330.19,1695.81c-21.4,1.12-39.85,21.6-38.74,43c1.11,21.4,21.6,39.86,42.99,38.74
		h354.17c21.59,0.3,41.44-19.28,41.44-40.87c0-21.59-19.85-41.17-41.44-40.87H334.45C333.03,1695.67,331.61,1695.67,330.19,1695.81z
		 M330.19,1818.42c-21.4,1.12-39.85,21.6-38.74,43c1.11,21.4,21.6,39.86,42.99,38.74h354.17c21.59,0.3,41.44-19.28,41.44-40.87
		c0-21.59-19.85-41.17-41.44-40.87H334.45C333.03,1818.28,331.61,1818.28,330.19,1818.42z"/>
</g>
</svg>
