<?xml version="1.0" encoding="utf-8"?>
<!-- Generator: Adobe Illustrator 25.0.0, SVG Export Plug-In . SVG Version: 6.00 Build 0)  -->
<svg version="1.1" id="Layer_1" xmlns="http://www.w3.org/2000/svg" xmlns:xlink="http://www.w3.org/1999/xlink" x="0px" y="0px"
	 viewBox="0 0 1350 1350" style="enable-background:new 0 0 1350 1350;" xml:space="preserve">
<style type="text/css">
	.st0{fill:#8517FF;}
</style>
<path class="st0" d="M1074.51,1300.94H791.34c-3.91,0-7.08-3.17-7.08-7.08l0,0V811.59c0.01-60.34-48.9-109.26-109.24-109.27
	c-60.34-0.01-109.26,48.9-109.27,109.24c0,0.01,0,0.02,0,0.04v489.36h-6.43H275.49c-3.91,0-7.08-3.17-7.08-7.08l0,0V535.63
	c0-3.91,3.17-7.08,7.08-7.08l0,0h799.02c3.91,0,7.08,3.17,7.08,7.08l0,0v758.23C1081.59,1297.77,1078.42,1300.94,1074.51,1300.94
	L1074.51,1300.94z M796.85,1287.83h271.63V540.22H281.52v747.61h271.63V811.59c0-67.29,54.55-121.85,121.85-121.85
	s121.85,54.55,121.85,121.85l0,0V1287.83z"/>
<rect x="838.56" y="598.71" class="st0" width="12.59" height="695.93"/>
<rect x="498.72" y="598.71" class="st0" width="12.59" height="695.93"/>
<rect x="692.71" y="632.55" class="st0" width="12.59" height="66.5"/>
<rect x="644.57" y="632.55" class="st0" width="12.59" height="66.5"/>
<rect x="277.98" y="1225.66" class="st0" width="222.97" height="12.59"/>
<rect x="849.05" y="1225.66" class="st0" width="222.97" height="12.59"/>
<rect x="277.98" y="1167.95" class="st0" width="222.97" height="12.59"/>
<rect x="849.05" y="1167.95" class="st0" width="222.97" height="12.59"/>
<rect x="277.98" y="864.84" class="st0" width="222.97" height="12.59"/>
<rect x="849.05" y="864.84" class="st0" width="222.97" height="12.59"/>
<path class="st0" d="M1112.15,540.22H237.85c-3.84,0-6.95-3.11-6.95-6.95v-28.2c0-3.84,3.11-6.95,6.95-6.95h874.31
	c3.84,0,6.95,3.11,6.95,6.95v28.59C1118.9,537.34,1115.85,540.22,1112.15,540.22z M243.49,527.1h863.03v-17.05H243.49L243.49,527.1z
	"/>
<path class="st0" d="M1080.15,504.94h-13.12v-92.6h-784.6v92.6h-13.12v-97.32c0-4.35,3.52-7.87,7.87-7.87l0,0h795.09
	c4.35,0,7.87,3.52,7.87,7.87V504.94z"/>
<rect x="275.09" y="591.76" class="st0" width="799.68" height="12.59"/>
<rect x="506.59" y="622.45" class="st0" width="336.82" height="12.59"/>
<path class="st0" d="M1049.46,403.81h-13.12v-56.79H313.13v56.79h-13.12v-61.78c0-4.2,3.4-7.61,7.61-7.61c0.04,0,0.09,0,0.13,0
	h734.49c4.2-0.07,7.66,3.27,7.74,7.48c0,0.04,0,0.09,0,0.13L1049.46,403.81z"/>
<path class="st0" d="M983.88,345.84v-13.12c-2.61,0-4.72,2.11-4.72,4.72c0,0,0,0,0,0V236.19H370.84v101.78
	c0-2.61-2.11-4.72-4.72-4.72c0,0,0,0,0,0v13.12c-4.35,0-7.87-3.52-7.87-7.87l0,0V231.34c0-4.27,3.46-7.74,7.74-7.74
	c0.04,0,0.09,0,0.13,0h617.76c4.27-0.07,7.8,3.33,7.87,7.61c0,0.04,0,0.09,0,0.13v106.63C991.75,342.32,988.23,345.84,983.88,345.84
	z"/>
<path class="st0" d="M951.75,228.84h-13.12V167.2H410.84v61.64h-13.12v-66.37c0-4.35,3.52-7.87,7.87-7.87l0,0h537.75
	c4.35,0,7.87,3.52,7.87,7.87L951.75,228.84z"/>
<path class="st0" d="M879.61,159.86h-13.12v-30.04l-39.35-3.28c-17.97-1.44-34.36-4.07-51.68-6.82
	c-32.81-5.94-66.07-9.06-99.42-9.31c-35.2,0.34-70.31,3.72-104.93,10.1c-17.44,2.75-33.97,5.25-52.46,6.69l-36.2,3.02v29.64h-13.12
	v-34.36c-0.08-4.08,3.02-7.52,7.08-7.87l40.79-3.41c17.44-1.31,33.71-3.93,50.89-6.69c35.64-6.31,71.75-9.6,107.94-9.84
	c34.36,0.23,68.64,3.48,102.44,9.71c17.05,2.75,33.31,5.25,50.76,6.69l43.28,3.67c4.07,0.35,7.17,3.79,7.08,7.87V159.86z"/>
<path class="st0" d="M554.86,121.16l-9.31-8.39c34.52-34.25,81.64-52.75,130.24-51.15c47.7-1.47,94,16.24,128.54,49.18l-9.18,8.66
	c-32.15-30.4-75.14-46.65-119.36-45.12C630.76,72.68,587.03,89.61,554.86,121.16z"/>
<path class="st0" d="M737.3,73.81h-13.12c-2.07-11.8-12.86-20.03-24.79-18.89H650.6c-12.24-1.33-23.35,7.23-25.18,19.41h-13.12
	c1.52-19.5,18.57-34.07,38.06-32.55c0.08,0.01,0.16,0.01,0.23,0.02h48.79C718.64,40.37,735.5,54.6,737.3,73.81z"/>
<path class="st0" d="M397.47,784.83c-26.73,0-48.4-21.67-48.4-48.4c0-26.73,21.67-48.4,48.4-48.4c26.73,0,48.4,21.67,48.4,48.4
	c0,0.17,0,0.35,0,0.52C445.58,763.48,423.99,784.83,397.47,784.83z M397.47,700.63c-19.78,0-35.8,16.03-35.8,35.81
	c0,19.78,16.03,35.8,35.81,35.8c19.57,0,35.51-15.71,35.8-35.28c0.29-19.77-15.5-36.04-35.28-36.33
	C397.82,700.63,397.64,700.63,397.47,700.63z"/>
<path class="st0" d="M956.73,780.63c-24.41,0-44.2-19.79-44.2-44.2c0-24.41,19.79-44.2,44.2-44.2c24.41,0,44.2,19.79,44.2,44.2
	c0,0.17,0,0.35,0,0.52C1000.64,761.16,980.94,780.63,956.73,780.63z M956.73,704.82c-17.46,0-31.61,14.16-31.61,31.61
	c0,17.46,14.16,31.61,31.61,31.61c17.25,0,31.31-13.84,31.6-31.08c0.29-17.46-13.63-31.84-31.08-32.13
	C957.08,704.82,956.91,704.82,956.73,704.82z"/>
<path class="st0" d="M536.1,321.44c-19.78,0-35.81-16.03-35.81-35.81c0-19.78,16.03-35.81,35.81-35.81
	c19.78,0,35.81,16.03,35.81,35.81l0,0C571.91,305.41,555.88,321.44,536.1,321.44z M536.1,262.55
	c-12.82-0.07-23.27,10.26-23.35,23.08c-0.07,12.82,10.26,23.27,23.08,23.35c12.82,0.07,23.27-10.26,23.35-23.08
	c0-0.09,0-0.17,0-0.26C559.11,272.92,548.82,262.62,536.1,262.55z"/>
<path class="st0" d="M813.9,321.44c-19.78,0-35.81-16.03-35.81-35.81c0-19.78,16.03-35.81,35.81-35.81
	c19.78,0,35.81,16.03,35.81,35.81l0,0C849.7,305.41,833.67,321.44,813.9,321.44z M813.9,262.55c-12.82,0-23.22,10.39-23.21,23.22
	s10.39,23.22,23.22,23.21c12.82,0,23.22-10.39,23.21-23.22c0-0.04,0-0.09,0-0.13c0-12.75-10.33-23.08-23.08-23.08
	C813.99,262.55,813.94,262.55,813.9,262.55z"/>
<path class="st0" d="M354.32,593.99H341.2V543.1h-14.56v50.89h-13.12v-56.01c-0.15-3.98,2.96-7.33,6.95-7.47c0.05,0,0.09,0,0.14,0
	h26.23c3.98,0.07,7.16,3.36,7.09,7.34c0,0.05,0,0.09,0,0.14L354.32,593.99z"/>
<path class="st0" d="M429.99,593.99h-13.12V543.1h-14.43v50.89h-13.12v-56.01c-0.15-3.98,2.96-7.33,6.95-7.47c0.05,0,0.09,0,0.14,0
	h26.23c3.98,0.07,7.16,3.36,7.09,7.34c0,0.05,0,0.09,0,0.14L429.99,593.99z"/>
<path class="st0" d="M505.8,593.99h-13.12V543.1h-14.43v50.89h-13.12v-56.01c-0.15-3.98,2.96-7.33,6.95-7.47c0.05,0,0.09,0,0.14,0
	h26.23c3.98,0.07,7.16,3.36,7.09,7.34c0,0.05,0,0.09,0,0.14L505.8,593.99z"/>
<path class="st0" d="M581.48,593.99h-13.12V543.1h-14.43v50.89h-13.12v-56.01c-0.15-3.98,2.96-7.33,6.95-7.47c0.05,0,0.09,0,0.14,0
	h26.23c3.98,0.07,7.16,3.36,7.09,7.34c0,0.05,0,0.09,0,0.14L581.48,593.99z"/>
<path class="st0" d="M657.29,593.99h-13.12V543.1h-14.56v50.89H616.5v-56.01c-0.15-3.98,2.96-7.33,6.95-7.47c0.05,0,0.09,0,0.14,0
	h26.23c3.98,0.07,7.16,3.36,7.09,7.34c0,0.05,0,0.09,0,0.14L657.29,593.99z"/>
<path class="st0" d="M732.97,593.99h-13.12V543.1h-14.43v50.89h-13.12v-56.01c-0.15-3.98,2.96-7.33,6.95-7.47c0.05,0,0.09,0,0.14,0
	h26.23c3.98,0.07,7.16,3.36,7.09,7.34c0,0.05,0,0.09,0,0.14L732.97,593.99z"/>
<path class="st0" d="M808.78,593.99h-13.12V543.1h-14.56v50.89h-13.12v-56.01c-0.15-3.98,2.96-7.33,6.95-7.47c0.05,0,0.09,0,0.14,0
	h26.23c3.98,0.07,7.16,3.36,7.09,7.34c0,0.05,0,0.09,0,0.14L808.78,593.99z"/>
<path class="st0" d="M884.86,593.99h-13.12V543.1h-14.82v50.89H843.8v-56.01c-0.15-3.98,2.96-7.33,6.95-7.47c0.05,0,0.09,0,0.14,0
	h26.23c3.98,0.07,7.16,3.36,7.09,7.34c0,0.05,0,0.09,0,0.14L884.86,593.99z"/>
<path class="st0" d="M960.27,593.99h-13.12V543.1H932.6v50.89h-13.12v-56.01c-0.15-3.98,2.96-7.33,6.95-7.47c0.05,0,0.09,0,0.14,0
	h26.23c3.98,0.07,7.16,3.36,7.09,7.34c0,0.05,0,0.09,0,0.14L960.27,593.99z"/>
<path class="st0" d="M1035.95,593.99h-13.12V543.1h-14.43v50.89h-13.12v-56.01c-0.15-3.98,2.96-7.33,6.95-7.47c0.05,0,0.09,0,0.14,0
	h26.23c3.98,0.07,7.16,3.36,7.09,7.34c0,0.05,0,0.09,0,0.14L1035.95,593.99z"/>
<path class="st0" d="M730.35,317.25H625.42c-17.42-1.12-30.63-16.16-29.51-33.58c1.02-15.85,13.65-28.49,29.51-29.51h104.93
	c17.42-1.12,32.45,12.09,33.58,29.51c1.12,17.42-12.09,32.46-29.51,33.58C733.06,317.33,731.7,317.33,730.35,317.25z M625.42,266.75
	c-10.47,0.87-18.25,10.06-17.37,20.53c0.77,9.26,8.12,16.6,17.37,17.37h104.93c10.47,0.87,19.66-6.91,20.53-17.37
	c0.87-10.47-6.91-19.66-17.37-20.53c-1.05-0.09-2.11-0.09-3.16,0H625.42z"/>
</svg>
