<?xml version="1.0" encoding="utf-8"?>
<!-- Generator: Adobe Illustrator 25.0.0, SVG Export Plug-In . SVG Version: 6.00 Build 0)  -->
<svg version="1.1" id="Layer_1" xmlns="http://www.w3.org/2000/svg" xmlns:xlink="http://www.w3.org/1999/xlink" x="0px" y="0px"
	 viewBox="0 0 1350 1350" style="enable-background:new 0 0 1350 1350;" xml:space="preserve">
<g>
	<g>
		<path d="M777.78,101.34H574.61L409.68,220.85l-62.15,193.61l62.15,193.61l164.93,119.51h203.17l164.93-119.51l62.15-193.61
			l-62.15-193.61L777.78,101.34z M914.03,369.05l-66.93,66.93c-26.29,26.29-35.85,62.15-31.07,98l16.73,93.22
			c2.39,11.95-9.56,21.51-21.51,14.34l-64.54-31.07c-45.42-23.9-98-21.51-143.42,2.39l-62.15,33.46
			c-9.56,4.78-23.9-2.39-21.51-14.34l14.34-93.22c4.78-35.85-7.17-71.71-33.46-98l-64.54-64.54c-9.56-7.17-4.78-21.51,7.17-23.9
			l90.83-14.34c35.85-7.17,69.32-28.68,83.66-64.54l40.63-83.66c4.78-9.56,19.12-11.95,26.29,0l43.02,83.66
			c16.73,33.46,50.2,54.98,86.05,59.76l93.22,11.95C918.81,345.14,923.59,359.49,914.03,369.05z"/>
		<path d="M1045.49,294.95l-83.66-88.44l-57.37-105.17l-119.51-23.9L675,27.24l-109.95,50.2l-119.51,23.9l-57.37,105.17
			l-83.66,88.44l14.34,119.51l-14.34,119.51l83.66,88.44l57.37,105.17l119.51,23.9L675,804.07l109.95-52.59l119.51-23.9
			l57.37-105.17l83.66-88.44l-14.34-119.51L1045.49,294.95z M961.83,624.8L784.95,753.88h-219.9L388.17,624.8l-66.93-207.95
			l66.93-207.95L565.05,77.43h219.9l176.88,129.07l66.93,207.95L961.83,624.8z"/>
	</g>
	<g>
		<polygon points="543.54,818.42 538.76,816.03 404.9,789.73 304.51,1255.83 443.14,1186.52 519.63,1322.76 622.41,854.27 
			548.32,818.42 		"/>
		<polygon points="811.24,816.03 806.46,818.42 801.68,818.42 727.59,854.27 830.37,1322.76 906.86,1186.52 1045.49,1255.83 
			945.1,789.73 		"/>
	</g>
</g>
</svg>
