<?xml version="1.0" encoding="utf-8"?>
<!-- Generator: Adobe Illustrator 25.0.0, SVG Export Plug-In . SVG Version: 6.00 Build 0)  -->
<svg version="1.1" id="Layer_1" xmlns="http://www.w3.org/2000/svg" xmlns:xlink="http://www.w3.org/1999/xlink" x="0px" y="0px"
	 viewBox="0 0 1350 1350" style="enable-background:new 0 0 1350 1350;" xml:space="preserve">
<g>
	<path d="M99.1,748.62h130.15c23.88,0,45.41,11.14,59.62,29.9c91.56-66.79,202.24-41.61,296.6,5.32
		c76.43-11.3,300.62-46.21,344.56,39.54c5.23,10.23,3.11,22.3-4.38,30.19c-80.56,84.55-202.83,105.73-314.79,105.05l-1.27,7.84
		c62.72,1.35,242.12,3.29,291.57-35.11c1.8-1.39,3.72-2.52,5.71-3.4l318.6-170.06c4.32-2.3,9-3.29,13.57-3.08
		c29.53,1.35,72.65,6.82,84.08,39.37c11.47,32.67-18.97,64.14-41.11,83.89c-1.72,1.52-3.57,2.79-5.52,3.79l-425.11,254.6
		c-4.62,2.75-9.73,3.94-14.72,3.71l-537.83-17.39c-11.17,28.34-38.73,47.59-69.56,47.59H99.1c-40.98,0-74.7-33.69-74.7-74.69V823.33
		C24.4,782.19,57.96,748.62,99.1,748.62L99.1,748.62z M547.98,563.62V535.7c-40.72-5.1-64.42-25.13-67.52-67.83l27.9-5.38
		c3.3,23.08,13.18,46.96,39.62,49.76v-87.55c-34.16-8.83-62.76-26.23-62.76-64.99c0-39.43,25.91-59.65,62.76-63.36v-13.32h16.49
		v13.32c33.5,3.19,55.46,22.08,60.23,56.13l-28.53,4.43c-2.91-19.58-11.5-32.89-31.7-37.09v80.32
		c36.66,9.39,65.94,22.52,65.94,66.25c0,39.04-27.02,67.1-65.94,69.01v28.21H547.98L547.98,563.62z M547.98,319.51
		c-19.97,3.02-34.86,17.17-34.86,37.98c0,22.82,14.29,33.1,34.86,38.42V319.51z M564.48,512.24c22.88-2.77,37.41-21.33,37.41-43.96
		c0-25.57-14.72-33.49-37.41-39.37V512.24z M555.43,179.64c134.42,0,243.67,109.26,243.67,243.67S689.85,666.99,555.43,666.99
		S311.76,557.73,311.76,423.31S421.02,179.64,555.43,179.64L555.43,179.64z M555.43,232.63c-105.47,0-190.69,85.22-190.69,190.69
		S449.96,614,555.43,614s190.69-85.22,190.69-190.69S660.9,232.63,555.43,232.63L555.43,232.63z M303.95,834.44v235.68l526.94,17.04
		l417.52-250.04c10.91-9.87,18.31-18.07,22.14-24.55c-6.07-2.19-15.02-3.74-26.84-4.6L932.12,974.3
		c-69.87,52.09-268.18,46.88-353.26,44.14c-16.48-1.27-28.95-13.33-26.21-30.56l9.65-60.25c2.05-12.94,13.47-22.66,26.91-22.24
		c93.61,3,204.58-8.34,279.38-70.67c-57.85-29.03-222.28-6.57-283.56,2.71c-5.32,0.75-10.91-0.05-16.04-2.69
		C484.05,791.05,382.36,762.55,303.95,834.44L303.95,834.44z M250.95,823.33c0.3-11.86-10.03-21.72-21.7-21.72H99.1
		c-11.88,0-21.72,9.84-21.72,21.72v272.34c0,12.03,9.69,21.7,21.72,21.7h130.15c12.03,0,21.72-9.67,21.72-21.7L250.95,823.33
		L250.95,823.33z"/>
</g>
</svg>
