<?xml version="1.0" encoding="utf-8"?>
<!-- Generator: Adobe Illustrator 25.0.0, SVG Export Plug-In . SVG Version: 6.00 Build 0)  -->
<svg version="1.1" id="Layer_1" xmlns="http://www.w3.org/2000/svg" xmlns:xlink="http://www.w3.org/1999/xlink" x="0px" y="0px"
	 viewBox="0 0 1350 1350" style="enable-background:new 0 0 1350 1350;" xml:space="preserve">
<g>
	<path d="M964.14,192.56H739.36c-26.04-37.01-64.42-63.05-108.27-74.01c-6.85-45.23-46.6-80.86-94.57-80.86
		s-87.72,35.63-94.57,80.86c-43.86,10.96-80.86,37.01-108.27,74.01h-223.4c-10.96,0-20.56,9.59-20.56,20.56v1078.64
		c0,10.96,9.59,20.56,20.56,20.56h853.86c10.96,0,20.56-9.59,20.56-20.56V213.12C984.69,200.78,975.1,192.56,964.14,192.56z
		 M466.62,155.56c9.59-1.37,17.82-10.96,17.82-20.56v-1.37c0-30.15,24.67-54.82,54.82-54.82c30.15,0,54.82,24.67,54.82,54.82V135
		c0,10.96,6.85,19.19,17.82,20.56c42.49,6.85,79.49,31.52,102.79,68.53c10.96,17.82,17.82,37.01,21.93,57.56H341.9
		c2.74-20.56,9.59-39.75,21.93-57.56C385.76,187.08,424.13,162.41,466.62,155.56z M943.58,1271.2H130.83V233.68h180.91v1.37
		c-1.37,5.48-4.11,9.59-5.48,15.08l0,0c-1.37,5.48-2.74,9.59-4.11,15.08c0,1.37,0,2.74-1.37,4.11c0,4.11-1.37,8.22-1.37,10.96
		c0,1.37,0,2.74,0,4.11c0,5.48-1.37,10.96-1.37,16.45c0,10.96,9.59,20.56,20.56,20.56h434.47c10.96,0,20.56-9.59,20.56-20.56
		c0-5.48,0-10.96-1.37-16.45c0-1.37,0-2.74,0-4.11c0-4.11-1.37-8.22-1.37-10.96c0-1.37,0-2.74-1.37-4.11
		c-1.37-5.48-2.74-10.96-4.11-15.08l0,0c-1.37-5.48-2.74-9.59-5.48-15.08v-1.37h180.91V1271.2H943.58z"/>
	<path d="M1154.64,259.72c-58.93,0-108.27,47.97-108.27,108.27v668.84c0,1.37,0,2.74,0,5.48v1.37c0,1.37,1.37,2.74,1.37,4.11
		c0,0,0,0,0,1.37l87.72,150.76c4.11,6.85,10.96,9.59,17.82,9.59c6.85,0,13.71-4.11,17.82-9.59l87.72-150.76c0,0,0,0,0-1.37
		c0-1.37,1.37-2.74,1.37-4.11v-1.37c0-1.37,0-2.74,0-5.48V367.99C1262.92,309.06,1213.58,259.72,1154.64,259.72z M1087.49,1016.27
		V428.3h134.32v586.6h-134.32V1016.27z M1154.64,300.84c37.01,0,67.16,30.15,67.16,67.16v19.19h-134.32v-19.19
		C1087.49,330.99,1117.64,300.84,1154.64,300.84z M1154.64,1146.47l-52.08-89.09h102.79L1154.64,1146.47z"/>
	<path d="M372.05,983.38H237.73c-10.96,0-20.56,9.59-20.56,20.56v134.32c0,10.96,9.59,20.56,20.56,20.56h134.32
		c10.96,0,20.56-9.59,20.56-20.56v-134.32C392.61,992.97,384.39,983.38,372.05,983.38z M351.49,1117.69h-93.2v-93.2h93.2V1117.69z"
		/>
	<path d="M372.05,435.15H237.73c-10.96,0-20.56,9.59-20.56,20.56v134.32c0,10.96,9.59,20.56,20.56,20.56h134.32
		c10.96,0,20.56-9.59,20.56-20.56V455.71C392.61,444.74,384.39,435.15,372.05,435.15z M351.49,569.47h-93.2v-93.2h93.2V569.47z"/>
	<path d="M372.05,709.26H237.73c-10.96,0-20.56,9.59-20.56,20.56v134.32c0,10.96,9.59,20.56,20.56,20.56h134.32
		c10.96,0,20.56-9.59,20.56-20.56V729.82C392.61,718.86,384.39,709.26,372.05,709.26z M351.49,843.58h-93.2v-93.2h93.2V843.58z"/>
	<path d="M436.47,522.87c0,10.96,9.59,20.56,20.56,20.56h381.02c10.96,0,20.56-9.59,20.56-20.56c0-10.96-9.59-20.56-20.56-20.56
		H457.03C446.06,502.31,436.47,511.9,436.47,522.87z"/>
	<path d="M838.04,776.42H457.03c-10.96,0-20.56,9.59-20.56,20.56c0,10.96,9.59,20.56,20.56,20.56h381.02
		c10.96,0,20.56-9.59,20.56-20.56C858.6,786.02,849.01,776.42,838.04,776.42z"/>
	<path d="M838.04,1050.54H457.03c-10.96,0-20.56,9.59-20.56,20.56s9.59,20.56,20.56,20.56h381.02c10.96,0,20.56-9.59,20.56-20.56
		S849.01,1050.54,838.04,1050.54z"/>
</g>
</svg>
