<?xml version="1.0" encoding="utf-8"?>
<!-- Generator: Adobe Illustrator 25.0.0, SVG Export Plug-In . SVG Version: 6.00 Build 0)  -->
<svg version="1.1" id="Layer_1" xmlns="http://www.w3.org/2000/svg" xmlns:xlink="http://www.w3.org/1999/xlink" x="0px" y="0px"
	 viewBox="0 0 1350 1350" style="enable-background:new 0 0 1350 1350;" xml:space="preserve">
<g>
	<path d="M1314.26,600.75h-26.69v-55.59c-0.16-23.5-19.23-42.48-42.73-42.53h-36.83V187.11c0.16-27.67-22.13-50.23-49.8-50.4
		c-26.25-0.16-48.17,19.98-50.24,46.15l-185.4-55.7c-7.58-2.27-15.67,1.38-18.98,8.57l-13.63,29.56c-3.18,6.91-1.02,15.1,5.14,19.55
		v145.43h-13.43c-8.79,0-15.74,8.13-15.74,16.92v32.43c-0.07,11.56,4.59,22.64,12.89,30.68l18.93,18.3v26.85
		c0.07,8.82,7.24,15.92,16.06,15.91c8.51-0.1,15.5,6.7,15.65,15.21c0.19,8.21-6.31,15.02-14.51,15.21c-0.11,0-0.22,0-0.34,0
		c-8.48,0.04-15.38-6.79-15.43-15.27c0-8.79-7.12-15.91-15.91-15.91c-8.79,0-15.91,7.12-15.91,15.91
		c-0.07,25.92,20.88,47,46.8,47.07c25.92,0.07,47-20.88,47.07-46.8c0.06-20.08-12.67-37.97-31.65-44.51v-13.03l19.98-19.41h0.68
		c8.54-7.76,13.53-18.67,13.81-30.21v-32.43c-0.49-9.22-7.91-16.54-17.14-16.92h-19.99V202.55l180.32,99.9v200.18h-35.47
		c-23.05,0.16-41.6,18.97-41.44,42.01c0,0.17,0,0.35,0.01,0.52v55.59h-27.45c-4.78,0-9.31,2.15-12.33,5.86l-73.01,89.6h-78.14
		V478.45c0.06-8.55-6.81-15.53-15.36-15.59c-0.12,0-0.24,0-0.36,0H722.73V244.53c-0.13-8.44-7.08-15.18-15.52-15.04
		c-0.17,0-0.34,0.01-0.51,0.02H239.25c-7.98-0.33-14.72,5.87-15.05,13.85c-0.02,0.39-0.02,0.78,0,1.17v218.33H122.25
		c-8.79,0-14.74,6.81-14.74,15.59v217.77h-64.8c-8.26-0.52-15.38,5.76-15.9,14.03c-0.1,1.55,0.05,3.11,0.43,4.61l62.65,261.51
		c-13.97,9.89-29.99,16.71-54.15,16.71c-8.79,0-15.91,7.12-15.91,15.91s7.12,15.91,15.91,15.91c49.36,0,74.75-22.81,97.15-42.92
		c20.78-18.66,38.72-34.77,75.89-34.77s55.12,16.11,75.9,34.77c22.41,20.12,47.8,42.92,97.15,42.92s74.75-22.81,97.15-42.92
		c20.78-18.66,38.72-34.77,75.89-34.77s55.11,16.11,75.89,34.77c22.41,20.12,47.8,42.92,97.15,42.92
		c49.35,0,74.74-22.81,97.14-42.92c20.78-18.66,38.72-34.77,75.88-34.77c37.16,0,55.1,16.11,75.88,34.77
		c22.4,20.12,47.79,42.92,97.14,42.92s74.75-22.81,97.15-42.92c20.78-18.66,38.72-34.77,75.89-34.77c8.79,0,15.91-7.12,15.91-15.91
		c0-8.79-7.12-15.91-15.91-15.91c-11.05-0.08-22.07,1.22-32.8,3.87l114.92-298.17c1.89-4.68,1.24-9.99-1.73-14.08
		C1324.33,602.84,1319.4,600.5,1314.26,600.75z M1139.06,187.11c0-10.25,8.31-18.56,18.56-18.56c10.25,0,18.56,8.31,18.56,18.56
		v315.52h-37.13V187.11z M932.22,362.09v17.53c-0.35,3.33-1.71,6.47-3.9,8.99h-0.31l-13.58,12.16l-13.42-13.16
		c-2.1-2.13-3.27-5.01-3.27-8v-17.53H932.22z M924.74,165.19l1.48-3.57l181.02,54.42v50.07L924.74,165.19z M1062.16,545.16
		c-0.45-5.45,3.61-10.23,9.06-10.68c0.18-0.02,0.37-0.02,0.55-0.03h173.06c5.93,0.03,10.77,4.78,10.9,10.71v55.59h-193.58V545.16z
		 M727.42,550.72c2.12,1,4.44,1.53,6.78,1.52c2.88,0,5.69-0.86,8.08-2.47c4.5-2.97,7.13-8.05,6.96-13.44v-41.65h58.34v201.54H606.05
		V494.68h58.34v41.65c-0.2,8.59,6.59,15.71,15.18,15.92c2.46,0.06,4.9-0.47,7.11-1.53l20.35-9.65L727.42,550.72z M696.21,494.68
		h21.21v16.54l-4.09-2.12c-4.13-2.03-8.97-2.03-13.11,0l-4.02,2.12L696.21,494.68z M579.53,261.32h21.21v15.97l-4.24-2.12
		c-4.1-2.03-8.92-2.03-13.03,0l-3.94,2.12L579.53,261.32z M489.37,261.32h58.34v41.09c-0.17,5.38,2.46,10.47,6.96,13.44
		c2.47,1.61,5.35,2.47,8.29,2.47c2.32,0,4.6-0.52,6.69-1.52l20.37-9.65l20.4,9.65c4.83,2.33,10.53,1.97,15.03-0.95
		c4.54-2.95,7.23-8.03,7.12-13.44v-41.09h58.34v201.54H489.37V261.32z M437.83,549.77c4.5,2.92,10.19,3.28,15.02,0.95l20.27-9.65
		l20.35,9.65c2.11,1,4.42,1.53,6.76,1.52c2.98,0,5.89-0.86,8.39-2.47c4.57-2.93,7.32-8.01,7.27-13.44v-41.65h58.34v201.54H372.69
		V494.68h58.34v41.65C430.8,541.69,433.38,546.78,437.83,549.77z M462.86,494.68h21.21v16.54l-4.4-2.12
		c-4.08-2.03-8.87-2.03-12.95,0l-3.86,2.12V494.68z M343.52,261.32h23.87v15.97l-4.57-2.12c-4.51-2.03-9.68-2.03-14.19,0l-5.11,2.12
		V261.32z M256.01,261.32h55.69v41.09c0.22,5.53,3.21,10.58,7.96,13.44c2.65,1.62,5.7,2.47,8.8,2.47c2.4,0,4.76-0.52,6.94-1.52
		l20.49-9.65l20.46,9.65c8,3.78,17.55,0.35,21.33-7.65c1-2.11,1.52-4.41,1.53-6.74v-41.09h58.34v201.54H256.01V261.32z
		 M226.84,494.68h23.87v16.54l-4.72-2.12c-4.48-2.03-9.63-2.03-14.11,0l-5.04,2.12L226.84,494.68z M139.34,494.68h55.69v41.65
		c0.31,9.09,7.93,16.2,17.01,15.89c2.19-0.07,4.34-0.58,6.32-1.5l20.52-9.65l20.47,9.65c2.13,1,4.46,1.53,6.82,1.52
		c3.09,0,6.12-0.85,8.75-2.47c4.65-2.9,7.52-7.96,7.6-13.44v-41.65h58.34v201.54H139.34V494.68z M1223.13,807.59H401.86
		c-8.79,0-15.91,7.12-15.91,15.91c0,8.79,7.12,15.91,15.91,15.91h808.99l-38.57,100.08c-8.19,6.02-15.46,12.54-22.44,18.81
		c-20.78,18.66-38.72,34.78-75.89,34.78s-55.1-16.11-75.88-34.77c-22.4-20.12-47.79-42.92-97.14-42.92s-74.74,22.81-97.14,42.92
		c-20.78,18.66-38.72,34.77-75.88,34.77c-37.16,0-55.11-16.11-75.89-34.77c-22.4-20.12-47.8-42.92-97.15-42.92
		s-74.75,22.81-97.15,42.92c-20.78,18.66-38.72,34.78-75.89,34.78s-55.12-16.11-75.89-34.78c-22.41-20.12-47.8-42.92-97.16-42.92
		c-45.37,0-70.48,19.27-91.65,38.01L89.86,839.41h205.93c8.79,0,15.91-7.12,15.91-15.91c0-8.79-7.12-15.91-15.91-15.91H82.24
		l-19.36-79.55h862.22c4.78,0,9.31-2.15,12.34-5.86l73.01-89.6h280.62L1223.13,807.59z"/>
	<path d="M402.61,592.79c0,8.79,7.12,15.91,15.91,15.91l0,0h110.4c8.79,0,15.91-7.12,15.91-15.91s-7.12-15.91-15.91-15.91h-110.4
		C409.74,576.88,402.61,584.01,402.61,592.79z"/>
	<path d="M528.93,624.62H417.02c-8.79,0-15.91,7.12-15.91,15.91s7.12,15.91,15.91,15.91h111.91c8.79,0,15.91-7.12,15.91-15.91
		S537.71,624.62,528.93,624.62z"/>
	<path d="M294.94,576.88h-110.4c-8.79,0-15.91,7.12-15.91,15.91s7.12,15.91,15.91,15.91h110.4c8.79,0,15.91-7.12,15.91-15.91
		S303.72,576.88,294.94,576.88z"/>
	<path d="M294.94,624.62H183.03c-8.79,0-15.91,7.12-15.91,15.91s7.12,15.91,15.91,15.91h111.91c8.79,0,15.91-7.12,15.91-15.91
		S303.72,624.62,294.94,624.62z"/>
	<path d="M636.61,592.79c0,8.79,7.12,15.91,15.91,15.91l0,0h110.4c8.79,0,15.91-7.12,15.91-15.91s-7.12-15.91-15.91-15.91h-110.4
		C643.73,576.88,636.61,584.01,636.61,592.79z"/>
	<path d="M762.92,624.62H651.01c-8.79,0-15.91,7.12-15.91,15.91s7.12,15.91,15.91,15.91h111.91c8.79,0,15.91-7.12,15.91-15.91
		S771.71,624.62,762.92,624.62z"/>
	<path d="M645.92,343.53H535.51c-8.79,0-15.91,7.12-15.91,15.91s7.12,15.91,15.91,15.91h110.4c8.79,0,15.91-7.12,15.91-15.91
		S654.7,343.53,645.92,343.53L645.92,343.53z"/>
	<path d="M645.92,391.26H534.02c-8.79,0-15.91,7.12-15.91,15.91s7.12,15.91,15.91,15.91h111.91c8.79,0,15.91-7.12,15.91-15.91
		S654.71,391.26,645.92,391.26z"/>
	<path d="M411.94,343.53H301.53c-8.79,0-15.91,7.12-15.91,15.91s7.12,15.91,15.91,15.91h110.41c8.79,0,15.91-7.12,15.91-15.91
		S420.73,343.53,411.94,343.53z"/>
	<path d="M411.94,391.26H300.03c-8.79,0-15.91,7.12-15.91,15.91s7.12,15.91,15.91,15.91h111.91c8.79,0,15.91-7.12,15.91-15.91
		S420.73,391.26,411.94,391.26z"/>
	<path d="M943.26,751.9H662.16c-8.79,0-15.91,7.12-15.91,15.91s7.12,15.91,15.91,15.91h281.09c8.79,0,15.91-7.12,15.91-15.91
		S952.04,751.9,943.26,751.9z"/>
	<path d="M988.34,767.81c0,8.79,7.12,15.91,15.91,15.91h101.38c8.79,0,15.91-7.12,15.91-15.91s-7.12-15.91-15.91-15.91h-101.38
		C995.47,751.9,988.34,759.03,988.34,767.81z"/>
	<path d="M1167.35,783.72h15.47c8.79,0,15.91-7.12,15.91-15.91s-7.12-15.91-15.91-15.91h-15.48c-8.79,0-15.91,7.12-15.91,15.91
		s7.12,15.91,15.91,15.91H1167.35z"/>
	<path d="M1246.99,1014.7c-49.36,0-74.75,22.81-97.15,42.92c-20.78,18.66-38.72,34.78-75.89,34.78c-37.17,0-55.1-16.11-75.88-34.77
		c-22.41-20.11-47.79-42.92-97.14-42.92c-49.35,0-74.74,22.81-97.14,42.92c-20.78,18.66-38.72,34.77-75.88,34.77
		c-37.16,0-55.11-16.11-75.89-34.77c-22.4-20.11-47.8-42.92-97.15-42.92s-74.75,22.81-97.15,42.92
		c-20.78,18.66-38.72,34.78-75.89,34.78s-55.12-16.11-75.89-34.78c-22.4-20.11-47.8-42.92-97.15-42.92s-74.75,22.81-97.15,42.91
		c-20.78,18.66-38.72,34.78-75.89,34.78c-8.79,0-15.91,7.12-15.91,15.91c0,8.79,7.12,15.91,15.91,15.91
		c49.36,0,74.75-22.81,97.15-42.92c20.78-18.66,38.72-34.77,75.89-34.77s55.12,16.11,75.9,34.77c22.41,20.12,47.8,42.92,97.15,42.92
		s74.75-22.81,97.15-42.92c20.78-18.66,38.72-34.77,75.89-34.77s55.11,16.11,75.89,34.77c22.41,20.12,47.8,42.92,97.15,42.92
		c49.35,0,74.74-22.81,97.14-42.92c20.78-18.66,38.72-34.77,75.88-34.77c37.16,0,55.1,16.11,75.88,34.77
		c22.4,20.12,47.79,42.92,97.14,42.92s74.75-22.81,97.15-42.92c20.78-18.66,38.72-34.77,75.89-34.77c8.79,0,15.91-7.12,15.91-15.91
		C1262.9,1021.81,1255.78,1014.69,1246.99,1014.7L1246.99,1014.7z"/>
	<path d="M1246.99,1114c-49.36,0-74.75,22.81-97.15,42.92c-20.78,18.66-38.72,34.77-75.89,34.77c-37.17,0-55.1-16.11-75.88-34.77
		c-22.4-20.11-47.79-42.92-97.14-42.92s-74.74,22.81-97.14,42.92c-20.78,18.66-38.72,34.77-75.88,34.77
		c-37.16,0-55.11-16.11-75.89-34.77c-22.4-20.12-47.8-42.92-97.15-42.92s-74.75,22.81-97.15,42.92
		c-20.78,18.66-38.72,34.77-75.89,34.77s-55.12-16.11-75.89-34.77c-22.41-20.12-47.8-42.92-97.16-42.92s-74.75,22.8-97.16,42.92
		c-20.78,18.66-38.72,34.77-75.89,34.77c-8.79,0-15.91,7.12-15.91,15.91s7.12,15.91,15.91,15.91c49.35,0,74.75-22.81,97.15-42.92
		c20.78-18.66,38.72-34.77,75.89-34.77s55.12,16.11,75.9,34.77c22.41,20.12,47.8,42.92,97.15,42.92s74.75-22.81,97.15-42.92
		c20.78-18.66,38.72-34.77,75.89-34.77s55.11,16.11,75.89,34.77c22.41,20.12,47.8,42.92,97.15,42.92
		c49.35,0,74.74-22.81,97.14-42.92c20.78-18.66,38.72-34.77,75.88-34.77c37.16,0,55.1,16.11,75.88,34.77
		c22.4,20.12,47.79,42.92,97.14,42.92s74.75-22.81,97.15-42.92c20.78-18.66,38.72-34.77,75.89-34.77c8.79,0,15.91-7.12,15.91-15.91
		C1262.9,1121.12,1255.78,1114,1246.99,1114L1246.99,1114z"/>
</g>
</svg>
