<?xml version="1.0" encoding="utf-8"?>
<!-- Generator: Adobe Illustrator 25.0.0, SVG Export Plug-In . SVG Version: 6.00 Build 0)  -->
<svg version="1.1" id="Layer_1" xmlns="http://www.w3.org/2000/svg" xmlns:xlink="http://www.w3.org/1999/xlink" x="0px" y="0px"
	 viewBox="0 0 1350 1350" style="enable-background:new 0 0 1350 1350;" xml:space="preserve">
<style type="text/css">
	.st0{fill:#8517FF;}
</style>
<g transform="translate(0,-284.29998)">
	<path class="st0" d="M458.68,319.26c-9.41,12.24-17.1,25.72-22.84,40.06c-40.3-2.96-80.73,3.54-118.07,18.98l-61.72-31.76v68.01
		c-60.82,48.12-96.93,120.94-98.41,198.48c-3.05,69.47-26.4,136.52-67.16,192.85h61.99L92.53,936.91h58.64
		c-1.18,52.76-33.18,99.92-81.76,120.52l33.46,66.82h51.88v219.44c-0.01,117.17,84.2,217.39,199.61,237.57H191.69
		c-4.99,0.23-8.85,4.46-8.62,9.45c0.21,4.67,3.95,8.41,8.62,8.62h432.97c4.99-0.23,8.85-4.46,8.62-9.45
		c-0.21-4.67-3.95-8.41-8.62-8.62H437.43c131.19-22.95,218.94-147.91,195.99-279.1c-3.89-22.21-10.87-43.77-20.74-64.04
		c-5.09-10.48-8.5-21.7-10.12-33.24c-17.87-126.46,34.54-252.61,136.76-329.17c6.66-4.97,8.04-14.4,3.07-21.06
		c-2.06-2.77-5.01-4.73-8.34-5.59c-56.47-14.37-116.42-1.44-161.94,34.95v-77.11c17.82,2.12,35.75,3.07,53.69,2.85
		c29.32-0.9,52.36-25.4,51.46-54.72c-0.87-28.48-24.07-51.2-52.56-51.48h-46.14c-15.6-0.03-28.22-12.7-28.19-28.29
		c0.03-15.6,12.7-28.22,28.3-28.19c6.97,0.01,13.7,2.6,18.87,7.28l0,0c25.99,23.55,66.15,21.58,89.7-4.41
		c9.21-10.16,14.88-23.02,16.17-36.67h17.1c19.88-17.29,28.23-44.35,21.54-69.83c-3.5-13.38-13.8-23.93-27.1-27.73l-81.88-23.3
		c-5.71-36.11-31.73-65.7-66.82-75.97c-46.88-17.64-85.36-52.35-107.74-97.16L458.68,319.26z M457.58,353.76
		c25.21,36.48,61.01,64.35,102.57,79.83c27.68,7.86,48.6,30.58,54.15,58.81h-74.28v18.07h90.3l79.43,22.56
		c7.17,2.05,12.72,7.73,14.6,14.94l0,0c4.36,16.64,0.07,34.36-11.42,47.16h-29.2c6.72,24.18-7.43,49.23-31.61,55.95
		c-7.41,2.06-15.23,2.2-22.72,0.42c1.72-45.38-33.68-83.57-79.07-85.28c-3.06-0.12-6.12-0.06-9.17,0.16l-23.01-19.55l-11.7,13.75
		l29.09,24.72c34.85-6.45,68.33,16.58,74.77,51.43c0.35,1.88,0.61,3.77,0.79,5.67c-0.56-0.48-1.11-0.98-1.65-1.48
		c-18.99-17.13-48.27-15.63-65.4,3.36c-17.13,18.99-15.63,48.27,3.36,65.4c8.49,7.66,19.52,11.91,30.95,11.93h46.14
		c19.35,0.49,34.63,16.58,34.14,35.92c-0.47,18.65-15.48,33.67-34.14,34.14c-47.78,0.61-95.27-7.52-140.13-23.98
		c-0.5-110.07-13.86-219.7-39.83-326.67c-3.76-15.44-4.17-31.5-1.21-47.1c2.66-13.97,7.29-27.5,13.74-40.17L457.58,353.76z
		 M273.99,376.14l42.96,22.16c35.34-16.07,74.03-23.38,112.79-21.31c-1.25,4.48-2.31,9.01-3.19,13.58
		c-3.47,18.13-3.02,36.78,1.32,54.72c38.87,160.23,49.01,326.09,29.94,489.86c-2.43,22.3-10.21,43.68-22.67,62.33l-50.85-48.41
		l-12.45,13.07l65.35,62.22c21.56-24.37,35.04-54.82,38.58-87.17l0,0c5.82-49.89,8.98-100.06,9.46-150.29
		c22.34,7.78,45.3,13.62,68.65,17.44v96.26c-5.45,5.67-10.54,11.69-15.23,18.01c-32.31,64.79-52.29,135.02-58.93,207.11
		c-43.21-43.02-113.11-42.86-156.13,0.35c-15.75,15.82-26.34,36.05-30.36,58.01c-17.25,16.92-25.57,40.93-22.5,64.89
		c-21.06,22.44-26.25,55.48-13.07,83.3l16.36-7.73c-13.45-28.35-1.36-62.24,26.99-75.68c21.01-9.97,45.98-6.12,63.02,9.71
		c-24.91,37.35-14.82,87.82,22.54,112.73c37.35,24.91,87.82,14.81,112.73-22.54c24.91-37.35,14.82-87.82-22.54-112.73
		c-15.94-10.62-35.11-15.28-54.15-13.15c-9.03-41.64-50.1-68.07-91.74-59.04c-4.86,1.05-9.61,2.58-14.18,4.55
		c19.67-47.05,73.75-69.25,120.8-49.59c17.23,7.2,31.88,19.46,42,35.16c2.71,4.18,8.31,5.38,12.49,2.66
		c2.41-1.56,3.93-4.17,4.1-7.04c4.05-76.99,23.8-152.34,58.01-221.44c39.32-52.13,105.3-76.73,169.16-63.07
		c-104.29,80.96-157.24,211.56-138.76,342.29c1.9,13.4,5.89,26.42,11.82,38.58c53.94,110.77,7.88,244.3-102.9,298.25
		s-244.3,7.88-298.25-102.89c-14.81-30.41-22.51-63.79-22.52-97.62v-237.46H113.9l-20.4-40.79c51.51-29.99,80.78-87.29,74.89-146.6
		h-47.91l59.95-131.03h-56.7c31.35-52.92,49.15-112.76,51.82-174.22c1.37-75.25,37.76-145.56,98.41-190.12L273.99,376.14z
		 M344.85,1180.22c28.74-1.17,54.15,18.52,60.18,46.65c-10.95,3.79-20.97,9.87-29.38,17.84c-23.98-21.73-59.2-25.61-87.33-9.6
		C290.43,1205.09,314.77,1181.45,344.85,1180.22L344.85,1180.22z M430.31,1239.94c34.91-0.73,63.8,26.98,64.53,61.89
		c0.01,0.62,0.02,1.24,0.01,1.86c0.25,34.93-27.87,63.44-62.79,63.69s-63.44-27.86-63.69-62.79c0-0.3,0-0.6,0-0.9
		C368.08,1269.07,395.69,1240.65,430.31,1239.94z"/>
	<path class="st0" d="M368.06,440.89c-42.55,58.56-50.47,135.43-20.75,201.44c2.35,5.18,4.3,10.53,5.83,16.01
		c21.04,76.06,27.01,155.5,17.55,233.85h-61.64c6.88-22.82,10.04-46.6,9.35-70.43l-18.04,0.77c0.86,30.24-5.03,60.3-17.24,87.98
		h31.8v111.84c-28.04-10.61-58.82-11.59-87.48-2.77l47.95-354.7l-17.89-2.39l-52.33,386.95c39.32-24.59,89.46-23.62,127.8,2.46
		v-141.4h53.49c12.6-85.75,7.16-173.18-15.94-256.71c-1.76-6.37-4-12.6-6.71-18.63c-27.07-60.11-19.86-130.1,18.89-183.43
		L368.06,440.89z"/>
	<path class="st0" d="M777.36,668.04h39.09v40.87h-39.09V668.04z"/>
	<path class="st0" d="M860.43,675.51l38.89,3.85L895.25,720l-38.9-3.85L860.43,675.51z"/>
	<path class="st0" d="M941.86,691.37l38.1,8.7l-9.13,39.8l-38.09-8.7L941.86,691.37z"/>
	<path class="st0" d="M1023.77,717.46l34.03,19.17l-20.07,35.56l-34.03-19.17L1023.77,717.46z"/>
	<path class="st0" d="M1096.1,758.26l32.39,21.86l-22.86,33.87l-32.39-21.86L1096.1,758.26z"/>
	<path class="st0" d="M1162.66,815.22l25.72,29.4l-30.75,26.86l-25.72-29.41L1162.66,815.22z"/>
	<path class="st0" d="M1214.36,878.49l22.39,32.02l-33.47,23.4l-22.4-32.02L1214.36,878.49z"/>
	<path class="st0" d="M1252.72,955.62l15.28,35.95l-37.58,16.01l-15.28-35.95L1252.72,955.62z"/>
	<path class="st0" d="M1273.89,1036.75l6.71,38.49l-40.24,7l-6.71-38.56L1273.89,1036.75z"/>
	<path class="st0" d="M752.64,748.4h39.08v40.8h-39.08V748.4z"/>
	<path class="st0" d="M837.25,758.18l37.86,9.7l-10.12,39.57l-37.86-9.7L837.25,758.18z"/>
	<path class="st0" d="M918.68,791.51l33.42,20.32l-21.19,34.87l-33.4-20.24L918.68,791.51z"/>
	<path class="st0" d="M987.64,843.08l27.25,28.02l-29.26,28.48l-27.26-28.02L987.64,843.08z"/>
	<path class="st0" d="M1039.49,910.97l18.55,34.41l-35.94,19.4l-18.55-34.41L1039.49,910.97z"/>
	<path class="st0" d="M1072.59,984.18l15,36.1l-37.73,15.7l-14.99-36.1L1072.59,984.18z"/>
	<path class="st0" d="M1090.65,1069.69l3.08,38.95l-40.72,3.23l-3.08-38.95L1090.65,1069.69z"/>
</g>
</svg>
