<?xml version="1.0" encoding="utf-8"?>
<!-- Generator: Adobe Illustrator 25.0.0, SVG Export Plug-In . SVG Version: 6.00 Build 0)  -->
<svg version="1.1" id="Layer_1" xmlns="http://www.w3.org/2000/svg" xmlns:xlink="http://www.w3.org/1999/xlink" x="0px" y="0px"
	 viewBox="0 0 1350 1350" style="enable-background:new 0 0 1350 1350;" xml:space="preserve">
<g>
	<path d="M685.17,793.93c0,71.03-57.82,128.85-128.85,128.85c-71.28,0-129.1-57.82-129.1-128.85c0-71.28,57.82-129.1,129.1-129.1
		c7.23,0,14.21,1,21.19,1.99l-74.02,74.27c-29.16,28.91-29.16,76.51-1,104.68c13.96,14.46,33.4,22.93,53.83,22.93
		c20.19,0,39.63-8.47,52.59-22.18l74.27-74.02C684.17,779.48,685.17,786.46,685.17,793.93z"/>
	<path d="M1060.51,793.93c0,277.9-226.3,504.2-504.2,504.2c-278.14,0-504.45-226.3-504.45-504.2
		c0-278.14,226.3-504.45,504.45-504.45c112.15,0,215.34,37.14,299.08,99.44L738.75,505.57c-52.84-33.65-115.4-53.33-182.44-53.33
		c-188.42,0-341.7,153.28-341.7,341.7c0,188.17,153.28,341.45,341.7,341.45c188.17,0,341.45-153.28,341.45-341.45
		c0-67.29-19.69-129.85-53.34-182.69L961.32,494.6C1023.38,578.6,1060.51,681.78,1060.51,793.93z"/>
	<path d="M702.52,541.84c-43.07-25.11-92.96-39.74-146.31-39.74c-160.86,0-291.73,130.87-291.73,291.74
		c0,160.85,130.87,291.71,291.73,291.71s291.73-130.86,291.73-291.71c0-53.35-14.63-103.23-39.74-146.3l-84.39,84.34
		c7.17,19.34,11.29,40.15,11.29,61.95c0,98.65-80.25,178.89-178.89,178.89s-178.89-80.25-178.89-178.89s80.25-178.89,178.89-178.89
		c21.8,0,42.6,4.11,61.93,11.28L702.52,541.84z"/>
	<path d="M1296.29,202.01c-3.99-9.47-12.96-15.45-23.18-15.45h-109.66V76.89c0-10.22-5.98-19.19-15.2-23.18
		c-9.47-3.74-20.19-1.74-27.17,5.48L994.97,185.31c-4.74,4.49-7.23,10.97-7.23,17.45v124.37L538.62,776.24
		c-9.72,9.72-9.72,25.42,0,35.14c4.74,4.98,11.21,7.48,17.69,7.48c6.23,0,12.71-2.49,17.45-7.48l449.37-449.12h124.12
		c6.48,0,12.96-2.49,17.7-7.23l125.86-125.86C1298.03,221.94,1300.03,211.23,1296.29,202.01z"/>
</g>
</svg>
